<?xml version="1.0" encoding="utf-8"?>
<!-- Generator: Adobe Illustrator 24.2.1, SVG Export Plug-In . SVG Version: 6.00 Build 0)  -->
<svg version="1.1" id="Layer_1" xmlns="http://www.w3.org/2000/svg" xmlns:xlink="http://www.w3.org/1999/xlink" x="0px" y="0px"
	 viewBox="0 0 239 33" style="enable-background:new 0 0 239 33;" xml:space="preserve">
<style type="text/css">
	.st0{fill-rule:evenodd;clip-rule:evenodd;fill:#334B64;}
</style>
<desc>Created with sketchtool.</desc>
<g id="Page-1">
	<g id="Home" transform="translate(-764.000000, -68.000000)">
		<g id="homepage" transform="translate(-71.000000, -10.000000)">
			<g id="Nav-_x2F_-header">
				<g id="Group" transform="translate(835.000000, 78.000000)">
					<path id="Fill-3" class="st0" d="M238.9,13.4V9.7h-0.8l-0.9,2.9h0l-0.9-2.9h-0.8v3.7h0.5v-3.2h0l1,3.2h0.4l1-3.2h0v3.2H238.9z
						 M234,13.4v-3.3h1V9.7h-2.5v0.4h1v3.3H234z M37.8,18.3L37.8,18.3c1.9-0.7,3.1-1.9,3.1-4V14c0-2.4-1.9-4.3-5.8-4.3h-5.4v18.4
						h5.8c3.8,0,6.4-1.9,6.4-5V23C41.9,20.6,40.5,18.8,37.8,18.3L37.8,18.3z M32.1,11.8h2.7c2.6,0,3.9,1,3.9,2.7v0.2
						c0,2.1-1.8,2.8-4.2,2.8h-2.4V11.8z M39.5,22.9c0,2.3-1.8,3.1-4.4,3.1h-3v-6.6h3.1c2.6,0,4.4,0.9,4.4,3.2V22.9z M49.6,14.2h0.7
						v2.2h-0.6c-2.2,0-3.7,1.1-3.7,4v7.8h-2.2V14.2h2.2v2.5h0.1C46.6,15.4,47.6,14.2,49.6,14.2L49.6,14.2z M52.3,14.2h2.2v13.9h-2.2
						V14.2z M54.7,11.1c0,1.1-0.5,1.6-1.3,1.6c-0.9,0-1.3-0.5-1.3-1.6c0-1.1,0.5-1.6,1.3-1.6C54.3,9.4,54.7,10,54.7,11.1L54.7,11.1z
						 M66.8,24.3c0,2.7-2,4.1-4.9,4.1c-2.9,0-4.9-1.3-5-4.1H59c0.1,1.7,1.3,2.3,2.8,2.3c1.5,0,2.7-0.7,2.7-2.1
						c0-3.4-7.6-1.1-7.6-6.5c0-2.3,1.7-4,4.8-4c2.8,0,4.7,1.4,4.9,4.1h-2.2c-0.1-1.6-1.3-2.3-2.7-2.3c-1.6,0-2.6,0.7-2.6,2.1
						C59.1,21.2,66.8,19.2,66.8,24.3L66.8,24.3z M71.8,14.2h3v1.9h-3v7.7c0,2,0.5,2.4,1.9,2.4c0.4,0,0.8-0.1,1.1-0.1v1.9
						c-0.4,0.1-1,0.1-1.4,0.1c-2.7,0-3.8-1.1-3.8-4v-8h-2.3v-1.9h2.3V9.7h2.2V14.2z M81.4,13.9c-3.4,0-5.3,2.4-5.3,6.2v2.1
						c0,3.8,1.8,6.2,5.3,6.2c3.4,0,5.3-2.4,5.3-6.2v-2.1C86.7,16.3,84.8,13.9,81.4,13.9L81.4,13.9z M84.4,22c0,3.3-1.2,4.4-3,4.4
						c-1.9,0-3-1.1-3-4.4v-1.8c0-3.3,1.2-4.4,3-4.4c1.9,0,3,1.1,3,4.4V22z M89,9.7h2.2v18.4H89V9.7z M112.5,9.7h3.7v18.4h-2.3V12.3
						h-0.1l-4.7,12.8h-2.9l-4.7-12.8h-0.1v15.9h-2.3V9.7h3.9l4.6,12.8h0.1L112.5,9.7z M127,14.2h2.2L123,32.6h-2.3l1.6-4.4l-4.5-14
						h2.3l3.3,10.9h0.1L127,14.2z M135.2,13.9c-3.4,0-5.3,2.5-5.3,6.2v2.1c0,3.8,1.8,6.2,5.3,6.2c2.8,0,4.4-1.5,4.9-4.1h-2.3
						c-0.4,1.6-1.3,2.2-2.7,2.2c-1.9,0-3-1.1-3-4.4v-0.2h8.1v-1.7C140.2,16.4,138.6,13.9,135.2,13.9L135.2,13.9z M135.2,15.9
						c1.8,0,2.8,1.1,2.8,4.3h-5.8C132.1,16.9,133.3,15.9,135.2,15.9L135.2,15.9z M148.4,14.2h0.7v2.2h-0.6c-2.2,0-3.7,1.1-3.7,4v7.8
						h-2.2V14.2h2.2v2.5h0.1C145.3,15.4,146.4,14.2,148.4,14.2L148.4,14.2z M160.2,24.3c0,2.7-2,4.1-4.9,4.1c-2.9,0-4.9-1.3-5-4.1
						h2.2c0.1,1.7,1.3,2.3,2.8,2.3c1.5,0,2.7-0.7,2.7-2.1c0-3.4-7.6-1.1-7.6-6.5c0-2.3,1.7-4,4.8-4c2.8,0,4.7,1.4,4.9,4.1h-2.2
						c-0.1-1.6-1.3-2.3-2.7-2.3c-1.6,0-2.6,0.7-2.6,2.1C152.5,21.2,160.2,19.2,160.2,24.3L160.2,24.3z M177.7,23.3
						c0,3.3-2.3,5.1-5.7,5.1c-3.3,0-5.9-1.6-6.3-5.1h2.4c0.3,2.1,1.8,3,3.8,3c2.3,0,3.4-1.4,3.4-2.9c0-5.2-9.4-2.2-9.4-9.1
						c0-2.9,2.3-4.9,5.6-4.9c3.2,0,5.8,1.6,5.9,5.2h-2.4c-0.2-2.2-1.6-3.1-3.5-3.1c-2.2,0-3.2,1.3-3.2,2.7
						C168.4,18.8,177.7,16.1,177.7,23.3L177.7,23.3z M187.7,15.9h-0.1c-0.6-1.2-1.7-1.9-3.2-1.9c-3.4,0-5,2.4-5,6.2v2.1
						c0,3.8,1.6,6.2,5,6.2c1.4,0,2.6-0.7,3.2-1.9h0.1v1.7v4.5h2.2V14.2h-2.2V15.9z M184.7,26.4c-1.9,0-3-1.1-3-4.4v-1.8
						c0-3.3,1.2-4.4,3-4.4c1.9,0,3.1,1.1,3.1,4.4V22C187.7,25.4,186.6,26.4,184.7,26.4L184.7,26.4z M200.1,14.2h2.2v13.9h-2.2v-1.8
						H200c-0.5,1.1-1.7,2.1-3.4,2.1c-2.6,0-4.2-1.5-4.2-4.8v-9.4h2.2v9.1c0,2.2,0.9,3.2,2.6,3.2c1.6,0,2.9-1.1,2.9-3.8V14.2z
						 M205.1,14.2h2.2v13.9h-2.2V14.2z M215.8,13.9c-1.5,0-2.6,0.7-3.2,1.9h-0.1v-1.7V9.7h-2.2v18.4h2.2v-1.7h0.1
						c0.6,1.2,1.7,1.9,3.2,1.9c3.4,0,5-2.4,5-6.2v-2.1C220.8,16.3,219.2,13.9,215.8,13.9L215.8,13.9z M218.6,22c0,3.3-1.2,4.4-3,4.4
						c-1.9,0-3-1.1-3-4.4v-1.8c0-3.3,1.2-4.4,3-4.4c1.9,0,3,1.1,3,4.4V22z M228.5,13.9c-1.5,0-2.6,0.7-3.2,1.9h-0.1v-1.7V9.7H223
						v18.4h2.2v-1.7h0.1c0.6,1.2,1.7,1.9,3.2,1.9c3.4,0,5-2.4,5-6.2v-2.1C233.5,16.3,231.9,13.9,228.5,13.9L228.5,13.9z M231.3,22
						c0,3.3-1.2,4.4-3.1,4.4c-1.9,0-3-1.1-3-4.4v-1.8c0-3.3,1.2-4.4,3-4.4c1.9,0,3.1,1.1,3.1,4.4V22z M207.6,11.1
						c0,1.1-0.5,1.6-1.3,1.6c-0.9,0-1.3-0.5-1.3-1.6c0-1.1,0.5-1.6,1.3-1.6C207.1,9.4,207.6,10,207.6,11.1L207.6,11.1z"/>
					<path id="Fill-1" class="st0" d="M9.4,32.1C9.2,32.6,8.7,33,8.1,33c-0.2,0-0.4,0-0.6-0.1c-4.6-2.3-7.1-6.2-7.1-11.5v-5.9
						c0-0.8,0.7-1.5,1.5-1.5s1.5,0.7,1.5,1.5v5.9c0,4.1,1.8,7.1,5.4,8.8C9.5,30.5,9.8,31.4,9.4,32.1L9.4,32.1z M5,18.4
						c0,0.8,0.7,1.5,1.5,1.5c0.8,0,1.5-0.7,1.5-1.5V6.2c0-0.8-0.7-1.5-1.5-1.5C5.7,4.7,5,5.4,5,6.2V18.4z M9.7,18
						c0,0.8,0.7,1.5,1.5,1.5c0.8,0,1.5-0.7,1.5-1.5V1.7c0-0.8-0.7-1.5-1.5-1.5c-0.8,0-1.5,0.7-1.5,1.5V18z M14.4,19.1
						c0,0.8,0.7,1.5,1.5,1.5c0.8,0,1.5-0.7,1.5-1.5V4.5C17.5,3.7,16.8,3,16,3c-0.8,0-1.5,0.7-1.5,1.5V19.1z M19.1,21.1
						c0,0.8,0.7,1.5,1.5,1.5c0.8,0,1.5-0.7,1.5-1.5v-9.9c0-0.8-0.7-1.5-1.5-1.5c-0.8,0-1.5,0.7-1.5,1.5V21.1z"/>
				</g>
			</g>
		</g>
	</g>
</g>
</svg>
