<svg width="2100" height="902" viewBox="0 0 2100 902" fill="none" xmlns="http://www.w3.org/2000/svg">
<g style="mix-blend-mode:overlay" opacity="0.7">
<path d="M2000.29 688.998L1819.59 644.004" stroke="#327989" stroke-width="1.5"/>
<path d="M2000.29 688.998L2076.65 859.235" stroke="#327989" stroke-width="1.5"/>
<path d="M2000.29 688.998L1905.8 865.447" stroke="#327989" stroke-width="1.5"/>
<path d="M2099.45 683.33L1823.84 475.055" stroke="#327989" stroke-width="1.5"/>
<path d="M2000.29 688.998L1648.33 692.036" stroke="#327989" stroke-width="1.5"/>
<path d="M2076.65 859.235L1905.8 865.447" stroke="#327989" stroke-width="1.5"/>
<path d="M2076.65 859.235L1819.59 644.004" stroke="#327989" stroke-width="1.5"/>
<path d="M1823.84 475.501L1672.79 544.142" stroke="#327989" stroke-width="1.5"/>
<path d="M1823.84 475.501L1819.59 644.004" stroke="#327989" stroke-width="1.5"/>
<path d="M1819.59 644.004L1648.33 692.036" stroke="#327989" stroke-width="1.5"/>
<path d="M1819.59 644.004L1672.79 544.142" stroke="#327989" stroke-width="1.5"/>
<path d="M1819.59 644.004L1905.8 865.447" stroke="#327989" stroke-width="1.5"/>
<path d="M1819.59 644.004L1511.95 687.671" stroke="#327989" stroke-width="1.5"/>
<path d="M1672.79 544.142L1518.95 508.524" stroke="#327989" stroke-width="1.5"/>
<path d="M1672.79 544.142L1648.33 692.036" stroke="#327989" stroke-width="1.5"/>
<path d="M1672.79 544.142L1511.95 687.671" stroke="#327989" stroke-width="1.5"/>
<path d="M1648.33 692.036L1511.95 687.671" stroke="#327989" stroke-width="1.5"/>
<path d="M1648.33 692.036L1644.38 888.845" stroke="#327989" stroke-width="1.5"/>
<path d="M1648.33 692.036L1541.08 877.407" stroke="#327989" stroke-width="1.5"/>
<path d="M1644.38 888.845L1541.08 877.407" stroke="#327989" stroke-width="1.5"/>
<path d="M1644.38 888.845L1511.95 687.671" stroke="#327989" stroke-width="1.5"/>
<path d="M1644.38 888.845L1905.8 865.447" stroke="#327989" stroke-width="1.5"/>
<path d="M1518.95 508.524L1511.95 687.671" stroke="#327989" stroke-width="1.5"/>
<path d="M1518.95 508.524L1289.4 513.874" stroke="#327989" stroke-width="1.5"/>
<path d="M1518.95 508.524L1648.33 692.036" stroke="#327989" stroke-width="1.5"/>
<path d="M1518.95 508.524L1823.84 475.501" stroke="#327989" stroke-width="1.5"/>
<path d="M1541.08 877.407L1511.95 687.671" stroke="#327989" stroke-width="1.5"/>
<path d="M1541.08 877.407L1342.24 824.013" stroke="#327989" stroke-width="1.5"/>
<path d="M1289.4 513.875L1164.59 478.517" stroke="#327989" stroke-width="1.5"/>
<path d="M1342.24 824.013L1160.92 702.601" stroke="#327989" stroke-width="1.5"/>
<path d="M1342.24 824.013L1511.95 687.671" stroke="#327989" stroke-width="1.5"/>
<path d="M1342.24 824.013L1116.39 822.392" stroke="#327989" stroke-width="1.5"/>
<path d="M1342.24 824.013L1644.38 888.846" stroke="#327989" stroke-width="1.5"/>
<path d="M1342.24 824.013L1289.4 513.875" stroke="#327989" stroke-width="1.5"/>
<path d="M1107.65 322.597L941.462 302.895" stroke="#327989" stroke-width="1.5"/>
<path d="M1107.65 322.597L1164.59 478.517" stroke="#327989" stroke-width="1.5"/>
<path d="M1107.65 322.597L990.941 510.258" stroke="#327989" stroke-width="1.5"/>
<path d="M1107.65 322.597L1289.4 513.875" stroke="#327989" stroke-width="1.5"/>
<path d="M1107.65 322.597L782.164 342.118" stroke="#327989" stroke-width="1.5"/>
<path d="M1107.65 322.597L793.495 207.239" stroke="#327989" stroke-width="1.5"/>
<path d="M1164.59 478.517L990.941 510.258" stroke="#327989" stroke-width="1.5"/>
<path d="M1164.59 478.517L1160.92 702.601" stroke="#327989" stroke-width="1.5"/>
<path d="M1164.59 478.516L941.462 302.895" stroke="#327989" stroke-width="1.5"/>
<path d="M1160.92 702.601L1116.39 822.392" stroke="#327989" stroke-width="1.5"/>
<path d="M1160.92 702.601L948.371 708.666" stroke="#327989" stroke-width="1.5"/>
<path d="M1116.39 822.392L966.273 855.46" stroke="#327989" stroke-width="1.5"/>
<path d="M1116.39 822.392L948.371 708.666" stroke="#327989" stroke-width="1.5"/>
<path d="M1116.39 822.392L990.941 510.258" stroke="#327989" stroke-width="1.5"/>
<path d="M1116.39 822.392L760.891 811.588" stroke="#327989" stroke-width="1.5"/>
<path d="M941.461 302.895L782.163 342.118" stroke="#327989" stroke-width="1.5"/>
<path d="M990.94 510.258L948.371 708.666" stroke="#327989" stroke-width="1.5"/>
<path d="M990.94 510.258L941.461 302.895" stroke="#327989" stroke-width="1.5"/>
<path d="M948.37 708.666L966.272 855.46" stroke="#327989" stroke-width="1.5"/>
<path d="M948.371 708.666L760.891 811.589" stroke="#327989" stroke-width="1.5"/>
<path d="M966.272 855.46L760.89 811.588" stroke="#327989" stroke-width="1.5"/>
<path d="M966.273 855.46L1160.92 702.601" stroke="#327989" stroke-width="1.5"/>
<path d="M793.494 207.239L782.163 342.118" stroke="#327989" stroke-width="1.5"/>
<path d="M782.164 342.118L730.329 480.546" stroke="#327989" stroke-width="1.5"/>
<path d="M782.164 342.118L624.159 311.102" stroke="#327989" stroke-width="1.5"/>
<path d="M782.164 342.118L587.569 474.413" stroke="#327989" stroke-width="1.5"/>
<path d="M730.328 480.546L587.568 474.413" stroke="#327989" stroke-width="1.5"/>
<path d="M587.181 474.819L787.175 684.813L990.441 510.915M587.181 474.819L767.843 493.485M587.181 474.819L553.183 702.812L767.843 493.485M767.843 493.485L922.941 697.915L948.941 708.915L1120.44 641.415L990.441 510.915M767.843 493.485L990.441 510.915M767.843 493.485L940.941 303.415M730.51 480.152L760.51 810.809L443.186 503.485M1289.44 513.415L1511.94 687.415M1307.94 672.915L1519.44 509.915M1718.94 652.415L1823.94 477.415" stroke="#327989" stroke-width="1.5"/>
<path d="M730.328 480.546L624.158 311.102" stroke="#327989" stroke-width="1.5"/>
<path d="M760.89 811.588L563.601 844.917" stroke="#327989" stroke-width="1.5"/>
<path d="M581.443 39.8583L452.696 35.2444" stroke="#327989" stroke-width="1.5"/>
<path d="M581.443 39.8584L607.982 180.463" stroke="#327989" stroke-width="1.5"/>
<path d="M607.982 180.462L624.157 311.102" stroke="#327989" stroke-width="1.5"/>
<path d="M607.983 180.462L793.494 207.239" stroke="#327989" stroke-width="1.5"/>
<path d="M624.157 311.102L587.567 474.413" stroke="#327989" stroke-width="1.5"/>
<path d="M624.158 311.102L793.494 207.239" stroke="#327989" stroke-width="1.5"/>
<path d="M587.567 474.413L442.246 503.479" stroke="#327989" stroke-width="1.5"/>
<path d="M587.567 474.413L382.656 348.296" stroke="#327989" stroke-width="1.5"/>
<path d="M551.763 702.749L563.602 844.917" stroke="#327989" stroke-width="1.5"/>
<path d="M551.763 702.749L388.599 718.755" stroke="#327989" stroke-width="1.5"/>
<path d="M551.763 702.749L442.246 503.479" stroke="#327989" stroke-width="1.5"/>
<path d="M551.762 702.749L760.89 811.588" stroke="#327989" stroke-width="1.5"/>
<path d="M551.763 702.749L416.745 890.852" stroke="#327989" stroke-width="1.5"/>
<path d="M563.602 844.917L416.746 890.852" stroke="#327989" stroke-width="1.5"/>
<path d="M563.602 844.917L388.6 718.755" stroke="#327989" stroke-width="1.5"/>
<path d="M563.602 844.917L230.437 831.132" stroke="#327989" stroke-width="1.5"/>
<path d="M452.695 35.2446L370.866 206.797" stroke="#327989" stroke-width="1.5"/>
<path d="M452.695 35.2444L607.982 180.462" stroke="#327989" stroke-width="1.5"/>
<path d="M452.695 35.2446L245.223 179.59" stroke="#327989" stroke-width="1.5"/>
<path d="M370.866 206.797L245.223 179.59" stroke="#327989" stroke-width="1.5"/>
<path d="M370.866 206.797L382.656 348.297" stroke="#327989" stroke-width="1.5"/>
<path d="M370.866 206.797L607.982 180.462" stroke="#327989" stroke-width="1.5"/>
<path d="M370.866 206.797L581.443 39.8584" stroke="#327989" stroke-width="1.5"/>
<path d="M382.656 348.296L442.246 503.479" stroke="#327989" stroke-width="1.5"/>
<path d="M382.656 348.296L262.352 507.605" stroke="#327989" stroke-width="1.5"/>
<path d="M382.656 348.297L245.223 179.59" stroke="#327989" stroke-width="1.5"/>
<path d="M442.246 503.479L262.352 507.606" stroke="#327989" stroke-width="1.5"/>
<path d="M442.246 503.479L388.599 718.756" stroke="#327989" stroke-width="1.5"/>
<path d="M388.6 718.756L238.18 693.204" stroke="#327989" stroke-width="1.5"/>
<path d="M388.6 718.756L416.746 890.852" stroke="#327989" stroke-width="1.5"/>
<path d="M416.746 890.852L230.437 831.132" stroke="#327989" stroke-width="1.5"/>
<path d="M416.746 890.852L238.181 693.204" stroke="#327989" stroke-width="1.5"/>
<path d="M416.745 890.852L760.89 811.588" stroke="#327989" stroke-width="1.5"/>
<path d="M245.222 179.59L6.95755 212.147" stroke="#327989" stroke-width="1.5"/>
<path d="M245.222 179.59L62.9841 19.9292" stroke="#327989" stroke-width="1.5"/>
<path d="M245.222 179.59L73.1071 383.382" stroke="#327989" stroke-width="1.5"/>
<path d="M262.353 507.605L238.181 693.203" stroke="#327989" stroke-width="1.5"/>
<path d="M262.353 507.606L73.1086 383.382" stroke="#327989" stroke-width="1.5"/>
<path d="M238.179 693.204L230.436 831.132" stroke="#327989" stroke-width="1.5"/>
<path d="M238.179 693.203L6.03903 666.042" stroke="#327989" stroke-width="1.5"/>
<path d="M238.179 693.204L57.8498 836.177" stroke="#327989" stroke-width="1.5"/>
<path d="M230.437 831.132L57.851 836.177" stroke="#327989" stroke-width="1.5"/>
<path d="M230.437 831.132L388.6 718.756" stroke="#327989" stroke-width="1.5"/>
<path d="M230.437 831.132L6.03997 666.042" stroke="#327989" stroke-width="1.5"/>
<path d="M62.9844 19.9292L6.95777 212.148" stroke="#327989" stroke-width="1.5"/>
<path d="M62.9853 19.9292L370.866 206.797" stroke="#327989" stroke-width="1.5"/>
<path d="M6.9569 212.147L73.1064 383.382" stroke="#327989" stroke-width="1.5"/>
<path d="M6.95674 212.147L15.3887 549.743" stroke="#327989" stroke-width="1.5"/>
<path d="M73.1064 383.382L15.3886 549.743" stroke="#327989" stroke-width="1.5"/>
<path d="M15.3887 549.743L6.03868 666.042" stroke="#327989" stroke-width="1.5"/>
<path d="M15.3908 549.743L262.353 507.605" stroke="#327989" stroke-width="1.5"/>
<path d="M15.3889 549.743L238.179 693.204" stroke="#327989" stroke-width="1.5"/>
<path d="M6.03974 666.042L57.8506 836.177" stroke="#327989" stroke-width="1.5"/>
<path d="M6.04089 666.042L262.353 507.605" stroke="#327989" stroke-width="1.5"/>
<path d="M2000.29 694.666C1996.95 694.666 1994.25 692.128 1994.25 688.998C1994.25 685.867 1996.95 683.33 2000.29 683.33C2003.63 683.33 2006.33 685.867 2006.33 688.998C2006.33 692.128 2003.63 694.666 2000.29 694.666Z" fill="#327989"/>
<path d="M2076.65 864.903C2073.31 864.903 2070.61 862.365 2070.61 859.235C2070.61 856.105 2073.31 853.567 2076.65 853.567C2079.98 853.567 2082.69 856.105 2082.69 859.235C2082.69 862.365 2079.98 864.903 2076.65 864.903Z" fill="#327989"/>
<path d="M1823.84 481.169C1820.5 481.169 1817.8 478.632 1817.8 475.501C1817.8 472.371 1820.5 469.833 1823.84 469.833C1827.17 469.833 1829.88 472.371 1829.88 475.501C1829.88 478.632 1827.17 481.169 1823.84 481.169Z" fill="#327989"/>
<path d="M1819.59 649.672C1816.25 649.672 1813.55 647.135 1813.55 644.004C1813.55 640.874 1816.25 638.336 1819.59 638.336C1822.92 638.336 1825.63 640.874 1825.63 644.004C1825.63 647.135 1822.92 649.672 1819.59 649.672Z" fill="#327989"/>
<path d="M1905.8 871.116C1902.47 871.116 1899.76 868.578 1899.76 865.447C1899.76 862.317 1902.47 859.779 1905.8 859.779C1909.14 859.779 1911.84 862.317 1911.84 865.447C1911.84 868.578 1909.14 871.116 1905.8 871.116Z" fill="#327989"/>
<path d="M1672.79 549.811C1669.46 549.811 1666.75 547.273 1666.75 544.143C1666.75 541.012 1669.46 538.474 1672.79 538.474C1676.13 538.474 1678.83 541.012 1678.83 544.143C1678.83 547.273 1676.13 549.811 1672.79 549.811Z" fill="#327989"/>
<path d="M1648.33 697.704C1644.99 697.704 1642.29 695.166 1642.29 692.036C1642.29 688.905 1644.99 686.368 1648.33 686.368C1651.67 686.368 1654.37 688.905 1654.37 692.036C1654.37 695.166 1651.67 697.704 1648.33 697.704Z" fill="#327989"/>
<path d="M1644.38 894.514C1641.04 894.514 1638.34 891.976 1638.34 888.845C1638.34 885.715 1641.04 883.177 1644.38 883.177C1647.72 883.177 1650.42 885.715 1650.42 888.845C1650.42 891.976 1647.72 894.514 1644.38 894.514Z" fill="#327989"/>
<path d="M1518.95 514.192C1515.62 514.192 1512.91 511.654 1512.91 508.524C1512.91 505.393 1515.62 502.856 1518.95 502.856C1522.29 502.856 1524.99 505.393 1524.99 508.524C1524.99 511.654 1522.29 514.192 1518.95 514.192Z" fill="#327989"/>
<path d="M1511.95 693.339C1508.61 693.339 1505.91 690.802 1505.91 687.671C1505.91 684.541 1508.61 682.003 1511.95 682.003C1515.28 682.003 1517.99 684.541 1517.99 687.671C1517.99 690.802 1515.28 693.339 1511.95 693.339Z" fill="#327989"/>
<path d="M1541.08 883.075C1537.75 883.075 1535.04 880.537 1535.04 877.407C1535.04 874.277 1537.75 871.739 1541.08 871.739C1544.42 871.739 1547.12 874.277 1547.12 877.407C1547.12 880.537 1544.42 883.075 1541.08 883.075Z" fill="#327989"/>
<path d="M1289.4 519.543C1286.06 519.543 1283.36 517.005 1283.36 513.874C1283.36 510.744 1286.06 508.206 1289.4 508.206C1292.73 508.206 1295.44 510.744 1295.44 513.874C1295.44 517.005 1292.73 519.543 1289.4 519.543Z" fill="#327989"/>
<path d="M1342.24 829.681C1338.9 829.681 1336.2 827.144 1336.2 824.013C1336.2 820.883 1338.9 818.345 1342.24 818.345C1345.57 818.345 1348.28 820.883 1348.28 824.013C1348.28 827.144 1345.57 829.681 1342.24 829.681Z" fill="#327989"/>
<path d="M1107.64 328.265C1104.31 328.265 1101.6 325.728 1101.6 322.597C1101.6 319.467 1104.31 316.929 1107.64 316.929C1110.98 316.929 1113.68 319.467 1113.68 322.597C1113.68 325.728 1110.98 328.265 1107.64 328.265Z" fill="#327989"/>
<path d="M1164.59 484.185C1161.25 484.185 1158.55 481.647 1158.55 478.517C1158.55 475.386 1161.25 472.848 1164.59 472.848C1167.93 472.848 1170.63 475.386 1170.63 478.517C1170.63 481.647 1167.93 484.185 1164.59 484.185Z" fill="#327989"/>
<path d="M1160.92 708.269C1157.58 708.269 1154.88 705.732 1154.88 702.601C1154.88 699.471 1157.58 696.933 1160.92 696.933C1164.25 696.933 1166.96 699.471 1166.96 702.601C1166.96 705.732 1164.25 708.269 1160.92 708.269Z" fill="#327989"/>
<path d="M1116.39 828.06C1113.05 828.06 1110.35 825.522 1110.35 822.392C1110.35 819.262 1113.05 816.724 1116.39 816.724C1119.73 816.724 1122.43 819.262 1122.43 822.392C1122.43 825.522 1119.73 828.06 1116.39 828.06Z" fill="#327989"/>
<path d="M941.462 308.563C938.126 308.563 935.422 306.025 935.422 302.894C935.422 299.764 938.126 297.226 941.462 297.226C944.798 297.226 947.502 299.764 947.502 302.894C947.502 306.025 944.798 308.563 941.462 308.563Z" fill="#327989"/>
<path d="M990.941 515.926C987.605 515.926 984.901 513.389 984.901 510.258C984.901 507.128 987.605 504.59 990.941 504.59C994.276 504.59 996.98 507.128 996.98 510.258C996.98 513.389 994.276 515.926 990.941 515.926Z" fill="#327989"/>
<path d="M948.37 714.334C945.034 714.334 942.33 711.797 942.33 708.666C942.33 705.536 945.034 702.998 948.37 702.998C951.706 702.998 954.41 705.536 954.41 708.666C954.41 711.797 951.706 714.334 948.37 714.334Z" fill="#327989"/>
<path d="M966.273 861.128C962.937 861.128 960.233 858.591 960.233 855.46C960.233 852.33 962.937 849.792 966.273 849.792C969.608 849.792 972.312 852.33 972.312 855.46C972.312 858.591 969.608 861.128 966.273 861.128Z" fill="#327989"/>
<path d="M793.493 212.907C790.157 212.907 787.453 210.369 787.453 207.239C787.453 204.109 790.157 201.571 793.493 201.571C796.829 201.571 799.533 204.109 799.533 207.239C799.533 210.369 796.829 212.907 793.493 212.907Z" fill="#327989"/>
<path d="M782.163 347.786C778.827 347.786 776.123 345.249 776.123 342.118C776.123 338.988 778.827 336.45 782.163 336.45C785.499 336.45 788.203 338.988 788.203 342.118C788.203 345.249 785.499 347.786 782.163 347.786Z" fill="#327989"/>
<path d="M730.327 486.214C726.991 486.214 724.287 483.676 724.287 480.546C724.287 477.415 726.991 474.878 730.327 474.878C733.663 474.878 736.367 477.415 736.367 480.546C736.367 483.676 733.663 486.214 730.327 486.214Z" fill="#327989"/>
<path d="M760.891 817.257C757.555 817.257 754.85 814.719 754.85 811.589C754.85 808.458 757.555 805.92 760.891 805.92C764.226 805.92 766.931 808.458 766.931 811.589C766.931 814.719 764.226 817.257 760.891 817.257Z" fill="#327989"/>
<path d="M581.443 45.5265C578.107 45.5265 575.403 42.9888 575.403 39.8583C575.403 36.7279 578.107 34.1902 581.443 34.1902C584.778 34.1902 587.482 36.7279 587.482 39.8583C587.482 42.9888 584.778 45.5265 581.443 45.5265Z" fill="#327989"/>
<path d="M607.984 186.131C604.648 186.131 601.944 183.593 601.944 180.463C601.944 177.332 604.648 174.794 607.984 174.794C611.319 174.794 614.023 177.332 614.023 180.463C614.023 183.593 611.319 186.131 607.984 186.131Z" fill="#327989"/>
<path d="M624.157 316.77C620.822 316.77 618.117 314.232 618.117 311.102C618.117 307.972 620.822 305.434 624.157 305.434C627.493 305.434 630.197 307.972 630.197 311.102C630.197 314.232 627.493 316.77 624.157 316.77Z" fill="#327989"/>
<path d="M587.568 480.081C584.232 480.081 581.528 477.543 581.528 474.413C581.528 471.282 584.232 468.745 587.568 468.745C590.903 468.745 593.607 471.282 593.607 474.413C593.607 477.543 590.903 480.081 587.568 480.081Z" fill="#327989"/>
<path d="M551.764 708.417C548.428 708.417 545.724 705.879 545.724 702.749C545.724 699.618 548.428 697.081 551.764 697.081C555.1 697.081 557.804 699.618 557.804 702.749C557.804 705.879 555.1 708.417 551.764 708.417Z" fill="#327989"/>
<path d="M563.601 850.585C560.265 850.585 557.561 848.048 557.561 844.917C557.561 841.787 560.265 839.249 563.601 839.249C566.936 839.249 569.641 841.787 569.641 844.917C569.641 848.048 566.936 850.585 563.601 850.585Z" fill="#327989"/>
<path d="M452.694 40.9127C449.359 40.9127 446.655 38.375 446.655 35.2446C446.655 32.1141 449.359 29.5764 452.694 29.5764C456.03 29.5764 458.734 32.1141 458.734 35.2446C458.734 38.375 456.03 40.9127 452.694 40.9127Z" fill="#327989"/>
<path d="M370.865 212.465C367.53 212.465 364.826 209.927 364.826 206.797C364.826 203.666 367.53 201.129 370.865 201.129C374.201 201.129 376.905 203.666 376.905 206.797C376.905 209.927 374.201 212.465 370.865 212.465Z" fill="#327989"/>
<path d="M382.656 353.965C379.32 353.965 376.616 351.427 376.616 348.297C376.616 345.166 379.32 342.628 382.656 342.628C385.992 342.628 388.696 345.166 388.696 348.297C388.696 351.427 385.992 353.965 382.656 353.965Z" fill="#327989"/>
<path d="M442.245 509.147C438.909 509.147 436.205 506.61 436.205 503.479C436.205 500.349 438.909 497.811 442.245 497.811C445.581 497.811 448.285 500.349 448.285 503.479C448.285 506.61 445.581 509.147 442.245 509.147Z" fill="#327989"/>
<path d="M388.599 724.424C385.263 724.424 382.559 721.886 382.559 718.756C382.559 715.625 385.263 713.087 388.599 713.087C391.935 713.087 394.639 715.625 394.639 718.756C394.639 721.886 391.935 724.424 388.599 724.424Z" fill="#327989"/>
<path d="M416.745 896.52C413.41 896.52 410.705 893.982 410.705 890.852C410.705 887.722 413.41 885.184 416.745 885.184C420.081 885.184 422.785 887.722 422.785 890.852C422.785 893.982 420.081 896.52 416.745 896.52Z" fill="#327989"/>
<path d="M245.223 185.258C241.887 185.258 239.183 182.72 239.183 179.59C239.183 176.459 241.887 173.921 245.223 173.921C248.558 173.921 251.263 176.459 251.263 179.59C251.263 182.72 248.558 185.258 245.223 185.258Z" fill="#327989"/>
<path d="M262.352 513.274C259.016 513.274 256.312 510.736 256.312 507.606C256.312 504.475 259.016 501.938 262.352 501.938C265.687 501.938 268.392 504.475 268.392 507.606C268.392 510.736 265.687 513.274 262.352 513.274Z" fill="#327989"/>
<path d="M238.18 698.872C234.844 698.872 232.14 696.334 232.14 693.204C232.14 690.073 234.844 687.535 238.18 687.535C241.516 687.535 244.22 690.073 244.22 693.204C244.22 696.334 241.516 698.872 238.18 698.872Z" fill="#327989"/>
<path d="M230.436 836.8C227.1 836.8 224.396 834.263 224.396 831.132C224.396 828.002 227.1 825.464 230.436 825.464C233.771 825.464 236.476 828.002 236.476 831.132C236.476 834.263 233.771 836.8 230.436 836.8Z" fill="#327989"/>
<path d="M62.9855 25.5973C59.6498 25.5973 56.9456 23.0596 56.9456 19.9291C56.9456 16.7987 59.6498 14.261 62.9855 14.261C66.3212 14.261 69.0254 16.7987 69.0254 19.9291C69.0254 23.0596 66.3212 25.5973 62.9855 25.5973Z" fill="#327989"/>
<path d="M6.95712 217.816C3.62135 217.816 0.91717 215.278 0.91717 212.148C0.91717 209.017 3.62135 206.479 6.95712 206.479C10.2929 206.479 12.9971 209.017 12.9971 212.148C12.9971 215.278 10.2929 217.816 6.95712 217.816Z" fill="#327989"/>
<path d="M73.1074 389.051C69.7716 389.051 67.0674 386.513 67.0674 383.383C67.0674 380.252 69.7716 377.714 73.1074 377.714C76.4433 377.714 79.1475 380.252 79.1475 383.383C79.1475 386.513 76.4433 389.051 73.1074 389.051Z" fill="#327989"/>
<path d="M15.3897 555.411C12.0539 555.411 9.34965 552.873 9.34965 549.743C9.34965 546.612 12.0539 544.074 15.3897 544.074C18.7255 544.074 21.4297 546.612 21.4297 549.743C21.4297 552.873 18.7255 555.411 15.3897 555.411Z" fill="#327989"/>
<path d="M6.04013 671.71C2.70436 671.71 0.000177383 669.172 0.000177383 666.042C0.000177383 662.911 2.70436 660.374 6.04013 660.374C9.3759 660.374 12.0801 662.911 12.0801 666.042C12.0801 669.172 9.3759 671.71 6.04013 671.71Z" fill="#327989"/>
<path d="M57.8498 841.845C54.514 841.845 51.8099 839.307 51.8099 836.177C51.8099 833.047 54.514 830.509 57.8498 830.509C61.1855 830.509 63.8896 833.047 63.8896 836.177C63.8896 839.307 61.1855 841.845 57.8498 841.845Z" fill="#327989"/>
<path d="M1542.33 848.227L1508.46 706.059" stroke="#82ADB7" stroke-width="1.5"/>
<path d="M1542.33 848.228L1699.48 870.424" stroke="#82ADB7" stroke-width="1.5"/>
<path d="M559.145 723.539L396.392 668.468" stroke="#82ADB7" stroke-width="1.5"/>
<path d="M559.144 723.54L633.254 876.342" stroke="#82ADB7" stroke-width="1.5"/>
<path d="M559.144 723.54L737.299 829.216" stroke="#82ADB7" stroke-width="1.5"/>
<path d="M559.145 723.54L425.408 884.957" stroke="#82ADB7" stroke-width="1.5"/>
<path d="M221.002 873.541L42.3278 860.437" stroke="#82ADB7" stroke-width="1.5"/>
<path d="M221.002 873.542L425.406 884.957" stroke="#82ADB7" stroke-width="1.5"/>
<path d="M72.71 370.833L52.7298 498.332" stroke="#82ADB7" stroke-width="1.5"/>
<path d="M72.7084 370.833L223.043 315.909" stroke="#82ADB7" stroke-width="1.5"/>
<path d="M72.71 370.833L58.9388 196.209" stroke="#82ADB7" stroke-width="1.5"/>
<path d="M72.7105 370.833L255.25 480.716" stroke="#82ADB7" stroke-width="1.5"/>
<path d="M72.709 370.833L247.396 195.755" stroke="#82ADB7" stroke-width="1.5"/>
<path d="M78.2294 667.821L251.576 654.229" stroke="#82ADB7" stroke-width="1.5"/>
<path d="M78.2285 667.822L52.7278 498.333" stroke="#82ADB7" stroke-width="1.5"/>
<path d="M78.2285 667.821L42.3271 860.437" stroke="#82ADB7" stroke-width="1.5"/>
<path d="M78.2294 667.821L221.002 873.541" stroke="#82ADB7" stroke-width="1.5"/>
<path d="M2061.78 701.774L2042.92 812.099" stroke="#82ADB7" stroke-width="1.5"/>
<path d="M2061.78 701.774L1871.71 721.34" stroke="#82ADB7" stroke-width="1.5"/>
<path d="M2061.78 701.774L1719.55 652.676" stroke="#82ADB7" stroke-width="1.5"/>
<path d="M2042.92 812.099L1871.71 721.34" stroke="#82ADB7" stroke-width="1.5"/>
<path d="M2042.92 812.099L1699.48 870.424" stroke="#82ADB7" stroke-width="1.5"/>
<path d="M2042.92 812.099L1719.55 652.676" stroke="#82ADB7" stroke-width="1.5"/>
<path d="M2042.92 812.099L1542.33 848.227" stroke="#82ADB7" stroke-width="1.5"/>
<path d="M1871.71 721.34L1719.55 652.676" stroke="#82ADB7" stroke-width="1.5"/>
<path d="M1871.71 721.34L1699.48 870.424" stroke="#82ADB7" stroke-width="1.5"/>
<path d="M1719.55 652.676L1508.46 706.059" stroke="#82ADB7" stroke-width="1.5"/>
<path d="M1719.55 652.676L1699.48 870.424" stroke="#82ADB7" stroke-width="1.5"/>
<path d="M1719.55 652.676L1542.33 848.227" stroke="#82ADB7" stroke-width="1.5"/>
<path d="M1699.48 870.424L1508.46 706.059" stroke="#82ADB7" stroke-width="1.5"/>
<path d="M1508.46 706.059L1308.56 672.39" stroke="#82ADB7" stroke-width="1.5"/>
<path d="M1508.46 706.059L1284.82 883.291" stroke="#82ADB7" stroke-width="1.5"/>
<path d="M1308.56 672.39L1119.76 641.555" stroke="#82ADB7" stroke-width="1.5"/>
<path d="M1308.56 672.39L1284.82 883.291" stroke="#82ADB7" stroke-width="1.5"/>
<path d="M1308.56 672.39L1095.93 517.57" stroke="#82ADB7" stroke-width="1.5"/>
<path d="M1284.82 883.291L1119.58 895.171" stroke="#82ADB7" stroke-width="1.5"/>
<path d="M1095.93 517.57L994.855 483.539" stroke="#82ADB7" stroke-width="1.5"/>
<path d="M1095.93 517.57L1119.76 641.555" stroke="#82ADB7" stroke-width="1.5"/>
<path d="M1119.58 895.171L967.193 877.146" stroke="#82ADB7" stroke-width="1.5"/>
<path d="M1119.58 895.171L1119.76 641.555" stroke="#82ADB7" stroke-width="1.5"/>
<path d="M1119.58 895.171L921.41 698.033" stroke="#82ADB7" stroke-width="1.5"/>
<path d="M921.407 698.033L787.393 684.599" stroke="#82ADB7" stroke-width="1.5"/>
<path d="M921.409 698.033L967.191 877.146" stroke="#82ADB7" stroke-width="1.5"/>
<path d="M967.191 877.146L737.299 829.216" stroke="#82ADB7" stroke-width="1.5"/>
<path d="M967.191 877.146L787.394 684.599" stroke="#82ADB7" stroke-width="1.5"/>
<path d="M767.921 493.435L787.394 684.599" stroke="#82ADB7" stroke-width="1.5"/>
<path d="M767.921 493.435L994.854 483.539" stroke="#82ADB7" stroke-width="1.5"/>
<path d="M767.92 493.435L635.536 312.576" stroke="#82ADB7" stroke-width="1.5"/>
<path d="M787.394 684.599L737.298 829.216" stroke="#82ADB7" stroke-width="1.5"/>
<path d="M737.299 829.216L633.254 876.341" stroke="#82ADB7" stroke-width="1.5"/>
<path d="M569.786 174.262L635.537 312.576" stroke="#82ADB7" stroke-width="1.5"/>
<path d="M569.786 174.262L419.137 344.057" stroke="#82ADB7" stroke-width="1.5"/>
<path d="M569.786 174.261L375.541 5.66797" stroke="#82ADB7" stroke-width="1.5"/>
<path d="M569.786 174.262L247.397 195.755" stroke="#82ADB7" stroke-width="1.5"/>
<path d="M569.786 174.262L265.094 17.3445" stroke="#82ADB7" stroke-width="1.5"/>
<path d="M569.786 174.262L223.044 315.909" stroke="#82ADB7" stroke-width="1.5"/>
<path d="M635.537 312.576L419.138 344.057" stroke="#82ADB7" stroke-width="1.5"/>
<path d="M635.537 312.576L403.627 518.262" stroke="#82ADB7" stroke-width="1.5"/>
<path d="M375.54 5.66821L265.094 17.3446" stroke="#82ADB7" stroke-width="1.5"/>
<path d="M375.54 5.66821L247.396 195.755" stroke="#82ADB7" stroke-width="1.5"/>
<path d="M375.54 5.66821L77.6253 20.8135" stroke="#82ADB7" stroke-width="1.5"/>
<path d="M375.54 5.66821L419.137 344.057" stroke="#82ADB7" stroke-width="1.5"/>
<path d="M419.137 344.057L403.626 518.262" stroke="#82ADB7" stroke-width="1.5"/>
<path d="M419.137 344.057L223.043 315.909" stroke="#82ADB7" stroke-width="1.5"/>
<path d="M419.137 344.057L255.249 480.716" stroke="#82ADB7" stroke-width="1.5"/>
<path d="M419.137 344.057L247.397 195.755" stroke="#82ADB7" stroke-width="1.5"/>
<path d="M403.627 518.262L255.249 480.716" stroke="#82ADB7" stroke-width="1.5"/>
<path d="M403.627 518.262L396.391 668.468" stroke="#82ADB7" stroke-width="1.5"/>
<path d="M403.627 518.262L251.577 654.229" stroke="#82ADB7" stroke-width="1.5"/>
<path d="M403.628 518.262L559.145 723.539" stroke="#82ADB7" stroke-width="1.5"/>
<path d="M403.627 518.262L223.044 315.909" stroke="#82ADB7" stroke-width="1.5"/>
<path d="M396.391 668.468L251.577 654.229" stroke="#82ADB7" stroke-width="1.5"/>
<path d="M396.39 668.468L425.406 884.957" stroke="#82ADB7" stroke-width="1.5"/>
<path d="M396.391 668.468L255.249 480.716" stroke="#82ADB7" stroke-width="1.5"/>
<path d="M396.391 668.468L221.002 873.541" stroke="#82ADB7" stroke-width="1.5"/>
<path d="M425.407 884.957L633.254 876.342" stroke="#82ADB7" stroke-width="1.5"/>
<path d="M265.094 17.3445L77.6254 20.8134" stroke="#82ADB7" stroke-width="1.5"/>
<path d="M265.094 17.3445L247.397 195.755" stroke="#82ADB7" stroke-width="1.5"/>
<path d="M265.094 17.3445L58.9378 196.209" stroke="#82ADB7" stroke-width="1.5"/>
<path d="M265.094 17.3445L223.043 315.909" stroke="#82ADB7" stroke-width="1.5"/>
<path d="M247.396 195.755L223.043 315.909" stroke="#82ADB7" stroke-width="1.5"/>
<path d="M247.396 195.755L58.9379 196.209" stroke="#82ADB7" stroke-width="1.5"/>
<path d="M223.045 315.909L255.25 480.716" stroke="#82ADB7" stroke-width="1.5"/>
<path d="M223.043 315.909L58.9373 196.209" stroke="#82ADB7" stroke-width="1.5"/>
<path d="M255.25 480.716L251.578 654.229" stroke="#82ADB7" stroke-width="1.5"/>
<path d="M255.25 480.716L52.7303 498.332" stroke="#82ADB7" stroke-width="1.5"/>
<path d="M251.576 654.229L221.002 873.541" stroke="#82ADB7" stroke-width="1.5"/>
<path d="M251.576 654.229L52.7287 498.333" stroke="#82ADB7" stroke-width="1.5"/>
<path d="M77.625 20.8135L58.9374 196.209" stroke="#82ADB7" stroke-width="1.5"/>
<path d="M77.6254 20.8135L247.396 195.755" stroke="#82ADB7" stroke-width="1.5"/>
<path d="M77.6249 20.8135L223.043 315.909" stroke="#82ADB7" stroke-width="1.5"/>
<path d="M77.625 20.8135L72.7086 370.833" stroke="#82ADB7" stroke-width="1.5"/>
<path d="M52.7282 498.332L223.043 315.909" stroke="#82ADB7" stroke-width="1.5"/>
<path d="M52.7286 498.333L58.9375 196.209" stroke="#82ADB7" stroke-width="1.5"/>
<path d="M42.328 860.437L251.576 654.229" stroke="#82ADB7" stroke-width="1.5"/>
<path d="M42.328 860.437L425.406 884.957" stroke="#82ADB7" stroke-width="1.5"/>
<path d="M42.3277 860.437L52.7285 498.333" stroke="#82ADB7" stroke-width="1.5"/>
<path d="M42.3284 860.437L396.391 668.468" stroke="#82ADB7" stroke-width="1.5"/>
<path d="M1542.33 876.568C1525.65 876.568 1512.13 863.88 1512.13 848.227C1512.13 832.575 1525.65 819.887 1542.33 819.887C1559.01 819.887 1572.53 832.575 1572.53 848.227C1572.53 863.88 1559.01 876.568 1542.33 876.568Z" fill="url(#paint0_radial_405_9949)" fill-opacity="0.7"/>
<path d="M559.143 751.88C542.464 751.88 528.943 739.192 528.943 723.539C528.943 707.887 542.464 695.199 559.143 695.199C575.822 695.199 589.343 707.887 589.343 723.539C589.343 739.192 575.822 751.88 559.143 751.88Z" fill="url(#paint1_radial_405_9949)" fill-opacity="0.7"/>
<path d="M221.001 901.882C204.322 901.882 190.801 889.194 190.801 873.541C190.801 857.889 204.322 845.201 221.001 845.201C237.68 845.201 251.201 857.889 251.201 873.541C251.201 889.194 237.68 901.882 221.001 901.882Z" fill="url(#paint2_radial_405_9949)" fill-opacity="0.7"/>
<path d="M72.7085 399.174C56.0296 399.174 42.5087 386.485 42.5087 370.833C42.5087 355.181 56.0296 342.492 72.7085 342.492C89.3873 342.492 102.908 355.181 102.908 370.833C102.908 386.485 89.3873 399.174 72.7085 399.174Z" fill="url(#paint3_radial_405_9949)" fill-opacity="0.7"/>
<path d="M78.229 696.162C61.5501 696.162 48.0292 683.474 48.0292 667.821C48.0292 652.169 61.5501 639.481 78.229 639.481C94.9078 639.481 108.429 652.169 108.429 667.821C108.429 683.474 94.9078 696.162 78.229 696.162Z" fill="url(#paint4_radial_405_9949)" fill-opacity="0.7"/>
<path d="M2061.78 707.442C2058.44 707.442 2055.74 704.904 2055.74 701.774C2055.74 698.643 2058.44 696.105 2061.78 696.105C2065.11 696.105 2067.82 698.643 2067.82 701.774C2067.82 704.904 2065.11 707.442 2061.78 707.442Z" fill="#82ADB7"/>
<path d="M2042.92 817.767C2039.58 817.767 2036.88 815.229 2036.88 812.099C2036.88 808.968 2039.58 806.43 2042.92 806.43C2046.26 806.43 2048.96 808.968 2048.96 812.099C2048.96 815.229 2046.26 817.767 2042.92 817.767Z" fill="#82ADB7"/>
<path d="M1871.71 727.008C1868.38 727.008 1865.67 724.471 1865.67 721.34C1865.67 718.21 1868.38 715.672 1871.71 715.672C1875.05 715.672 1877.75 718.21 1877.75 721.34C1877.75 724.471 1875.05 727.008 1871.71 727.008Z" fill="#82ADB7"/>
<path d="M1719.55 658.344C1716.22 658.344 1713.51 655.807 1713.51 652.676C1713.51 649.546 1716.22 647.008 1719.55 647.008C1722.89 647.008 1725.59 649.546 1725.59 652.676C1725.59 655.807 1722.89 658.344 1719.55 658.344Z" fill="#82ADB7"/>
<path d="M1699.47 876.092C1696.14 876.092 1693.43 873.554 1693.43 870.424C1693.43 867.294 1696.14 864.756 1699.47 864.756C1702.81 864.756 1705.51 867.294 1705.51 870.424C1705.51 873.554 1702.81 876.092 1699.47 876.092Z" fill="#82ADB7"/>
<path d="M1508.46 711.727C1505.12 711.727 1502.42 709.189 1502.42 706.059C1502.42 702.928 1505.12 700.391 1508.46 700.391C1511.79 700.391 1514.5 702.928 1514.5 706.059C1514.5 709.189 1511.79 711.727 1508.46 711.727Z" fill="#82ADB7"/>
<path d="M1308.56 678.058C1305.22 678.058 1302.52 675.52 1302.52 672.39C1302.52 669.259 1305.22 666.722 1308.56 666.722C1311.89 666.722 1314.6 669.259 1314.6 672.39C1314.6 675.52 1311.89 678.058 1308.56 678.058Z" fill="#82ADB7"/>
<path d="M1284.82 888.959C1281.48 888.959 1278.78 886.421 1278.78 883.291C1278.78 880.16 1281.48 877.623 1284.82 877.623C1288.16 877.623 1290.86 880.16 1290.86 883.291C1290.86 886.421 1288.16 888.959 1284.82 888.959Z" fill="#82ADB7"/>
<path d="M1095.93 523.238C1092.59 523.238 1089.89 520.7 1089.89 517.57C1089.89 514.44 1092.59 511.902 1095.93 511.902C1099.26 511.902 1101.97 514.44 1101.97 517.57C1101.97 520.7 1099.26 523.238 1095.93 523.238Z" fill="#82ADB7"/>
<path d="M1119.76 647.224C1116.43 647.224 1113.72 644.686 1113.72 641.555C1113.72 638.425 1116.43 635.887 1119.76 635.887C1123.1 635.887 1125.8 638.425 1125.8 641.555C1125.8 644.686 1123.1 647.224 1119.76 647.224Z" fill="#82ADB7"/>
<path d="M1119.58 900.839C1116.24 900.839 1113.54 898.302 1113.54 895.171C1113.54 892.041 1116.24 889.503 1119.58 889.503C1122.92 889.503 1125.62 892.041 1125.62 895.171C1125.62 898.302 1122.92 900.839 1119.58 900.839Z" fill="#82ADB7"/>
<path d="M994.854 489.207C991.518 489.207 988.814 486.669 988.814 483.539C988.814 480.408 991.518 477.87 994.854 477.87C998.189 477.87 1000.89 480.408 1000.89 483.539C1000.89 486.669 998.189 489.207 994.854 489.207Z" fill="#82ADB7"/>
<path d="M921.407 703.701C918.072 703.701 915.367 701.163 915.367 698.033C915.367 694.902 918.072 692.365 921.407 692.365C924.743 692.365 927.447 694.902 927.447 698.033C927.447 701.163 924.743 703.701 921.407 703.701Z" fill="#82ADB7"/>
<path d="M967.19 882.815C963.855 882.815 961.15 880.277 961.15 877.146C961.15 874.016 963.855 871.478 967.19 871.478C970.526 871.478 973.23 874.016 973.23 877.146C973.23 880.277 970.526 882.815 967.19 882.815Z" fill="#82ADB7"/>
<path d="M767.921 499.103C764.585 499.103 761.881 496.566 761.881 493.435C761.881 490.305 764.585 487.767 767.921 487.767C771.257 487.767 773.961 490.305 773.961 493.435C773.961 496.566 771.257 499.103 767.921 499.103Z" fill="#82ADB7"/>
<path d="M787.393 690.267C784.057 690.267 781.353 687.73 781.353 684.599C781.353 681.469 784.057 678.931 787.393 678.931C790.728 678.931 793.433 681.469 793.433 684.599C793.433 687.73 790.728 690.267 787.393 690.267Z" fill="#82ADB7"/>
<path d="M737.298 834.885C733.962 834.885 731.258 832.347 731.258 829.216C731.258 826.086 733.962 823.548 737.298 823.548C740.634 823.548 743.338 826.086 743.338 829.216C743.338 832.347 740.634 834.885 737.298 834.885Z" fill="#82ADB7"/>
<path d="M569.787 179.93C566.451 179.93 563.747 177.392 563.747 174.262C563.747 171.131 566.451 168.594 569.787 168.594C573.123 168.594 575.827 171.131 575.827 174.262C575.827 177.392 573.123 179.93 569.787 179.93Z" fill="#82ADB7"/>
<path d="M635.536 318.244C632.2 318.244 629.496 315.706 629.496 312.576C629.496 309.445 632.2 306.908 635.536 306.908C638.872 306.908 641.576 309.445 641.576 312.576C641.576 315.706 638.872 318.244 635.536 318.244Z" fill="#82ADB7"/>
<path d="M633.253 882.01C629.917 882.01 627.213 879.472 627.213 876.341C627.213 873.211 629.917 870.673 633.253 870.673C636.589 870.673 639.293 873.211 639.293 876.341C639.293 879.472 636.589 882.01 633.253 882.01Z" fill="#82ADB7"/>
<path d="M375.541 11.3363C372.205 11.3363 369.501 8.79858 369.501 5.66815C369.501 2.53772 372.205 0 375.541 0C378.877 0 381.581 2.53772 381.581 5.66815C381.581 8.79858 378.877 11.3363 375.541 11.3363Z" fill="#82ADB7"/>
<path d="M419.137 349.725C415.801 349.725 413.097 347.187 413.097 344.057C413.097 340.926 415.801 338.389 419.137 338.389C422.473 338.389 425.177 340.926 425.177 344.057C425.177 347.187 422.473 349.725 419.137 349.725Z" fill="#82ADB7"/>
<path d="M403.626 523.93C400.29 523.93 397.586 521.392 397.586 518.262C397.586 515.131 400.29 512.594 403.626 512.594C406.962 512.594 409.666 515.131 409.666 518.262C409.666 521.392 406.962 523.93 403.626 523.93Z" fill="#82ADB7"/>
<path d="M396.39 674.136C393.054 674.136 390.35 671.598 390.35 668.468C390.35 665.337 393.054 662.8 396.39 662.8C399.726 662.8 402.43 665.337 402.43 668.468C402.43 671.598 399.726 674.136 396.39 674.136Z" fill="#82ADB7"/>
<path d="M425.406 890.625C422.07 890.625 419.366 888.087 419.366 884.957C419.366 881.827 422.07 879.289 425.406 879.289C428.742 879.289 431.446 881.827 431.446 884.957C431.446 888.087 428.742 890.625 425.406 890.625Z" fill="#82ADB7"/>
<path d="M265.095 23.0126C261.759 23.0126 259.055 20.4749 259.055 17.3444C259.055 14.214 261.759 11.6763 265.095 11.6763C268.431 11.6763 271.135 14.214 271.135 17.3444C271.135 20.4749 268.431 23.0126 265.095 23.0126Z" fill="#82ADB7"/>
<path d="M247.397 201.423C244.061 201.423 241.357 198.886 241.357 195.755C241.357 192.625 244.061 190.087 247.397 190.087C250.732 190.087 253.437 192.625 253.437 195.755C253.437 198.886 250.732 201.423 247.397 201.423Z" fill="#82ADB7"/>
<path d="M223.044 321.577C219.708 321.577 217.004 319.039 217.004 315.909C217.004 312.778 219.708 310.24 223.044 310.24C226.38 310.24 229.084 312.778 229.084 315.909C229.084 319.039 226.38 321.577 223.044 321.577Z" fill="#82ADB7"/>
<path d="M255.249 486.384C251.913 486.384 249.209 483.846 249.209 480.716C249.209 477.586 251.913 475.048 255.249 475.048C258.585 475.048 261.289 477.586 261.289 480.716C261.289 483.846 258.585 486.384 255.249 486.384Z" fill="#82ADB7"/>
<path d="M251.577 659.897C248.241 659.897 245.537 657.36 245.537 654.229C245.537 651.099 248.241 648.561 251.577 648.561C254.913 648.561 257.617 651.099 257.617 654.229C257.617 657.36 254.913 659.897 251.577 659.897Z" fill="#82ADB7"/>
<path d="M77.6261 26.4816C74.2904 26.4816 71.5862 23.9438 71.5862 20.8134C71.5862 17.683 74.2904 15.1453 77.6261 15.1453C80.9619 15.1453 83.666 17.683 83.666 20.8134C83.666 23.9438 80.9619 26.4816 77.6261 26.4816Z" fill="#82ADB7"/>
<path d="M58.9367 201.877C55.6009 201.877 52.8968 199.339 52.8968 196.209C52.8968 193.078 55.6009 190.541 58.9367 190.541C62.2724 190.541 64.9766 193.078 64.9766 196.209C64.9766 199.339 62.2724 201.877 58.9367 201.877Z" fill="#82ADB7"/>
<path d="M52.7276 504.001C49.3919 504.001 46.6877 501.463 46.6877 498.332C46.6877 495.202 49.3919 492.664 52.7276 492.664C56.0634 492.664 58.7676 495.202 58.7676 498.332C58.7676 501.463 56.0634 504.001 52.7276 504.001Z" fill="#82ADB7"/>
<path d="M42.3272 866.105C38.9914 866.105 36.2872 863.567 36.2872 860.437C36.2872 857.306 38.9914 854.769 42.3272 854.769C45.663 854.769 48.3672 857.306 48.3672 860.437C48.3672 863.567 45.663 866.105 42.3272 866.105Z" fill="#82ADB7"/>
</g>
<defs>
<radialGradient id="paint0_radial_405_9949" cx="0" cy="0" r="1" gradientUnits="userSpaceOnUse" gradientTransform="translate(1542.33 848.227) rotate(180) scale(30.1998 28.3408)">
<stop offset="0.1" stop-color="white"/>
<stop offset="0.2" stop-color="white"/>
<stop offset="1" stop-color="white" stop-opacity="0"/>
</radialGradient>
<radialGradient id="paint1_radial_405_9949" cx="0" cy="0" r="1" gradientUnits="userSpaceOnUse" gradientTransform="translate(559.143 723.539) rotate(180) scale(30.1998 28.3408)">
<stop offset="0.1" stop-color="white"/>
<stop offset="0.2" stop-color="white"/>
<stop offset="1" stop-color="white" stop-opacity="0"/>
</radialGradient>
<radialGradient id="paint2_radial_405_9949" cx="0" cy="0" r="1" gradientUnits="userSpaceOnUse" gradientTransform="translate(221.001 873.541) rotate(180) scale(30.1999 28.3408)">
<stop offset="0.1" stop-color="white"/>
<stop offset="0.2" stop-color="white"/>
<stop offset="1" stop-color="white" stop-opacity="0"/>
</radialGradient>
<radialGradient id="paint3_radial_405_9949" cx="0" cy="0" r="1" gradientUnits="userSpaceOnUse" gradientTransform="translate(72.7085 370.833) rotate(180) scale(30.1998 28.3408)">
<stop offset="0.1" stop-color="white"/>
<stop offset="0.2" stop-color="white"/>
<stop offset="1" stop-color="white" stop-opacity="0"/>
</radialGradient>
<radialGradient id="paint4_radial_405_9949" cx="0" cy="0" r="1" gradientUnits="userSpaceOnUse" gradientTransform="translate(78.229 667.821) rotate(180) scale(30.1998 28.3408)">
<stop offset="0.1" stop-color="white"/>
<stop offset="0.2" stop-color="white"/>
<stop offset="1" stop-color="white" stop-opacity="0"/>
</radialGradient>
</defs>
</svg>
