<svg xmlns="http://www.w3.org/2000/svg" xmlns:xlink="http://www.w3.org/1999/xlink" viewBox="0 0 2797.24 2553.4"><defs><style>.cls-1{isolation:isolate;}.cls-2{opacity:0.55;}.cls-3{fill:#edebed;}.cls-4{fill:#dbd9dc;}.cls-5{fill:#c9c6ca;}.cls-6{fill:#ffaa5f;}.cls-7{fill:#ff8087;}.cls-8{fill:#ff8c5a;}.cls-9{fill:url(#linear-gradient);}.cls-10{fill:url(#linear-gradient-2);}.cls-11{fill:url(#linear-gradient-3);}.cls-12{fill:#dbdbdb;}.cls-13{fill:#fff;}.cls-14{fill:url(#linear-gradient-4);}.cls-15{fill:url(#linear-gradient-5);}.cls-16{fill:url(#linear-gradient-6);}.cls-17{fill:url(#linear-gradient-7);}.cls-122,.cls-124,.cls-18{opacity:0.2;}.cls-19{fill:url(#linear-gradient-8);}.cls-20{fill:url(#linear-gradient-9);}.cls-21,.cls-34{opacity:0.1;}.cls-22{fill:url(#linear-gradient-10);}.cls-23{fill:url(#linear-gradient-11);}.cls-24{fill:url(#linear-gradient-12);}.cls-25{fill:url(#linear-gradient-13);}.cls-26{fill:url(#linear-gradient-14);}.cls-27{fill:url(#linear-gradient-15);}.cls-28{fill:url(#linear-gradient-16);}.cls-29{fill:#0c0c21;}.cls-30{fill:url(#linear-gradient-17);}.cls-31{fill:url(#linear-gradient-18);}.cls-32{fill:url(#linear-gradient-19);}.cls-33{fill:#f0f0f0;}.cls-102,.cls-104,.cls-110,.cls-120,.cls-122,.cls-124,.cls-130,.cls-146,.cls-147,.cls-153,.cls-156,.cls-159,.cls-161,.cls-166,.cls-33{mix-blend-mode:multiply;}.cls-35,.cls-36,.cls-37,.cls-38,.cls-39,.cls-40,.cls-41,.cls-42,.cls-43,.cls-44,.cls-45,.cls-46,.cls-47,.cls-48,.cls-49,.cls-50,.cls-51,.cls-52,.cls-53,.cls-54,.cls-55,.cls-56,.cls-57,.cls-58,.cls-59,.cls-60,.cls-61,.cls-62,.cls-63,.cls-64,.cls-65,.cls-66,.cls-67,.cls-68,.cls-69,.cls-70,.cls-71,.cls-72,.cls-73,.cls-74,.cls-75,.cls-76,.cls-77,.cls-78,.cls-79,.cls-80,.cls-81,.cls-82,.cls-83,.cls-84,.cls-85{fill:#060606;}.cls-35{opacity:0;}.cls-36{opacity:0.02;}.cls-37{opacity:0.04;}.cls-38{opacity:0.06;}.cls-39{opacity:0.08;}.cls-40{opacity:0.1;}.cls-41{opacity:0.12;}.cls-42{opacity:0.14;}.cls-43{opacity:0.16;}.cls-44{opacity:0.18;}.cls-45{opacity:0.2;}.cls-46{opacity:0.22;}.cls-47{opacity:0.24;}.cls-48{opacity:0.26;}.cls-49{opacity:0.28;}.cls-50{opacity:0.3;}.cls-51{opacity:0.32;}.cls-52{opacity:0.34;}.cls-53{opacity:0.36;}.cls-54{opacity:0.38;}.cls-55{opacity:0.4;}.cls-56{opacity:0.42;}.cls-57{opacity:0.44;}.cls-58{opacity:0.46;}.cls-59{opacity:0.48;}.cls-60{opacity:0.5;}.cls-61{opacity:0.52;}.cls-62{opacity:0.54;}.cls-63{opacity:0.56;}.cls-64{opacity:0.58;}.cls-65{opacity:0.6;}.cls-66{opacity:0.62;}.cls-67{opacity:0.64;}.cls-68{opacity:0.66;}.cls-69{opacity:0.68;}.cls-70{opacity:0.7;}.cls-71{opacity:0.72;}.cls-72{opacity:0.74;}.cls-73{opacity:0.76;}.cls-74{opacity:0.78;}.cls-75{opacity:0.8;}.cls-76{opacity:0.82;}.cls-77{opacity:0.84;}.cls-78{opacity:0.86;}.cls-79{opacity:0.88;}.cls-80{opacity:0.9;}.cls-81{opacity:0.92;}.cls-82{opacity:0.94;}.cls-83{opacity:0.96;}.cls-84{opacity:0.98;}.cls-86{fill:#fcfcfc;}.cls-87{fill:#9bebf2;}.cls-88{fill:url(#linear-gradient-20);}.cls-89{fill:url(#linear-gradient-21);}.cls-90{fill:#0a1f40;}.cls-91{fill:url(#linear-gradient-22);}.cls-92{fill:#091326;}.cls-93{fill:url(#linear-gradient-23);}.cls-94{fill:#46c9d4;}.cls-95{fill:url(#linear-gradient-24);}.cls-96{fill:url(#linear-gradient-25);}.cls-97{fill:url(#linear-gradient-26);}.cls-98{fill:url(#linear-gradient-27);}.cls-99{fill:url(#linear-gradient-28);}.cls-100{fill:url(#linear-gradient-29);}.cls-101,.cls-102{fill:#301704;}.cls-102,.cls-166{opacity:0.3;}.cls-103{fill:#ffba98;}.cls-104{fill:#cfe2ff;}.cls-104,.cls-110{opacity:0.4;}.cls-105{fill:url(#linear-gradient-30);}.cls-106{fill:url(#linear-gradient-31);}.cls-107{fill:#07827e;}.cls-108{fill:url(#linear-gradient-32);}.cls-109{fill:#279692;}.cls-110{fill:url(#linear-gradient-33);}.cls-111{fill:url(#linear-gradient-34);}.cls-112{fill:#cdcde6;}.cls-113{fill:#faf3e1;}.cls-114{fill:#f9f9f9;}.cls-115{fill:#e6e6e6;}.cls-116{fill:url(#linear-gradient-35);}.cls-117{fill:url(#linear-gradient-36);}.cls-118{fill:url(#linear-gradient-37);}.cls-119{fill:url(#linear-gradient-38);}.cls-120{fill:#ff585a;}.cls-120,.cls-146,.cls-147{opacity:0.44;}.cls-121,.cls-130{opacity:0.22;}.cls-121{mix-blend-mode:screen;}.cls-122{fill:url(#linear-gradient-39);}.cls-123{fill:url(#linear-gradient-40);}.cls-124{fill:url(#linear-gradient-41);}.cls-125{fill:#7be8f2;}.cls-126{fill:url(#linear-gradient-42);}.cls-127{fill:#0a0c24;}.cls-128{fill:#1e1f45;}.cls-129{fill:url(#linear-gradient-43);}.cls-130{fill:#1a1a4f;}.cls-131{fill:url(#linear-gradient-44);}.cls-132{fill:url(#linear-gradient-45);}.cls-133{fill:url(#linear-gradient-46);}.cls-134{fill:url(#linear-gradient-47);}.cls-135{opacity:0.05;}.cls-136{fill:url(#linear-gradient-48);}.cls-137{fill:#d1e3ff;}.cls-138{fill:#bfd8ff;}.cls-139{fill:#ebf3ff;}.cls-140{fill:#e0edff;}.cls-141{fill:url(#linear-gradient-49);}.cls-142{fill:url(#linear-gradient-50);}.cls-143{fill:url(#linear-gradient-51);}.cls-144{fill:url(#linear-gradient-52);}.cls-145{fill:#421f05;}.cls-148{fill:url(#linear-gradient-53);}.cls-149{fill:url(#linear-gradient-54);}.cls-150{fill:url(#linear-gradient-55);}.cls-151{fill:url(#linear-gradient-56);}.cls-152{fill:url(#linear-gradient-57);}.cls-153,.cls-156{opacity:0.33;}.cls-153{fill:url(#linear-gradient-58);}.cls-154{fill:url(#linear-gradient-59);}.cls-155{fill:url(#linear-gradient-60);}.cls-156{fill:url(#linear-gradient-61);}.cls-157{fill:url(#linear-gradient-62);}.cls-158{fill:url(#linear-gradient-63);}.cls-159,.cls-161{opacity:0.25;}.cls-159{fill:url(#linear-gradient-64);}.cls-160{fill:url(#linear-gradient-65);}.cls-161{fill:url(#linear-gradient-66);}.cls-162{fill:url(#linear-gradient-67);}.cls-163{fill:url(#linear-gradient-68);}.cls-164{fill:url(#linear-gradient-69);}.cls-165{fill:url(#linear-gradient-70);}.cls-167{fill:#361a05;}</style><linearGradient id="linear-gradient" x1="-2244.01" y1="2344.86" x2="-2244.01" y2="2441.07" gradientTransform="matrix(-1, 0, 0, 1, -2066.27, 0)" gradientUnits="userSpaceOnUse"><stop offset="0" stop-color="#ffb691"/><stop offset="1" stop-color="#f5bfa4"/></linearGradient><linearGradient id="linear-gradient-2" x1="-8657.84" y1="4600.81" x2="-8657.84" y2="4686.62" gradientTransform="matrix(-0.95, 0.33, 0.33, 0.95, -9522.4, 849.69)" gradientUnits="userSpaceOnUse"><stop offset="0" stop-color="#11112e"/><stop offset="1" stop-color="#0f1642"/></linearGradient><linearGradient id="linear-gradient-3" x1="-2223.12" y1="2366.46" x2="-2267.04" y2="2424.69" gradientTransform="matrix(-1, 0, 0, 1, -2066.27, 0)" xlink:href="#linear-gradient-2"/><linearGradient id="linear-gradient-4" x1="-2502.41" y1="2346.64" x2="-2502.41" y2="2441.01" xlink:href="#linear-gradient"/><linearGradient id="linear-gradient-5" x1="-8902.55" y1="4685.26" x2="-8902.55" y2="4771.06" xlink:href="#linear-gradient-2"/><linearGradient id="linear-gradient-6" x1="-2481.99" y1="2366.46" x2="-2525.91" y2="2424.69" gradientTransform="matrix(-1, 0, 0, 1, -2066.27, 0)" xlink:href="#linear-gradient-2"/><linearGradient id="linear-gradient-7" x1="-2443.71" y1="2356.34" x2="-2364.88" y2="1510.65" gradientTransform="matrix(-1, 0, 0, 1, -2066.27, 0)" gradientUnits="userSpaceOnUse"><stop offset="0" stop-color="#29297d"/><stop offset="1" stop-color="#1d255e"/></linearGradient><linearGradient id="linear-gradient-8" x1="-2203.3" y1="2337.96" x2="-2280.36" y2="1506.09" xlink:href="#linear-gradient-7"/><linearGradient id="linear-gradient-9" x1="-2560.69" y1="1666.73" x2="-2455.13" y2="1309.45" gradientTransform="matrix(-1, 0, 0, 1, -2066.27, 0)" gradientUnits="userSpaceOnUse"><stop offset="0" stop-color="#ffbe9e"/><stop offset="0.99" stop-color="#ffa77a"/></linearGradient><linearGradient id="linear-gradient-10" x1="-2870.32" y1="1958.01" x2="-2764.98" y2="1601.48" gradientTransform="matrix(-1, 0.09, 0.09, 1, -2528.3, -24.15)" xlink:href="#linear-gradient-9"/><linearGradient id="linear-gradient-11" x1="407.86" y1="1604.68" x2="407.86" y2="1069.22" gradientUnits="userSpaceOnUse"><stop offset="0" stop-color="#ffc321"/><stop offset="0.99" stop-color="#fbca5d"/></linearGradient><linearGradient id="linear-gradient-12" x1="211.16" y1="1033.07" x2="376.16" y2="1056.07" gradientUnits="userSpaceOnUse"><stop offset="0" stop-color="#06060f"/><stop offset="1" stop-color="#151e59"/></linearGradient><linearGradient id="linear-gradient-13" x1="-2343.41" y1="1559.08" x2="-2343.41" y2="1057.1" gradientTransform="matrix(-1, 0, 0, 1, -2066.27, 0)" xlink:href="#linear-gradient-11"/><linearGradient id="linear-gradient-14" x1="271.62" y1="1099.54" x2="276.9" y2="1067.82" gradientUnits="userSpaceOnUse"><stop offset="0" stop-color="#ffbe9e"/><stop offset="1" stop-color="#ffa77a"/></linearGradient><linearGradient id="linear-gradient-15" x1="-4487.74" y1="887.77" x2="-4487.74" y2="1089.59" gradientTransform="matrix(-1, -0.04, -0.04, 1, -4148.61, -208.62)" gradientUnits="userSpaceOnUse"><stop offset="0" stop-color="#ffa77a"/><stop offset="1" stop-color="#ffbe9e"/></linearGradient><linearGradient id="linear-gradient-16" x1="99.93" y1="909.07" x2="-32.53" y2="1130.84" gradientTransform="translate(229.11 -30.03) rotate(2.33)" gradientUnits="userSpaceOnUse"><stop offset="0" stop-color="#131333"/><stop offset="1" stop-color="#172266"/></linearGradient><linearGradient id="linear-gradient-17" x1="-2649.77" y1="1023.45" x2="-2601.59" y2="683.1" gradientTransform="matrix(-1, -0.06, -0.06, 1, -2424.79, 487.42)" xlink:href="#linear-gradient-9"/><linearGradient id="linear-gradient-18" x1="-1386.89" y1="663.89" x2="-1336.41" y2="307.34" gradientTransform="matrix(-0.93, -0.36, -0.36, 0.93, -937.31, 550.79)" xlink:href="#linear-gradient-9"/><linearGradient id="linear-gradient-19" x1="155.86" y1="1597" x2="155.86" y2="1076.71" xlink:href="#linear-gradient-11"/><linearGradient id="linear-gradient-20" x1="1026.87" y1="406.64" x2="1026.87" y2="1786.71" gradientUnits="userSpaceOnUse"><stop offset="0" stop-color="#0f2143"/><stop offset="1" stop-color="#001338"/></linearGradient><linearGradient id="linear-gradient-21" x1="1026.87" y1="406.64" x2="1026.87" y2="1786.71" xlink:href="#linear-gradient-20"/><linearGradient id="linear-gradient-22" x1="1514.88" y1="406.64" x2="1514.88" y2="1786.72" xlink:href="#linear-gradient-20"/><linearGradient id="linear-gradient-23" x1="1072.06" y1="597.4" x2="1021.25" y2="522.68" gradientTransform="translate(459.4 -203.24)" gradientUnits="userSpaceOnUse"><stop offset="0" stop-color="#0e1a30"/><stop offset="0.23" stop-color="#111f39"/><stop offset="0.61" stop-color="#182d53"/><stop offset="0.99" stop-color="#213e73"/></linearGradient><linearGradient id="linear-gradient-24" x1="1415.54" y1="369.52" x2="1391.05" y2="376.46" gradientTransform="translate(249.43 -510.22) rotate(22.5)" xlink:href="#linear-gradient-23"/><linearGradient id="linear-gradient-25" x1="1402.91" y1="944.09" x2="1402.91" y2="1060.33" gradientUnits="userSpaceOnUse"><stop offset="0" stop-color="#ffcd45"/><stop offset="0.99" stop-color="#fbbf3a"/></linearGradient><linearGradient id="linear-gradient-26" x1="1145.76" y1="1031.19" x2="1145.76" y2="1035.67" xlink:href="#linear-gradient-25"/><linearGradient id="linear-gradient-27" x1="1214.97" y1="938.12" x2="1214.97" y2="1063.04" xlink:href="#linear-gradient-25"/><linearGradient id="linear-gradient-28" x1="6053.12" y1="870.23" x2="6053.12" y2="979.41" gradientTransform="matrix(-1, 0, 0, 1, 7355.21, 0)" xlink:href="#linear-gradient-15"/><linearGradient id="linear-gradient-29" x1="2162.41" y1="889.57" x2="2162.41" y2="1032.45" gradientTransform="matrix(-1, -0.1, -0.1, 1, 3549.44, 103.74)" xlink:href="#linear-gradient-15"/><linearGradient id="linear-gradient-30" x1="1158.77" y1="971.78" x2="1277.09" y2="971.78" xlink:href="#linear-gradient-25"/><linearGradient id="linear-gradient-31" x1="1335.8" y1="972.97" x2="1448.23" y2="972.97" xlink:href="#linear-gradient-25"/><linearGradient id="linear-gradient-32" x1="564.87" y1="1829.2" x2="623.4" y2="2087.36" gradientUnits="userSpaceOnUse"><stop offset="0" stop-color="#7eede8"/><stop offset="1" stop-color="#25bab5"/></linearGradient><linearGradient id="linear-gradient-33" x1="567.2" y1="1962.32" x2="757.23" y2="1962.32" xlink:href="#linear-gradient-32"/><linearGradient id="linear-gradient-34" x1="1402.91" y1="1947.43" x2="1402.91" y2="2277.45" gradientUnits="userSpaceOnUse"><stop offset="0" stop-color="#e6a700"/><stop offset="0.99" stop-color="#fbbf3a"/></linearGradient><linearGradient id="linear-gradient-35" x1="1402.91" y1="2110.8" x2="1402.91" y2="2440.82" xlink:href="#linear-gradient-25"/><linearGradient id="linear-gradient-36" x1="1379.34" y1="2249.41" x2="1427.89" y2="2249.41" xlink:href="#linear-gradient-25"/><linearGradient id="linear-gradient-37" x1="1358.93" y1="2305.99" x2="1448.31" y2="2305.99" xlink:href="#linear-gradient-25"/><linearGradient id="linear-gradient-38" x1="1035.43" y1="197.19" x2="1393.75" y2="197.19" gradientUnits="userSpaceOnUse"><stop offset="0" stop-color="#ff5e61"/><stop offset="0.99" stop-color="#ff3d41"/></linearGradient><linearGradient id="linear-gradient-39" x1="1226.23" y1="759.56" x2="1577.03" y2="759.56" gradientTransform="matrix(-1, 0, 0, 1, 3983.91, 0)" gradientUnits="userSpaceOnUse"><stop offset="0.01" stop-color="#007cc2"/><stop offset="0.24" stop-color="#166cb3"/><stop offset="0.64" stop-color="#0f55be"/><stop offset="1" stop-color="#043e96"/></linearGradient><linearGradient id="linear-gradient-40" x1="1392.6" y1="662.54" x2="1464.5" y2="862.44" gradientTransform="matrix(-1, 0, 0, 1, 3983.91, 0)" gradientUnits="userSpaceOnUse"><stop offset="0" stop-color="#2e3a91"/><stop offset="1" stop-color="#1f1f82"/></linearGradient><linearGradient id="linear-gradient-41" x1="398.31" y1="595.07" x2="764.65" y2="595.07" gradientTransform="matrix(1, 0, 0, 1, 0, 0)" xlink:href="#linear-gradient-39"/><linearGradient id="linear-gradient-42" x1="-2361.04" y1="2308.88" x2="-2361.04" y2="2426.98" gradientTransform="matrix(-1, 0, 0, 1, -295.61, 0)" gradientUnits="userSpaceOnUse"><stop offset="0" stop-color="#ffb894"/><stop offset="1" stop-color="#ffbe9e"/></linearGradient><linearGradient id="linear-gradient-43" x1="2147.42" y1="2345.12" x2="2144.08" y2="1950.45" gradientUnits="userSpaceOnUse"><stop offset="0" stop-color="#2f3ea6"/><stop offset="1" stop-color="#262670"/></linearGradient><linearGradient id="linear-gradient-44" x1="-2588.1" y1="2320.2" x2="-2588.1" y2="2438.29" xlink:href="#linear-gradient-42"/><linearGradient id="linear-gradient-45" x1="2359.16" y1="2373.22" x2="2311.15" y2="1959.18" xlink:href="#linear-gradient-43"/><linearGradient id="linear-gradient-46" x1="1714.39" y1="1504.36" x2="1780.15" y2="1463.44" gradientTransform="matrix(1, 0, 0, 1, 0, 0)" xlink:href="#linear-gradient-15"/><linearGradient id="linear-gradient-47" x1="1882.31" y1="1791.23" x2="2027.31" y2="980.52" gradientUnits="userSpaceOnUse"><stop offset="0" stop-color="#fff"/><stop offset="1" stop-color="#ededed"/></linearGradient><linearGradient id="linear-gradient-48" x1="2138.14" y1="1916.11" x2="2300.24" y2="1009.82" xlink:href="#linear-gradient-47"/><linearGradient id="linear-gradient-49" x1="2174.81" y1="1249.66" x2="2220.6" y2="1023.62" xlink:href="#linear-gradient-38"/><linearGradient id="linear-gradient-50" x1="-2428.1" y1="963.59" x2="-2428.1" y2="1037.2" gradientTransform="matrix(-1, -0.03, -0.03, 1, -183.8, -14.89)" xlink:href="#linear-gradient-15"/><linearGradient id="linear-gradient-51" x1="2206.62" y1="1019.94" x2="2205.15" y2="802.63" xlink:href="#linear-gradient-14"/><linearGradient id="linear-gradient-52" x1="2164.8" y1="771.3" x2="2286.13" y2="941.3" gradientUnits="userSpaceOnUse"><stop offset="0" stop-color="#101042"/><stop offset="1" stop-color="#202863"/></linearGradient><linearGradient id="linear-gradient-53" x1="-2387.97" y1="2602.66" x2="-2244.98" y2="2602.66" gradientTransform="matrix(-0.57, 0.82, 0.82, 0.57, -1097.34, 2094.9)" xlink:href="#linear-gradient-15"/><linearGradient id="linear-gradient-54" x1="2264.59" y1="1930.3" x2="2425.15" y2="1032.62" xlink:href="#linear-gradient-47"/><linearGradient id="linear-gradient-55" x1="1015.53" y1="2292.33" x2="1015.53" y2="2412.98" gradientTransform="matrix(1, 0, 0, 1, 0, 0)" xlink:href="#linear-gradient-42"/><linearGradient id="linear-gradient-56" x1="827.16" y1="1934.38" x2="1046.32" y2="1934.38" gradientUnits="userSpaceOnUse"><stop offset="0" stop-color="#1d1d59"/><stop offset="1" stop-color="#181f4f"/></linearGradient><linearGradient id="linear-gradient-57" x1="965.19" y1="2325.19" x2="929.19" y2="1584.23" gradientUnits="userSpaceOnUse"><stop offset="0" stop-color="#1d1d4f"/><stop offset="1" stop-color="#182369"/></linearGradient><linearGradient id="linear-gradient-58" x1="857.25" y1="2026.99" x2="958.74" y2="2026.99" gradientTransform="matrix(1, 0, 0, 1, 0, 0)" xlink:href="#linear-gradient-2"/><linearGradient id="linear-gradient-59" x1="751.91" y1="2303.9" x2="751.91" y2="2424.54" gradientTransform="matrix(1, 0, 0, 1, 0, 0)" xlink:href="#linear-gradient-42"/><linearGradient id="linear-gradient-60" x1="693.3" y1="2303.3" x2="775.8" y2="1562.33" xlink:href="#linear-gradient-57"/><linearGradient id="linear-gradient-61" x1="665.35" y1="1926.9" x2="930.8" y2="1926.9" gradientTransform="matrix(1, 0, 0, 1, 0, 0)" xlink:href="#linear-gradient-2"/><linearGradient id="linear-gradient-62" x1="1283.1" y1="1066.86" x2="1429.18" y2="1066.86" gradientTransform="translate(-55.5 301.55) rotate(0.13)" xlink:href="#linear-gradient-15"/><linearGradient id="linear-gradient-63" x1="993.41" y1="1359.53" x2="1065.5" y2="1238.94" gradientUnits="userSpaceOnUse"><stop offset="0" stop-color="#3082ff"/><stop offset="1" stop-color="#458fff"/></linearGradient><linearGradient id="linear-gradient-64" x1="948.24" y1="1290.63" x2="995.27" y2="1211.98" gradientUnits="userSpaceOnUse"><stop offset="0" stop-color="#70a8ff"/><stop offset="1" stop-color="#3082ff"/></linearGradient><linearGradient id="linear-gradient-65" x1="837.36" y1="1591.74" x2="837.36" y2="1017" xlink:href="#linear-gradient-63"/><linearGradient id="linear-gradient-66" x1="660.77" y1="1321.18" x2="748.05" y2="1321.18" xlink:href="#linear-gradient-64"/><linearGradient id="linear-gradient-67" x1="-3131.51" y1="5936.53" x2="-2985.43" y2="5936.53" gradientTransform="translate(6573.46 4372.96) rotate(87.35)" xlink:href="#linear-gradient-15"/><linearGradient id="linear-gradient-68" x1="-2757.1" y1="3479.79" x2="-2884.1" y2="3072.79" gradientTransform="translate(4760.46 272.79) rotate(34.32)" xlink:href="#linear-gradient-63"/><linearGradient id="linear-gradient-69" x1="935.49" y1="1003.72" x2="935.49" y2="1078.68" gradientTransform="translate(-111.81 -14.89) rotate(-1.46)" xlink:href="#linear-gradient-15"/><linearGradient id="linear-gradient-70" x1="924.77" y1="797.77" x2="971.36" y2="1022.07" gradientTransform="translate(-111.81 -14.89) rotate(-1.46)" xlink:href="#linear-gradient-15"/></defs><g class="cls-1"><g id="_2" data-name="2"><g id="Pill"><g id="surface1"><path class="cls-3" d="M1891.79,2012.9H1710.18a6.73,6.73,0,0,0-6.73,6.73v26.9h195.07v-26.9A6.73,6.73,0,0,0,1891.79,2012.9Z"/><path class="cls-4" d="M1777.44,2019.63v-6.73h-67.26a6.73,6.73,0,0,0-6.73,6.73v26.9h195.07v-20.17H1784.17A6.73,6.73,0,0,1,1777.44,2019.63Z"/><path class="cls-3" d="M1898.52,2039.81H1696.73a6.72,6.72,0,0,0-6.73,6.72v33.64h215.25v-33.64A6.72,6.72,0,0,0,1898.52,2039.81Z"/><path class="cls-4" d="M1696.73,2039.81h80.71v33.63H1690v-26.91A6.72,6.72,0,0,1,1696.73,2039.81Z"/><path class="cls-4" d="M1790.9,2039.81h13.45v40.36H1790.9Z"/><path class="cls-5" d="M1764,2039.81h13.45v40.36H1764Z"/><path class="cls-5" d="M1737.09,2039.81h13.45v40.36h-13.45Z"/><path class="cls-5" d="M1710.18,2039.81h13.45v40.36h-13.45Z"/><path class="cls-4" d="M1871.61,2039.81h13.46v40.36h-13.46Z"/><path class="cls-4" d="M1844.71,2039.81h13.45v40.36h-13.45Z"/><path class="cls-4" d="M1817.8,2039.81h13.45v40.36H1817.8Z"/><path class="cls-6" d="M1703.45,2107.07v316.15a6.73,6.73,0,0,0,6.73,6.72h174.89a6.72,6.72,0,0,0,6.72-6.72V2107.07Z"/><path class="cls-3" d="M1784.17,2369.4h107.62V2167.61H1784.17a13.45,13.45,0,0,0-13.45,13.45V2356A13.45,13.45,0,0,0,1784.17,2369.4Z"/><path class="cls-7" d="M1871.61,2208a6.72,6.72,0,0,0-6.72,6.73v33.63h-33.63a6.72,6.72,0,0,0-6.73,6.72V2282a6.72,6.72,0,0,0,6.73,6.72h33.63v33.64a6.73,6.73,0,0,0,6.72,6.73h20.18V2208Z"/><path class="cls-6" d="M1898.52,2107.07H1696.73a6.72,6.72,0,0,1-6.73-6.72v-20.18h215.25v20.18A6.72,6.72,0,0,1,1898.52,2107.07Z"/><path class="cls-3" d="M1912,2086.9h-228.7a6.73,6.73,0,0,1,0-13.46H1912a6.73,6.73,0,1,1,0,13.46Z"/><path class="cls-8" d="M1757.27,2389.58V2147.43a26.9,26.9,0,0,1,26.9-26.9h107.62v-13.46H1703.45v316.15a6.73,6.73,0,0,0,6.73,6.72h174.89a6.72,6.72,0,0,0,6.72-6.72v-6.73H1784.17A26.9,26.9,0,0,1,1757.27,2389.58Z"/><path class="cls-4" d="M1683.27,2086.9h94.17v-13.46h-94.17a6.73,6.73,0,0,0,0,13.46Z"/></g></g><g id="woman"><path class="cls-9" d="M121.27,2334.59s-1.94,29.71-7.11,47.71-6.43,42.17-1.15,47.34,27.93.46,55.1,2.34,61.79,9.72,71.45,3.52,8.55-23.21-5.54-27.8-55.57-13.13-65.9-29.63-8.82-39.5-8.82-39.5Z"/><path class="cls-10" d="M111.4,2433.09c10.39,5.84,36.3-1.14,61.41.51,24.58,1.61,69.78,11.37,77.65-6l0-.09a17.88,17.88,0,0,0-.71-11.75,14.08,14.08,0,0,0-5.28-6.11c-.47-.36-1.06-.69-1.64-1.05l-.18-.11a4.06,4.06,0,0,0-.51-.3c-2.19-1.15-8.93-3.56-17.17-6.56h0l-8.09-2.94h0c-.85-.33-1.72-.65-2.58-1s-1.62-.6-2.42-.9c-1.54-.59-3.08-1.19-4.62-1.77l-3.61-1.42c-1.41-.55-2.76-1.12-4.09-1.68-1-.39-2-.81-2.93-1.25-1.14-.45-2.2-1-3.24-1.43,0,0,0,0,0,0-.19-.08-.34-.18-.52-.26l-1-.45-.51-.24c-4-1.92-7.09-3.7-8.64-5.22a28.4,28.4,0,0,1-4.1-5.07l-2.84.78c-.95.27-2,.53-3.09.82l-1.38.36c-14.22,3.54-38.5,8.28-54.26,3.91a27.91,27.91,0,0,1-2.93-1,1.59,1.59,0,0,1-.37-.14l-.08,0c-.45-.17-.84-.36-1.25-.52,0,0-.35,1.35-.85,3.61-.07.31-.13.62-.21,1-.18.79-.37,1.67-.57,2.62a191.11,191.11,0,0,0-3.26,20.27c-.15,1.49-.28,3-.36,4.4-.11,1.64-.16,3.26-.14,4.8a42.56,42.56,0,0,0,.3,5.37C107.85,2428.57,109.11,2431.78,111.4,2433.09Z"/><path class="cls-11" d="M183.77,2384s-11.4-17.06-14.21-19.3-12.31,2.32-14.33,4.79-5.28,7-2.78,10.21,21.22,8.86,25.86,9S183.77,2384,183.77,2384Z"/><path class="cls-12" d="M107.33,2424.35c.54,4.22,1.78,7.44,4.07,8.73,10.38,5.84,26.84,3,54.85,1.71,24.58-1.1,80.36,15.45,84.22-7.15-6.47,4.87-25.1,5.88-40.76,4.22-18.44-2-31.74-6-58-3.19C129.83,2431,111.16,2426.22,107.33,2424.35Z"/><path class="cls-13" d="M184,2397.73a3,3,0,0,0,2.34,2,2.09,2.09,0,0,0,1.11-.15,2.73,2.73,0,0,0,1.33-1.24,16.47,16.47,0,0,1,7.87-7.28,25.46,25.46,0,0,0-6,7.17,3.75,3.75,0,0,0-.26,3.2,3.05,3.05,0,0,0,2.32,2,2.17,2.17,0,0,0,1.13-.15,2.83,2.83,0,0,0,1.34-1.26,16.45,16.45,0,0,1,8.77-7.62l.53-.18c-3.05,1.93-5.06,4.6-7.16,8.27a3.69,3.69,0,0,0,.68,4.57,2.38,2.38,0,0,0,2.49.48,2.73,2.73,0,0,0,1.36-1.26h0c2.47-4.32,6-7.11,10.22-8.05l2.16-.48c-.81-.35-23.8-9.83-24-9.9-2.37,2.32-4.06,3.33-6,6.71A3.68,3.68,0,0,0,184,2397.73Z"/><path class="cls-14" d="M375,2336.57s10,19.45-2,45.73c-7.79,17.16-6.43,42.17-1.15,47.34s27.93.46,55.1,2.34,61.79,9.72,71.45,3.52,8.55-23.21-5.54-27.8-55.57-13.13-65.9-29.63-8.82-39.5-8.82-39.5Z"/><path class="cls-15" d="M370.28,2433.09c10.38,5.84,36.3-1.14,61.4.51,24.59,1.61,69.79,11.37,77.65-6a.23.23,0,0,0,0-.09,17.92,17.92,0,0,0-.7-11.75,14.11,14.11,0,0,0-5.29-6.11c-.47-.36-1.06-.69-1.64-1.05l-.17-.11a4.3,4.3,0,0,0-.52-.3c-2.18-1.15-8.92-3.56-17.17-6.56,0,0,0,0,0,0-2.59-.93-5.31-1.92-8.1-2.94h0c-.85-.33-1.71-.65-2.58-1s-1.61-.6-2.42-.9l-4.61-1.77-3.62-1.42c-1.4-.55-2.76-1.12-4.09-1.68-1-.39-2-.81-2.93-1.25-1.13-.45-2.19-1-3.24-1.43,0,0,0,0,0,0-.19-.08-.34-.18-.52-.26l-1-.45-.5-.24c-4-1.92-7.1-3.7-8.65-5.22a28.4,28.4,0,0,1-4.1-5.07l-2.84.78c-.95.27-2,.53-3.09.82l-1.38.36c-14.22,3.54-38.5,8.28-54.26,3.91a28.69,28.69,0,0,1-2.93-1,1.59,1.59,0,0,1-.37-.14l-.08,0c-.45-.17-.84-.36-1.25-.52,0,0-.35,1.35-.85,3.61-.06.31-.13.62-.21,1-.17.79-.37,1.67-.57,2.62a191.11,191.11,0,0,0-3.26,20.27c-.15,1.49-.27,3-.36,4.4-.11,1.64-.16,3.26-.13,4.8a44.62,44.62,0,0,0,.29,5.37C366.73,2428.57,368,2431.78,370.28,2433.09Z"/><path class="cls-16" d="M442.64,2384s-11.39-17.06-14.21-19.3-12.31,2.32-14.33,4.79-5.28,7-2.78,10.21,21.23,8.86,25.87,9S442.64,2384,442.64,2384Z"/><path class="cls-12" d="M366.21,2424.35c.53,4.22,1.77,7.44,4.07,8.73,10.38,5.84,26.84,3,54.84,1.71,24.58-1.1,80.36,15.45,84.22-7.15-6.46,4.87-25.1,5.88-40.76,4.22-18.44-2-31.74-6-58-3.19C388.71,2431,370,2426.22,366.21,2424.35Z"/><path class="cls-13" d="M442.88,2397.73a3,3,0,0,0,2.34,2,2.13,2.13,0,0,0,1.12-.15,2.75,2.75,0,0,0,1.32-1.24,16.47,16.47,0,0,1,7.87-7.28,25.26,25.26,0,0,0-6,7.17,3.68,3.68,0,0,0-.26,3.2,3,3,0,0,0,2.31,2,2.15,2.15,0,0,0,1.13-.15,2.79,2.79,0,0,0,1.34-1.26,16.47,16.47,0,0,1,8.78-7.62l.52-.18c-3,1.93-5.06,4.6-7.16,8.27a3.69,3.69,0,0,0,.68,4.57,2.4,2.4,0,0,0,2.5.48,2.76,2.76,0,0,0,1.35-1.26h0c2.48-4.32,6-7.11,10.22-8.05l2.16-.48c-.81-.35-23.8-9.83-24-9.9-2.37,2.32-4.06,3.33-6,6.71A3.72,3.72,0,0,0,442.88,2397.73Z"/><path class="cls-17" d="M278.67,1791.84c5.14,12.29,9.19,22.19,11.33,28.34,10.11,29.17,27.43,56.17,25.27,98.12s-16.66,118.7-11.84,164.23c6.81,64.39,74.88,263.93,74.88,263.93h40.2s-12-252,.07-342.69,4.09-84.51,1-110.9-16.43-288.17-37.36-361.73-133.51-2.94-133.51-2.94-27.71,36.41-29,84.39C218.64,1651.15,257.67,1741.57,278.67,1791.84Z"/><path class="cls-18" d="M290,1820.18c10.11,29.17,27.43,56.17,25.27,98.12s-16.66,118.7-11.84,164.23c6.81,64.39,74.88,263.93,74.88,263.93h7c-9.58-32.42-39-132.27-44.63-153.17-6.7-25-28.17-126.11-18.33-182.13,4.46-25.42,8.95-83.25,0-127.68-5.2-25.84-28.22-87-34.47-121.11-4.39-23.94-3.25-109.55-4.18-111.2-9.28-16.54-19.3,106.49-19.3,106.49C269.53,1770,287.86,1814,290,1820.18Z"/><path class="cls-19" d="M120.42,2344.14h39.47s31.65-230.84,61.33-318,20.65-82.38,22.81-108.85,52.49-270.53,42.55-370.19C279,1471.36,161,1512.85,161,1512.85s-2,5.82-2.16,6.17c-2.65,4.46-25.92,38.38-35.87,81.88-10.73,46.94,14.14,180.1,14.14,210.77s9.29,70.86-1.09,111.73-33.1,102.88-37.32,148.47C92.75,2136.33,120.42,2344.14,120.42,2344.14Z"/><path class="cls-18" d="M120.42,2344.14h9.25c-2-47.81-8.13-200.69-8.13-242.23,0-49.44,36.91-143.95,43.62-189s-14.09-187.76-19.95-238.08,24.53-123.76,24.53-123.76c28.18,12,95.08-4.3,95.08-4.3-62.68,0-106-27.73-106-27.73-2.65,4.46-25.92,38.38-35.87,81.88-10.73,46.94,14.14,180.1,14.14,210.77s9.29,70.86-1.09,111.73-33.1,102.88-37.32,148.47C92.75,2136.33,120.42,2344.14,120.42,2344.14Z"/><path class="cls-20" d="M427.67,1296s.9,47,6.25,79c9.53,57.15,59.47,196,59.47,196-11.61,9-24.58,14.81-39.44,16.32,0,0-75.27-166.61-82.14-190.9S364,1284.16,364,1284.16Z"/><path class="cls-21" d="M354.27,1269s1.7,16.52,3.86,34.18v0l1.19,4.13c.6,2.06.93,3.17.93,3.17,1.95.23-6.45,3.59-4.56,3.72.09,8.85,6,31,7.37,40.62.62-8,7.38-32.67,11.59-43.56.56-1.46,1.16-3,1.76-4.44,2.46-6.14,5.22-12.51,8-18.94,9.25-21.35,18.93-43.29,20.33-59.31,2.68-30.73-15.2-76.29-15.2-76.29Z"/><path class="cls-22" d="M450.87,1584.74a127.33,127.33,0,0,1,7.53,29.08c3.26,26.18,14.27,41.33,22.8,47.19s35.56,3.57,39.44-11.06c4.32-16.33-14.7-41.3-13.62-41.4s17.61,9.8,22,6.06-19-18.85-24-22.08-10.48-12.94-13.47-21.41S450.87,1584.74,450.87,1584.74Z"/><path class="cls-23" d="M453.23,1595.21l-1.4-2.62c-10.59-19.91-77.83-148.43-85.63-215.88-10.45-90.36-78.42-321.24-21.24-292.4,0,0,49.24,21.52,73.44,91.09,13.38,38.44,12.67,136.09,14.8,153.31,4.45,35.92,53.53,217.79,59.57,240.12l.61,2.25S494.79,1600,453.23,1595.21Z"/><path class="cls-13" d="M453.23,1595.21l-1.4-2.62s34.63,5.3,40.87-23.42c0-.11.05-.23.07-.34l.61,2.25S494.79,1600,453.23,1595.21Z"/><path class="cls-24" d="M367.7,990.21s-26.5,95,4.5,130c0,0-21.23-26.74-40-37s-100.43-5.36-100.43-5.36L222,1006.21Z"/><path class="cls-25" d="M158.86,1519A81.92,81.92,0,0,0,178,1533.5c69.52,38.66,204.24,0,204.24,0s-20.51-91.8-21.37-151.28c-1.53-106.37,50.37-122.15,38.19-182.93-6.55-32.7-12.13-81.44-39.16-105.79-16-14.4-46.08-22.17-69.32-24.07-31-2.54-56.35,3.73-85.27,15.86-72.88,30.59-52.5,143.16-36.82,220v0c5.21,25.54,10.43,46.89,12.39,59.61C189.94,1423.71,158.86,1519,158.86,1519Z"/><path class="cls-21" d="M159.06,1519a84.6,84.6,0,0,0,19.82,14.48s13.72-62.35,20.92-111.18-9.74-110.16-11.53-117.76c-2.44-10.36,6.6-22.38,29.65-10.34s98.53-1.82,98.53-1.82C249,1299.13,219.16,1278,216,1220.64c-1.12-20.16-12.49-65.07-12.49-65.07-13,50-20.8,73.16-41.55,116.08l6.91,35.6c5.4,25.54,10.18,46.43,12.21,59.14C190.47,1425.11,159.06,1519,159.06,1519Z"/><path class="cls-13" d="M309.76,1079.24s13.86,6,12.68,14.87c-.94,7-7.21,15.28-27.87,16s-53.51-10.71-61-22.41,10.81-13.27,10.81-13.27Z"/><path class="cls-26" d="M245.7,1011.38s-7.09,59.06-6,69.76,38.66,24.87,56.11,21.76S316,1090.47,312.26,1086s-4.82-48.29-5.82-56.57S245.7,1011.38,245.7,1011.38Z"/><path class="cls-27" d="M383.17,904.87c5.45,14.87,4.44,49.19,1.13,64.71-8.62,40.48-28.94,89-62.44,87.66-14.83-.61-67.49-7.83-84-42-5.69-11.76-23.26-34.17-28-52.43-18.53-71.31,30-110,60-117.16C296.43,839.29,353.08,822.78,383.17,904.87Z"/><path class="cls-13" d="M353.66,1008.64c-6,2.26-23.15,7.93-42.82,7a1.43,1.43,0,0,0-1.32,2.11c2.46,4.86,9.69,16,24.56,16.74,15.51.8,20.24-17.4,21.46-24.22A1.43,1.43,0,0,0,353.66,1008.64Z"/><path class="cls-28" d="M289.54,798.84C199.19,794,159.16,854.92,159.29,918.53v.06c0,1.94.05,3.88.13,5.82.14,16.4-1.1,63.39-18.44,94.52-27.79,49.87-34,131.76-6.7,160.9,0,0,31.76-84.29,67-90.4a80.66,80.66,0,0,1,35.4,18.22,7,7,0,0,0,11.57-6.44c-11.07-66.34-1.68-99.66-3.71-99.16-2.31.58-19.08-6.78-20.63-30.11-.73-11-11.1-38.07,12-35,60.4,8.13,93.29-76.6,93.29-76.6,48.3,28.45,58.41,83.19,58.41,83.19C408.12,896.37,364,802.85,289.54,798.84Z"/><path class="cls-29" d="M304,856.54a86.45,86.45,0,0,1-8.81,22.67,90.83,90.83,0,0,1-14.53,19.71,81.22,81.22,0,0,1-9.26,8.11c-.8.64-1.67,1.18-2.51,1.77s-1.69,1.17-2.58,1.69l-2.63,1.59L261,913.51c-.89.49-1.83.92-2.76,1.33s-1.86.87-2.82,1.23c-1.92.7-3.81,1.47-5.78,2a67.23,67.23,0,0,1-11.93,2.46,103.13,103.13,0,0,0,11.44-3.85,80.15,80.15,0,0,0,10.74-5.24,82.22,82.22,0,0,0,9.84-6.68,84.29,84.29,0,0,0,8.84-7.95,90.3,90.3,0,0,0,7.82-9,119.33,119.33,0,0,0,6.84-9.81A131.4,131.4,0,0,0,304,856.54Z"/><path class="cls-29" d="M345.45,856.54a93,93,0,0,1,13.85,10.7,107.23,107.23,0,0,1,11.91,12.92c1.77,2.35,3.49,4.73,5,7.25a71,71,0,0,1,4.17,7.79,53.59,53.59,0,0,1,3,8.32,39.59,39.59,0,0,1,1.29,8.69A64.86,64.86,0,0,0,382,904a74.1,74.1,0,0,0-3.7-7.73q-2.06-3.75-4.46-7.31c-1.57-2.38-3.27-4.69-5-7s-3.57-4.48-5.44-6.66-3.8-4.3-5.75-6.43Q351.76,862.59,345.45,856.54Z"/><path class="cls-29" d="M183.7,856.54a110.72,110.72,0,0,0-6.66,14,108.42,108.42,0,0,0-4.69,14.68,86.57,86.57,0,0,0-2.16,15.14l-.06,3.81c0,1.27.13,2.53.18,3.79l.11,1.9.17,2c.1,1.31.23,2.62.3,3.93q.38,7.85.18,15.67c-.18,5.22-.4,10.42-.89,15.61A281.9,281.9,0,0,1,166,978c.77-10.37,1.47-20.72,1.9-31.07s.61-20.69.05-31c-.06-1.29-.18-2.57-.27-3.85l-.14-1.92-.1-2c0-1.32-.18-2.65-.16-4l.14-4a78.59,78.59,0,0,1,2.72-15.57A92.68,92.68,0,0,1,175.7,870,83.28,83.28,0,0,1,183.7,856.54Z"/><path class="cls-29" d="M216,987.71a63.75,63.75,0,0,0,3.57,6.11,54,54,0,0,0,4.2,5.59,38.18,38.18,0,0,0,5,4.73,23.7,23.7,0,0,0,5.85,3.15,1.35,1.35,0,0,1,.89,1.41v0c-.5,4.8-1,9.65-1.36,14.48s-.71,9.68-1,14.51c-.14,2.42-.19,4.84-.28,7.26-.05,1.21,0,2.42-.05,3.63s0,2.42,0,3.63a73.47,73.47,0,0,0,1.34,14.47c-.4-1.15-.83-2.3-1.22-3.48l-.86-3.58c-.45-2.42-.86-4.85-1.07-7.3a122.56,122.56,0,0,1-.58-14.71c0-4.9.33-9.8.71-14.68s.94-9.73,1.7-14.59l.88,1.44a22.79,22.79,0,0,1-6.41-3.88,33.16,33.16,0,0,1-4.92-5.42,43.13,43.13,0,0,1-3.71-6.17A44,44,0,0,1,216,987.71Z"/><path class="cls-30" d="M176.59,1316.94s-9.52,48.12-11.14,79.93c-2.88,56.73-21.89,188.19-21.89,188.19-12.31,5.53-25.23-4.8-39-7.18,0,0-.61-162.81-.72-187.66-.19-44.12,11.48-97.82,11.48-97.82Z"/><path class="cls-31" d="M104.92,1575.26a114.63,114.63,0,0,1-7.3,28.41c-6.84,16.4-7.65,41.14-2.83,50.15s26.36,22.22,35.4,11.23c10.08-12.26,10.94-42.75,11.88-42.35s10.87,16.62,16,15.35-9.44-28.33-12-33.67c-3.35-7-3.74-12.78-2.23-21.41S104.92,1575.26,104.92,1575.26Z"/><path class="cls-32" d="M202.93,1213.34c-3.13,19-17.87,64.53-26.52,118.74-16,100.35-24.95,224.84-26.45,246.78l-.23,3.38c-16.09,6.34-26.58,10-48.68-.92,0,0,0-1.49,0-4.23-.1-32.28-.75-238.39-.54-241.62,2-29.54,26.26-209.59,95.36-245.41C215.5,1079.88,214.63,1142.42,202.93,1213.34Z"/><path class="cls-13" d="M150,1578.86l-.23,3.38c-16.09,6.34-26.58,10-48.68-.92,0,0,0-1.49,0-4.23C101,1577.09,121.22,1591.89,150,1578.86Z"/><circle class="cls-13" cx="241.38" cy="997.32" r="9.61" transform="translate(-634.51 462.79) rotate(-45)"/></g><ellipse id="shadow" class="cls-33" cx="1235.17" cy="2425.87" rx="1195.62" ry="91.32"/><g id="smartphone"><g id="smartphone-2" data-name="smartphone"><g id="Smartphone-3" data-name="Smartphone"><g id="shadow-2" data-name="shadow" class="cls-34"><path class="cls-35" d="M999.42,2128.28v-1646a177.92,177.92,0,0,1,177.92-177.92l524.32,94.42a177.93,177.93,0,0,1,177.93,177.93l147.75,1551.56a177.93,177.93,0,0,1-177.92,177.93H1177.34A177.93,177.93,0,0,1,999.42,2128.28Z"/><path class="cls-36" d="M1000.45,2129V481.43a175.74,175.74,0,0,1,175.73-175.74l529.32,92.55A175.72,175.72,0,0,1,1881.23,574L2026,2129a175.72,175.72,0,0,1-175.73,175.73H1176.18A175.73,175.73,0,0,1,1000.45,2129Z"/><path class="cls-37" d="M1001.49,2129.68V480.56A173.54,173.54,0,0,1,1175,307l534.32,90.66a173.54,173.54,0,0,1,173.54,173.53l141.84,1558.47a173.54,173.54,0,0,1-173.53,173.54H1175A173.54,173.54,0,0,1,1001.49,2129.68Z"/><path class="cls-38" d="M1002.52,2130.38V479.7a171.36,171.36,0,0,1,171.35-171.35l539.31,88.77a171.34,171.34,0,0,1,171.34,171.34l138.89,1561.92a171.34,171.34,0,0,1-171.34,171.34h-678.2A171.35,171.35,0,0,1,1002.52,2130.38Z"/><path class="cls-39" d="M1003.56,2131.08V478.83a169.15,169.15,0,0,1,169.15-169.15L1717,396.56a169.15,169.15,0,0,1,169.15,169.15L2022.1,2131.08A169.15,169.15,0,0,1,1853,2300.23H1172.71A169.15,169.15,0,0,1,1003.56,2131.08Z"/><path class="cls-40" d="M1004.59,2131.78V478a167,167,0,0,1,167-167l549.31,85a167,167,0,0,1,167,167l133,1568.83a167,167,0,0,1-167,167H1171.55A167,167,0,0,1,1004.59,2131.78Z"/><path class="cls-41" d="M1005.63,2132.48V477.1a164.76,164.76,0,0,1,164.76-164.76l554.31,83.1A164.76,164.76,0,0,1,1889.46,560.2l130,1572.28a164.75,164.75,0,0,1-164.76,164.76H1170.39A164.75,164.75,0,0,1,1005.63,2132.48Z"/><path class="cls-42" d="M1006.66,2133.18V476.24a162.57,162.57,0,0,1,162.57-162.57l559.3,81.21a162.57,162.57,0,0,1,162.58,162.57l127.06,1575.73a162.57,162.57,0,0,1-162.57,162.57H1169.23A162.58,162.58,0,0,1,1006.66,2133.18Z"/><path class="cls-43" d="M1007.7,2133.88V475.37A160.37,160.37,0,0,1,1168.07,315l564.3,79.32A160.37,160.37,0,0,1,1892.75,554.7l124.11,1579.18a160.38,160.38,0,0,1-160.37,160.38H1168.07A160.38,160.38,0,0,1,1007.7,2133.88Z"/><path class="cls-44" d="M1008.73,2134.58V474.51a158.18,158.18,0,0,1,158.19-158.18l569.29,77.43A158.19,158.19,0,0,1,1894.4,551.94l121.15,1582.64a158.18,158.18,0,0,1-158.18,158.18H1166.92A158.18,158.18,0,0,1,1008.73,2134.58Z"/><path class="cls-45" d="M1009.77,2135.28V473.65a156,156,0,0,1,156-156l574.29,75.54a156,156,0,0,1,156,156l118.2,1586.09a156,156,0,0,1-156,156H1165.76A156,156,0,0,1,1009.77,2135.28Z"/><path class="cls-46" d="M1010.8,2136V472.78A153.8,153.8,0,0,1,1164.6,319l579.29,73.66a153.8,153.8,0,0,1,153.8,153.8L2012.93,2136a153.79,153.79,0,0,1-153.79,153.8H1164.6A153.8,153.8,0,0,1,1010.8,2136Z"/><path class="cls-47" d="M1011.84,2136.68V471.92a151.6,151.6,0,0,1,151.6-151.61l584.29,71.77a151.6,151.6,0,0,1,151.6,151.6l112.3,1593A151.6,151.6,0,0,1,1860,2288.28H1163.44A151.6,151.6,0,0,1,1011.84,2136.68Z"/><path class="cls-48" d="M1012.87,2137.38V471.05a149.42,149.42,0,0,1,149.41-149.41l589.29,69.88A149.41,149.41,0,0,1,1901,540.93l109.34,1596.45a149.42,149.42,0,0,1-149.41,149.41H1162.28A149.42,149.42,0,0,1,1012.87,2137.38Z"/><path class="cls-49" d="M1013.91,2138.08V470.19A147.21,147.21,0,0,1,1161.12,323l594.29,68a147.21,147.21,0,0,1,147.21,147.22L2009,2138.08a147.22,147.22,0,0,1-147.22,147.21H1161.12A147.21,147.21,0,0,1,1013.91,2138.08Z"/><path class="cls-50" d="M1014.94,2138.78V469.32a145,145,0,0,1,145-145l599.27,66.1a145,145,0,0,1,145,145L2007.7,2138.78a145,145,0,0,1-145,145H1160A145,145,0,0,1,1014.94,2138.78Z"/><path class="cls-51" d="M1016,2139.48v-1671a142.83,142.83,0,0,1,142.83-142.83l604.27,64.21a142.83,142.83,0,0,1,142.83,142.83l100.48,1606.81a142.83,142.83,0,0,1-142.83,142.83H1158.81A142.83,142.83,0,0,1,1016,2139.48Z"/><path class="cls-52" d="M1017,2140.18V467.6A140.64,140.64,0,0,1,1157.65,327l609.27,62.32a140.64,140.64,0,0,1,140.64,140.64l97.52,1610.26a140.64,140.64,0,0,1-140.64,140.63H1157.65A140.64,140.64,0,0,1,1017,2140.18Z"/><path class="cls-53" d="M1018.05,2140.88V466.73a138.44,138.44,0,0,1,138.44-138.44l614.27,60.43A138.45,138.45,0,0,1,1909.2,527.17l94.57,1613.71a138.45,138.45,0,0,1-138.45,138.44H1156.49A138.44,138.44,0,0,1,1018.05,2140.88Z"/><path class="cls-54" d="M1019.08,2141.58V465.87a136.25,136.25,0,0,1,136.25-136.25l619.27,58.54a136.25,136.25,0,0,1,136.25,136.25l91.61,1617.17a136.25,136.25,0,0,1-136.25,136.25H1155.33A136.25,136.25,0,0,1,1019.08,2141.58Z"/><path class="cls-55" d="M1020.12,2142.28V465a134,134,0,0,1,134.05-134l624.27,56.65a134.05,134.05,0,0,1,134,134.06l88.66,1620.62a134.06,134.06,0,0,1-134.06,134H1154.17A134.05,134.05,0,0,1,1020.12,2142.28Z"/><path class="cls-56" d="M1021.15,2143V464.14A131.87,131.87,0,0,1,1153,332.27L1782.28,387a131.87,131.87,0,0,1,131.86,131.87L1999.84,2143A131.87,131.87,0,0,1,1868,2274.84H1153A131.87,131.87,0,0,1,1021.15,2143Z"/><path class="cls-57" d="M1022.19,2143.67V463.27A129.67,129.67,0,0,1,1151.86,333.6l634.25,52.88a129.68,129.68,0,0,1,129.68,129.67l82.74,1627.52a129.67,129.67,0,0,1-129.67,129.67h-717A129.66,129.66,0,0,1,1022.19,2143.67Z"/><path class="cls-58" d="M1023.22,2144.37v-1682A127.49,127.49,0,0,1,1150.7,334.93l639.25,51A127.48,127.48,0,0,1,1917.43,513.4l79.79,1631a127.48,127.48,0,0,1-127.48,127.48h-719A127.48,127.48,0,0,1,1023.22,2144.37Z"/><path class="cls-59" d="M1024.26,2145.07V461.55a125.28,125.28,0,0,1,125.28-125.29l644.25,49.1a125.3,125.3,0,0,1,125.29,125.29l76.83,1634.42a125.28,125.28,0,0,1-125.29,125.29H1149.54A125.28,125.28,0,0,1,1024.26,2145.07Z"/><path class="cls-60" d="M1025.29,2145.77V460.68a123.09,123.09,0,0,1,123.09-123.09l649.25,47.22A123.08,123.08,0,0,1,1920.72,507.9l73.88,1637.87a123.09,123.09,0,0,1-123.09,123.09H1148.38A123.09,123.09,0,0,1,1025.29,2145.77Z"/><path class="cls-61" d="M1026.33,2146.47V459.82a120.89,120.89,0,0,1,120.89-120.9l654.25,45.33a120.89,120.89,0,0,1,120.9,120.89l70.92,1641.33a120.9,120.9,0,0,1-120.9,120.9H1147.22A120.89,120.89,0,0,1,1026.33,2146.47Z"/><path class="cls-62" d="M1027.36,2147.17V459a118.7,118.7,0,0,1,118.71-118.7l659.24,43.44A118.7,118.7,0,0,1,1924,502.39l68,1644.78a118.71,118.71,0,0,1-118.7,118.71H1146.07A118.71,118.71,0,0,1,1027.36,2147.17Z"/><path class="cls-63" d="M1028.4,2147.87V458.09a116.51,116.51,0,0,1,116.51-116.51l664.24,41.55a116.51,116.51,0,0,1,116.51,116.51l65,1648.23a116.51,116.51,0,0,1-116.51,116.51H1144.91A116.51,116.51,0,0,1,1028.4,2147.87Z"/><path class="cls-64" d="M1029.43,2148.57V457.22a114.31,114.31,0,0,1,114.32-114.31L1813,382.57A114.31,114.31,0,0,1,1927.3,496.88l62.06,1651.69A114.32,114.32,0,0,1,1875,2262.89H1143.75A114.32,114.32,0,0,1,1029.43,2148.57Z"/><path class="cls-65" d="M1030.47,2149.27V456.36a112.12,112.12,0,0,1,112.12-112.12L1816.82,382A112.12,112.12,0,0,1,1929,494.13l59.1,1655.14a112.12,112.12,0,0,1-112.12,112.13H1142.59A112.12,112.12,0,0,1,1030.47,2149.27Z"/><path class="cls-66" d="M1031.5,2150V455.49a109.93,109.93,0,0,1,109.93-109.93l679.23,35.89a109.93,109.93,0,0,1,109.93,109.93L1986.74,2150a109.93,109.93,0,0,1-109.93,109.93H1141.43A109.93,109.93,0,0,1,1031.5,2150Z"/><path class="cls-67" d="M1032.54,2150.67v-1696a107.74,107.74,0,0,1,107.73-107.74l684.23,34a107.74,107.74,0,0,1,107.74,107.74l53.19,1662a107.74,107.74,0,0,1-107.74,107.74H1140.27A107.74,107.74,0,0,1,1032.54,2150.67Z"/><path class="cls-68" d="M1033.57,2151.37V453.77a105.55,105.55,0,0,1,105.55-105.55l689.22,32.11a105.54,105.54,0,0,1,105.54,105.54l50.24,1665.5a105.54,105.54,0,0,1-105.54,105.54H1139.12A105.55,105.55,0,0,1,1033.57,2151.37Z"/><path class="cls-69" d="M1034.61,2152.07V452.9A103.35,103.35,0,0,1,1138,349.55l694.22,30.22a103.35,103.35,0,0,1,103.35,103.35l47.28,1669a103.35,103.35,0,0,1-103.35,103.35H1138A103.35,103.35,0,0,1,1034.61,2152.07Z"/><path class="cls-70" d="M1035.64,2152.77V452A101.16,101.16,0,0,1,1136.8,350.88L1836,379.21a101.16,101.16,0,0,1,101.15,101.16l44.33,1672.4a101.16,101.16,0,0,1-101.16,101.16H1136.8A101.16,101.16,0,0,1,1035.64,2152.77Z"/><path class="cls-71" d="M1036.68,2153.47V451.17a99,99,0,0,1,99-99l704.22,26.44a99,99,0,0,1,99,99l41.37,1675.86a99,99,0,0,1-99,99H1135.64A99,99,0,0,1,1036.68,2153.47Z"/><path class="cls-72" d="M1037.71,2154.17V450.31a96.77,96.77,0,0,1,96.77-96.77l709.21,24.55a96.77,96.77,0,0,1,96.77,96.77l38.42,1679.31a96.77,96.77,0,0,1-96.77,96.77H1134.48A96.78,96.78,0,0,1,1037.71,2154.17Z"/><path class="cls-73" d="M1038.75,2154.87V449.44a94.57,94.57,0,0,1,94.57-94.57l714.21,22.66a94.57,94.57,0,0,1,94.58,94.58l35.46,1682.76a94.58,94.58,0,0,1-94.58,94.58H1133.32A94.58,94.58,0,0,1,1038.75,2154.87Z"/><path class="cls-74" d="M1039.78,2155.57v-1707a92.38,92.38,0,0,1,92.39-92.38L1851.37,377a92.39,92.39,0,0,1,92.39,92.38l32.5,1686.22a92.38,92.38,0,0,1-92.38,92.38H1132.17A92.38,92.38,0,0,1,1039.78,2155.57Z"/><path class="cls-75" d="M1040.82,2156.27V447.72A90.19,90.19,0,0,1,1131,357.53l724.2,18.88a90.19,90.19,0,0,1,90.19,90.19L1975,2156.27a90.19,90.19,0,0,1-90.19,90.19H1131A90.19,90.19,0,0,1,1040.82,2156.27Z"/><path class="cls-76" d="M1041.85,2157V446.85a88,88,0,0,1,88-88l729.2,17a88,88,0,0,1,88,88L1973.64,2157a88,88,0,0,1-88,88h-755.8A88,88,0,0,1,1041.85,2157Z"/><path class="cls-77" d="M1042.89,2157.67V446a85.8,85.8,0,0,1,85.8-85.81l734.2,15.11a85.8,85.8,0,0,1,85.8,85.81l23.64,1696.57a85.79,85.79,0,0,1-85.8,85.8H1128.69A85.79,85.79,0,0,1,1042.89,2157.67Z"/><path class="cls-78" d="M1043.92,2158.37V445.12a83.62,83.62,0,0,1,83.61-83.61l739.2,13.22a83.62,83.62,0,0,1,83.61,83.61l20.68,1700a83.61,83.61,0,0,1-83.61,83.61H1127.53A83.62,83.62,0,0,1,1043.92,2158.37Z"/><path class="cls-79" d="M1045,2159.07V444.26a81.41,81.41,0,0,1,81.41-81.42l744.2,11.33A81.41,81.41,0,0,1,1952,455.59l17.73,1703.48a81.41,81.41,0,0,1-81.41,81.41H1126.37A81.41,81.41,0,0,1,1045,2159.07Z"/><path class="cls-80" d="M1046,2159.77V443.39a79.22,79.22,0,0,1,79.23-79.22l749.18,9.44a79.23,79.23,0,0,1,79.23,79.23l14.77,1706.93a79.22,79.22,0,0,1-79.22,79.22h-764A79.22,79.22,0,0,1,1046,2159.77Z"/><path class="cls-81" d="M1047,2160.47V442.53a77,77,0,0,1,77-77l754.18,7.55a77,77,0,0,1,77,77l11.82,1710.39a77,77,0,0,1-77,77h-766A77,77,0,0,1,1047,2160.47Z"/><path class="cls-82" d="M1048.06,2161.17V441.67a74.84,74.84,0,0,1,74.84-74.84l759.18,5.66a74.84,74.84,0,0,1,74.84,74.84l8.86,1713.84A74.83,74.83,0,0,1,1891,2236h-768A74.84,74.84,0,0,1,1048.06,2161.17Z"/><path class="cls-83" d="M1049.1,2161.87V440.8a72.64,72.64,0,0,1,72.64-72.64l764.18,3.78a72.64,72.64,0,0,1,72.64,72.64l5.91,1717.29a72.64,72.64,0,0,1-72.64,72.64H1121.74A72.64,72.64,0,0,1,1049.1,2161.87Z"/><path class="cls-84" d="M1050.13,2162.57V439.94a70.45,70.45,0,0,1,70.45-70.45l769.18,1.89a70.45,70.45,0,0,1,70.45,70.45l3,1720.74a70.45,70.45,0,0,1-70.45,70.45H1120.58A70.45,70.45,0,0,1,1050.13,2162.57Z"/><rect class="cls-85" x="1051.17" y="370.82" width="910.69" height="1860.71" rx="68.26"/></g><path id="screen2" class="cls-86" d="M1962.87,404.84v1832a13.21,13.21,0,0,1-13.29,13.13H1071.63a13.21,13.21,0,0,1-13.28-13.13v-1832Z"/><rect id="blue" class="cls-87" x="1067.92" y="379.59" width="893.94" height="222.28"/><g id="buttons"><path class="cls-88" d="M1026.37,593.95h2.55a0,0,0,0,1,0,0v84.9a0,0,0,0,1,0,0h-2.55a1.55,1.55,0,0,1-1.55-1.55V595.5A1.55,1.55,0,0,1,1026.37,593.95Z"/><path class="cls-89" d="M1026.37,699h2.55a0,0,0,0,1,0,0v84.9a0,0,0,0,1,0,0h-2.55a1.55,1.55,0,0,1-1.55-1.55v-81.8A1.55,1.55,0,0,1,1026.37,699Z"/><path class="cls-90" d="M2003.1,699h4.17a0,0,0,0,1,0,0V813.64a0,0,0,0,1,0,0h-4.17a2.54,2.54,0,0,1-2.54-2.54V701.51A2.54,2.54,0,0,1,2003.1,699Z" transform="translate(4007.82 1512.62) rotate(180)"/></g><g id="casing"><path class="cls-91" d="M1911.44,342.13H1118.32c-49.57,0-89.76,38.16-89.76,85.22V2185c0,47.08,40.19,85.23,89.76,85.23h793.12c49.58,0,89.77-38.15,89.77-85.23V427.35C2001.21,380.29,1961,342.13,1911.44,342.13Zm50.41,1825.66c0,40.1-34.24,72.61-76.47,72.61h-741c-42.24,0-76.48-32.51-76.48-72.6V448.69c0-29.5,25.19-53.41,56.26-53.41h781.41c31.07,0,56.26,23.91,56.26,53.41Z"/></g><g id="camera"><path class="cls-92" d="M1457.15,379.59c-.49,0-1,0-1.46,0a24.14,24.14,0,0,1-6-1.05,17.39,17.39,0,0,1-2.83-1.14,9.85,9.85,0,0,1-3.24-2.51,5.1,5.1,0,0,1-1-2.09,4.1,4.1,0,0,1,0-1.8,5.1,5.1,0,0,1,1-2.09,9.91,9.91,0,0,1,3.17-2.47l.09-.05a16.64,16.64,0,0,1,2.81-1.13,24.6,24.6,0,0,1,6.06-1.05c.47,0,1,0,1.45,0h118.31c.49,0,1,0,1.46,0a24.14,24.14,0,0,1,6,1,17.39,17.39,0,0,1,2.83,1.14,9.74,9.74,0,0,1,3.24,2.52,5,5,0,0,1,1,2.08,4.54,4.54,0,0,1,0,1.8,5.1,5.1,0,0,1-1,2.09,9.91,9.91,0,0,1-3.17,2.47l-.09.05a16.64,16.64,0,0,1-2.81,1.13,24.14,24.14,0,0,1-6.06,1.05c-.47,0-1,0-1.45,0Z"/><path class="cls-93" d="M1588.28,371.87a3.33,3.33,0,0,1-.09.78,4.5,4.5,0,0,1-.9,1.82,8.81,8.81,0,0,1-2.77,2.16l-.06,0a15.78,15.78,0,0,1-2.46,1,21.71,21.71,0,0,1-5.27.9c-.42,0-.85,0-1.27,0H1457.15c-.42,0-.85,0-1.27,0a21.62,21.62,0,0,1-5.27-.9,15.39,15.39,0,0,1-2.46-1,8.66,8.66,0,0,1-2.83-2.19,4.53,4.53,0,0,1-.91-1.82,4,4,0,0,1-.08-.78,4,4,0,0,1,.08-.78,4.53,4.53,0,0,1,.91-1.82,8.88,8.88,0,0,1,2.76-2.16l.07,0a15.39,15.39,0,0,1,2.46-1,21.62,21.62,0,0,1,5.27-.9c.42,0,.85,0,1.27,0h118.31c.42,0,.85,0,1.27,0a21.71,21.71,0,0,1,5.27.9,15.78,15.78,0,0,1,2.46,1,8.66,8.66,0,0,1,2.83,2.19,4.5,4.5,0,0,1,.9,1.82A3.39,3.39,0,0,1,1588.28,371.87Z"/></g><g id="screen"><rect class="cls-94" x="1316.94" y="2217.23" width="371.91" height="8.38" rx="2.61"/><circle class="cls-95" cx="1407.25" cy="371.87" r="8.38" transform="translate(-35.19 566.84) rotate(-22.5)"/><circle class="cls-94" cx="1169.83" cy="537.35" r="50.54"/><rect class="cls-86" x="1841.2" y="433.93" width="4.99" height="16.23" rx="1.55"/><rect class="cls-86" x="1833.02" y="440.17" width="4.99" height="9.99" rx="1.55" transform="translate(3671.03 890.33) rotate(180)"/><rect class="cls-86" x="1849.38" y="430.18" width="4.99" height="19.97" rx="1.55"/><rect class="cls-86" x="1857.57" y="425.99" width="4.99" height="24.16" rx="1.55"/><rect class="cls-86" x="1865.75" y="421.26" width="4.99" height="28.9" rx="1.55"/><path class="cls-86" d="M1822.46,431.19h-3v-6.67a3.6,3.6,0,0,0-3.59-3.6h-44.28a3.6,3.6,0,0,0-3.6,3.6v22.37a3.6,3.6,0,0,0,3.6,3.6h44.28a3.6,3.6,0,0,0,3.59-3.6v-6.08h3a1.28,1.28,0,0,0,1.28-1.28v-7.06A1.29,1.29,0,0,0,1822.46,431.19Zm-5.55,0v15.7a1,1,0,0,1-1,1h-11.09V423.52h11.09a1,1,0,0,1,1,1Z"/><path class="cls-86" d="M1912.69,446.72a4.82,4.82,0,1,1-4.82-4.82A4.81,4.81,0,0,1,1912.69,446.72Z"/><path class="cls-86" d="M1925,432.17a1.5,1.5,0,0,1-1.1-.48,22.15,22.15,0,0,0-16-7.26h-.18a22.16,22.16,0,0,0-16,7.26,1.5,1.5,0,1,1-2.19-2.05,24.42,24.42,0,0,1,36.53,0,1.5,1.5,0,0,1-.08,2.12A1.47,1.47,0,0,1,1925,432.17Z"/><path class="cls-86" d="M1920,436.56a1.53,1.53,0,0,1-1-.39c-5.41-5-11-4.81-11.07-4.81h-.15a17,17,0,0,0-11.08,4.81,1.5,1.5,0,0,1-2-2.21,18.33,18.33,0,0,1,26.38,0,1.49,1.49,0,0,1,.08,2.12A1.47,1.47,0,0,1,1920,436.56Z"/><path class="cls-86" d="M1915.14,441.58a1.49,1.49,0,0,1-1.21-.61c-1.39-1.9-4.77-2.49-6.06-2.58-1.28.09-4.66.68-6,2.58a1.5,1.5,0,1,1-2.42-1.78c2.56-3.48,8.17-3.79,8.4-3.8h.14c.24,0,5.84.32,8.41,3.8a1.51,1.51,0,0,1-1.21,2.39Z"/><path class="cls-13" d="M1126.17,430.2h-.08l-4.1,2.22-.72-3.13,5.4-3h3.45v24.42h-3.95Z"/><path class="cls-13" d="M1141.49,430.2h-.08l-4.1,2.22-.71-3.13,5.39-3h3.45v24.42h-4Z"/><path class="cls-13" d="M1151.83,435.42a2.53,2.53,0,0,1,2.38-2.7,2.42,2.42,0,0,1,2.36,2.7,2.37,2.37,0,0,1-2.38,2.65A2.44,2.44,0,0,1,1151.83,435.42Zm0,13a2.53,2.53,0,0,1,2.38-2.7,2.42,2.42,0,0,1,2.36,2.7,2.37,2.37,0,0,1-2.38,2.65A2.44,2.44,0,0,1,1151.83,448.4Z"/><path class="cls-13" d="M1172.41,438.46c0,8.83-3,12.59-6.8,12.59-4.63,0-6.64-5.39-6.64-12.42,0-7.57,2.33-12.6,6.9-12.6C1170.76,426,1172.41,431.77,1172.41,438.46Zm-9.42.08c0,5.8.8,9.08,2.8,9.08s2.59-3.37,2.59-9.08c0-5.45-.69-9.07-2.61-9.07S1163,432.79,1163,438.54Z"/><path class="cls-13" d="M1187.73,438.46c0,8.83-3,12.59-6.8,12.59-4.63,0-6.64-5.39-6.64-12.42,0-7.57,2.33-12.6,6.9-12.6C1186.08,426,1187.73,431.77,1187.73,438.46Zm-9.42.08c0,5.8.8,9.08,2.8,9.08s2.59-3.37,2.59-9.08c0-5.45-.69-9.07-2.61-9.07S1178.29,432.79,1178.31,438.54Z"/><path class="cls-13" d="M1200.38,444.15l-1.36,6.6h-3.89l5.63-25.32h4.68l5.24,25.32h-3.92l-1.34-6.6ZM1205,441l-1.06-5.81c-.3-1.66-.64-4-.91-5.77h-.11c-.28,1.79-.66,4.21-1,5.78l-1.11,5.8Z"/><path class="cls-13" d="M1228.89,441c-.15-2.84-.31-6.29-.24-9.09h-.13c-.49,2.77-1.17,5.84-1.78,8.26l-2.61,10.3h-2.75l-2.49-10c-.65-2.58-1.35-5.72-1.79-8.55h-.1c0,2.86-.21,6.22-.35,9.21l-.45,9.65h-3.5l1.68-25.32h4.28l2.44,10.25c.76,3.27,1.4,5.93,1.9,8.8h.09c.43-2.85,1-5.5,1.73-8.8l2.39-10.25h4.32l1.49,25.32h-3.64Z"/><rect class="cls-94" x="1263.7" y="510.02" width="577.5" height="54.65" rx="17.01"/><rect class="cls-94" x="1067.92" y="1996.79" width="893.93" height="14.54"/></g><rect class="cls-94" x="1126.14" y="718.67" width="353.61" height="292.05" rx="25.62"/><rect class="cls-94" x="1576.65" y="718.67" width="339.9" height="56.97" rx="11.32"/><rect class="cls-94" x="1576.65" y="873.08" width="100.07" height="35.12" rx="7.73"/><rect class="cls-94" x="1704.66" y="878.06" width="71.67" height="25.15" rx="7.73"/><rect class="cls-94" x="1576.65" y="793.66" width="339.9" height="24.05" rx="4.89"/><path class="cls-87" d="M1507,2133.48a36.67,36.67,0,0,1-16.08-4.15c-13.21-6.46-20.79-43.53-22.8-54.74-4.47-25-2.83-32.92-.66-35.19,8.76-9.2,18.67-7.14,19.09-7.05a3.09,3.09,0,0,1-1.31,6c-.33-.06-7-1.27-13.19,5.15-1.93,4.07.89,32.73,8.82,57.2,5.83,18,10.87,22.11,12.77,23,13.87,6.79,22.63,2.36,28.72-2.26,6.59-5,16.83-36.13,18.26-61.11.83-14.28-1.92-18.09-2.78-18.91-2.69-2.58-10-3.36-14-3.23a3.09,3.09,0,1,1-.19-6.17c1.31,0,13-.26,18.41,4.94,3.81,3.64,5.38,11.62,4.68,23.72-1.35,23.53-11.17,58.46-20.7,65.69C1519.85,2131.14,1513.58,2133.48,1507,2133.48Z"/><path class="cls-87" d="M1545.12,2184.43c-12,0-21.91-3.78-29.38-11.25-15.72-15.71-15-42-14.93-43.1a3.09,3.09,0,1,1,6.17.21c0,.3-.65,24.77,13.15,38.54,6.64,6.63,15.69,9.78,26.88,9.38,23.26-.82,35.49-49.41,38.25-68.06a3.09,3.09,0,1,1,6.11.9c-.43,2.94-11,72.16-44.14,73.34C1546.52,2184.41,1545.82,2184.43,1545.12,2184.43Z"/><path class="cls-87" d="M1590.52,2113.69a16.16,16.16,0,1,1,16.16-16.16A16.18,16.18,0,0,1,1590.52,2113.69Zm0-26.14a10,10,0,1,0,10,10A10,10,0,0,0,1590.52,2087.55Z"/><path class="cls-87" d="M1271.56,2104.79a34.59,34.59,0,1,1,34.59-34.59A34.63,34.63,0,0,1,1271.56,2104.79Zm0-63A28.41,28.41,0,1,0,1300,2070.2,28.44,28.44,0,0,0,1271.56,2041.79Z"/><path class="cls-87" d="M1331,2180.9h-118.8a3.75,3.75,0,0,1-3.75-3.75v-15.54a49.34,49.34,0,0,1,49.28-49.29h27.74a49.34,49.34,0,0,1,49.28,49.29v15.54A3.75,3.75,0,0,1,1331,2180.9Zm-116.37-6.18h113.94v-13.11a43.15,43.15,0,0,0-43.1-43.11h-27.74a43.16,43.16,0,0,0-43.1,43.11Z"/><path class="cls-87" d="M1828.47,2179.49H1721.4a5.8,5.8,0,0,1-5.8-5.8V2042.81a5.8,5.8,0,0,1,5.8-5.79h107.07a5.8,5.8,0,0,1,5.8,5.79v130.88A5.8,5.8,0,0,1,1828.47,2179.49Zm-106.69-6.18h106.31V2043.2H1721.78Z"/><path class="cls-87" d="M1802.32,2179.49a3.09,3.09,0,0,1-3.09-3.09V2040.11a3.09,3.09,0,0,1,6.18,0V2176.4A3.09,3.09,0,0,1,1802.32,2179.49Z"/><path class="cls-87" d="M1783.24,2061.45H1735a3.09,3.09,0,0,1,0-6.18h48.21a3.09,3.09,0,0,1,0,6.18Z"/><path class="cls-87" d="M1783.24,2080.53H1735a3.09,3.09,0,1,1,0-6.18h48.21a3.09,3.09,0,0,1,0,6.18Z"/><path class="cls-87" d="M1783.24,2099.61H1735a3.09,3.09,0,1,1,0-6.18h48.21a3.09,3.09,0,0,1,0,6.18Z"/><path class="cls-87" d="M1783.24,2118.69H1735a3.09,3.09,0,1,1,0-6.18h48.21a3.09,3.09,0,1,1,0,6.18Z"/></g></g><g id="doctor"><path class="cls-96" d="M1448.22,1010.72h-85.78c-3.12-17.8-6.68-42.2-3.75-56.35,1-5,2.9-8.8,5.92-10.48a7.74,7.74,0,0,1,3.58-.89h0l.43.12h0c2.68.9,5.29,1.86,7.83,2.9q4.47,1.8,8.72,3.82c2.7,1.26,5.33,2.57,7.91,3.93.49.29.92.53,1.31.73a183.57,183.57,0,0,1,18.91,11.29,118.5,118.5,0,0,1,16.29,13.36c1.22,1.73,2.43,3.54,3.64,5.41q.6.93,1.2,1.89c.41.63.8,1.27,1.2,1.93s.8,1.3,1.2,2q2.76,4.6,5.47,9.5l1,1.71c.65,1.15,1.28,2.31,1.9,3.49Q1446.73,1007.88,1448.22,1010.72Z"/><path class="cls-97" d="M1145.61,1032.66l.88-1.66c-.29.54-.58,1.1-.86,1.66-.21.37-.41.75-.6,1.13Z"/><path class="cls-98" d="M1271.17,932.94l-.05,3.22s-1.08,6.5-2.89,16.31c-.12.68-.25,1.37-.38,2.09q-.55,3-1.19,6.28c-.16.86-.33,1.74-.5,2.63-.88,4.58-1.85,9.5-2.88,14.57-2.23,10.89-4.75,22.43-7.32,32.68h-97.19c2.57-3.8,5.19-7.4,7.87-10.85.32-.43.64-.86,1-1.28,1-1.29,2.06-2.57,3.09-3.81.34-.41.68-.83,1-1.23,1-1.22,2-2.43,3.09-3.59.35-.4.69-.8,1-1.19l1.56-1.72,1-1.11c.17-.2.36-.38.55-.58l1-1.1c.35-.37.7-.73,1-1.1s.71-.72,1-1.08c2.44-2.49,4.9-4.87,7.34-7.12q.52-.5,1-1c3.85-3.5,7.69-6.71,11.49-9.67l1.45-1.11c.56-.42,1.1-.84,1.65-1.23a3.59,3.59,0,0,1,.33-.25c.57-.43,1.14-.85,1.72-1.26,1.93-1.4,3.84-2.73,5.73-4,.64-.42,1.27-.84,1.9-1.24l1.42-.92,2.23-1.42,1-.59.7-.42a1.1,1.1,0,0,1,.14-.09l.89-.53c.29-.19.59-.36.89-.53.59-.35,1.18-.7,1.77-1l1.75-1,1.17-.67c.33-.17.64-.33.93-.5l1.51-.81.75-.39.73-.38.83-.44.82-.42,1.49-.74,1-.48,1.16-.56c.4-.18.78-.38,1.16-.55a1.86,1.86,0,0,0,.2-.1l2.84-1.29c1.46-.65,2.89-1.27,4.27-1.84h0l2.15-.87a7.49,7.49,0,0,0,.71-.28l1.14-.43,1.13-.44.09,0,.27-.11.74-.26.57-.21.57-.2,1.38-.48,1.12-.38.17-.07.63-.19,1.4-.46.79-.25.66-.2.47-.13.12,0,.14,0,.1,0,.6-.18c.12,0,.23-.07.35-.09l.54-.15,1-.29.31-.07c.19-.06.39-.11.58-.15l.52-.14.43-.11.76-.18.2,0h0l.16,0h0l.12,0a.84.84,0,0,1,.2-.05.13.13,0,0,1,.09,0h.07l.1,0h.11v0h.15c1.12-.05,2.09-.05,2.9,0h.08C1270.1,932.82,1271.17,932.94,1271.17,932.94Z"/><path class="cls-13" d="M1413.76,977.57c-.08,1.68-.23,3.46-.42,5.32-.81,8.3-2.46,18-4.35,27.83H1220c5.86-26,11-43.22,15-54.43a34.62,34.62,0,0,1,14.49-18.16,32.36,32.36,0,0,1,3.65-1.9l1.12-.38.17-.07.63-.19,1.4-.46.79-.25.66-.2.47-.13.12,0,.14,0,.1,0,.6-.18,1-.19,4.41-.73a.57.57,0,0,0,.15,0h0l3.08-.5h0s0,0,0,0l18.62-3.06s33.63,3,49.28,5.49h.1l.15,0h0l.52.09,1.11.18.78.14c1.36.24,5.61,1.16,11.42,2.6.18,0,.36.1.54.13l1.08.26h0l.07,0,1,.26c1.38.34,2.84.73,4.35,1.11,3.34.86,6.93,1.82,10.65,2.84a.55.55,0,0,0,.18.06l.19,0h0l.43.12h0c2.68.9,5.29,1.86,7.83,2.9q4.47,1.8,8.72,3.82c2.7,1.26,5.33,2.57,7.91,3.93,1,.52,2,1,3,1.58,2.22,1.2,4.4,2.41,6.56,3.63q5.58,3.15,10.59,6.43s0,0,0,0,0,.22.07.34A52.85,52.85,0,0,1,1413.76,977.57Z"/><path class="cls-99" d="M1267.78,843s6.54,70.24-3.63,92.15,11.82,23.57,37.46,24.91c20.57,1.08,41-5.19,41-13.53,0-6.66-5.54-10.25-7.28-12-7.63-7.74-8.81-73.77-8.81-73.77Z"/><path class="cls-100" d="M1360.22,801.76c3,9.89-3.41,52.29-5.91,69-3.46,23.17-16.34,44.88-36.92,45-44.11.34-55.58-25.42-65.09-72.54s24.77-71.32,44.52-74.81C1314.35,765.38,1343.58,747.19,1360.22,801.76Z"/><path class="cls-101" d="M1367,809a23.16,23.16,0,0,1-2,3l-.27.32-.41.44a6.82,6.82,0,0,1-.58.53,4.59,4.59,0,0,1-.78.52l-.16.08-.22.08-.18,0-.12,0a1.37,1.37,0,0,1-1.25-.45,3.2,3.2,0,0,1-.22-.27l-.1-.16a2.55,2.55,0,0,1-.19-.37,4.54,4.54,0,0,1-.26-.66c-3.44-11-24.8-19.12-48.88-15.9-13.82,1.84-23.63-1.9-31.16-2.52a7.86,7.86,0,0,0-8.5,7.43,47.06,47.06,0,0,1-16.88,33.73s3.75,23.94-11,9.77-11.62-78.24-1.92-79.53c2-.27,16.36-7.53,18.5-8.7,8.13-4.39,16-10.29,43.79-17.69,35-9.33,66.64,8.05,71.64,27a29.11,29.11,0,0,1,.85,5.83h0C1377.36,784.06,1371.92,800.75,1367,809Z"/><path class="cls-102" d="M1275.52,794.73a7.81,7.81,0,0,1,4.66-1.07c7.53.6,17.34,4.36,31.16,2.51,24.08-3.22,45.44,5,48.88,15.89a4.83,4.83,0,0,0,.26.68,3,3,0,0,0,.19.36l.1.16a2,2,0,0,0,.23.27,1.37,1.37,0,0,0,1.24.45l.13,0,.17-.05.22-.07.16-.08a5,5,0,0,0,.78-.52c.19-.16.38-.33.58-.53l.41-.43.27-.33a23.9,23.9,0,0,0,2-3c.49-.82,1-1.71,1.47-2.69l-.09-.25c-3.61-10.94-26-19.11-51.28-15.9-14.49,1.85-24.79-1.89-32.69-2.51A8.16,8.16,0,0,0,1275.52,794.73Z"/><path class="cls-103" d="M1265.13,840.13A24.08,24.08,0,0,1,1264,852.6c-1.75,4.39-4.9,7.52-8.85,8.19a9.58,9.58,0,0,1-2.67.07c-4.48-.52-8.66-4.14-11.17-9.49a25,25,0,0,1-2.09-6.83c-1.64-10.19,2.84-19.44,10-20.65a10.6,10.6,0,0,1,8.13,2.19C1261.14,828.87,1264.14,834,1265.13,840.13Z"/><path class="cls-13" d="M1342.67,877.06a73.14,73.14,0,0,1-28.27-.59.93.93,0,0,0-1.09,1.19c1,3.41,4.36,11.38,13.79,13.64,9.85,2.35,15-8.75,16.58-13A.93.93,0,0,0,1342.67,877.06Z"/><path class="cls-13" d="M1301.61,960.11c16.56.33,33-3,38.76-8.9a6.66,6.66,0,0,0,2.2-4.64c0-5.9-4.36-9.4-6.56-11.35h.09c.92.14,1.78.29,2.57.42,1.36.24,5.61,1.18,11.42,2.61l.54.13,1.08.27h0l.08,0c2.17,7.87-1.45,14.73-10.28,20.36a65.34,65.34,0,0,1-13.6,6.32c-17.79,6.2-45.87,3.78-61.26-4.52l-.5-.27a31.82,31.82,0,0,1-4.35-2.87,21,21,0,0,1-3-2.86c-6.24-7.41-4-15-.89-20.16,4.47-1.35,7-1.84,7-1.84-.07.17-.13.34-.19.5-.25.63-.47,1.24-.65,1.84a20.14,20.14,0,0,0-.75,9.66,12.67,12.67,0,0,0,4.84,7.63S1284.34,959.77,1301.61,960.11Z"/><path class="cls-104" d="M1364.21,1010.72H1335.8c.06-.21.12-.41.19-.62.23-.77.45-1.53.68-2.29s.51-1.8.76-2.71q.27-.93.51-1.86c.44-1.7.86-3.4,1.25-5.07.26-1.12.5-2.23.73-3.33.55-2.77,1-5.48,1.36-8.11a116.76,116.76,0,0,0,.24-27.7c0-.07,0-.15,0-.22-.15-1.33-.32-2.62-.51-3.86s-.41-2.54-.62-3.74v0a85.67,85.67,0,0,0-4.35-15.94h.08l.15,0h0c1.27.16,7.48,1,16.18,2.86.12.27.26.54.38.83a125.57,125.57,0,0,1,5.87,15.43A142.46,142.46,0,0,1,1364.21,1010.72Z"/><path class="cls-104" d="M1277.09,1010.72h-28.42c-5.52-29.84-2.26-56.9.83-72.59,0-.21.08-.43.12-.64l1-.37.57-.21.57-.2,1.38-.48,1.12-.38.17-.07.63-.19,1.4-.46.79-.25.66-.2.47-.13.12,0,.14,0,.1,0,.6-.18c.12,0,.23-.07.35-.09l.54-.15,1-.29.31-.07c.19-.06.39-.11.58-.15l.52-.14.43-.11.76-.18.2,0h0l.16,0h0l.12,0a.84.84,0,0,1,.2-.05.13.13,0,0,1,.09,0h.07l.1,0h.11v0h0c0,.16,0,.31,0,.47v.05c-.29,3.51-.91,7.38-1.54,11.48-.24,1.55-.47,3.12-.69,4.73h0c-.36,2.63-.68,5.34-.89,8.12h0a62.9,62.9,0,0,0,1.47,20.33c.31,1.2.66,2.41,1.07,3.61A211.79,211.79,0,0,0,1277.09,1010.72Z"/><path class="cls-105" d="M1277.09,1010.72H1158.77c2.57-3.8,5.19-7.4,7.87-10.85.32-.43.64-.86,1-1.28,1-1.29,2.06-2.57,3.09-3.81.34-.41.68-.83,1-1.23,1-1.22,2-2.43,3.09-3.59.35-.4.69-.8,1-1.19l1.56-1.72,1-1.11c.17-.2.36-.38.53-.58.36-.36.71-.73,1-1.1s.7-.73,1-1.1.71-.72,1-1.08c2.44-2.49,4.9-4.87,7.34-7.12q.52-.5,1-1c3.85-3.5,7.69-6.71,11.49-9.67l1.45-1.11c.56-.42,1.1-.84,1.65-1.23a3.59,3.59,0,0,1,.33-.25c.57-.43,1.14-.85,1.72-1.26,1.93-1.4,3.84-2.73,5.73-4,.64-.42,1.27-.84,1.9-1.24l1.42-.93,2.23-1.41,1-.59.69-.44.15-.07.89-.53c.29-.19.59-.36.89-.55l1.77-1c.59-.33,1.17-.68,1.75-1l1.17-.66c.33-.17.64-.33.93-.5l1.51-.81.75-.39.73-.4c.29-.13.56-.28.83-.42l.82-.42,1.49-.74,1-.47c.39-.18.78-.38,1.16-.57s.78-.38,1.16-.55a1.86,1.86,0,0,0,.2-.1l2.84-1.29c1.46-.65,2.89-1.27,4.27-1.84h0l2.15-.87a7.49,7.49,0,0,0,.71-.28l1.14-.42,1.13-.45.09,0,.27-.11.73-.27c.2-.08.38-.14.58-.2l.57-.2,1.38-.48,1.12-.38.17-.07.63-.19,1.4-.46.79-.25.66-.21a4.58,4.58,0,0,0,.47-.12l.12,0,.14,0,.1,0,.6-.18c.12,0,.23-.07.35-.09l.54-.15,1-.29c.32-.08.6-.16.89-.22l.52-.14.43-.11.41-.08a.1.1,0,0,1,.07,0l.15,0,.13,0,.2-.05h0l.19,0,.12,0a.84.84,0,0,1,.2-.05.13.13,0,0,1,.09,0h.07l.1,0h.06l0,0v0c0,.15,0,.28,0,.43v.05c-.29,3.51-.91,7.38-1.54,11.48-.24,1.55-.47,3.12-.69,4.73h0c-.36,2.63-.68,5.34-.89,8.12h0a62.9,62.9,0,0,0,1.47,20.33c.31,1.2.66,2.41,1.07,3.61A211.79,211.79,0,0,0,1277.09,1010.72Z"/><path class="cls-106" d="M1448.23,1010.72H1335.8c.06-.21.12-.41.19-.62.23-.77.45-1.53.68-2.29s.51-1.81.76-2.71q.27-.93.51-1.86c.44-1.7.86-3.4,1.25-5.07.26-1.12.5-2.23.73-3.33.55-2.77,1-5.48,1.36-8.11a116.76,116.76,0,0,0,.24-27.7c0-.07,0-.15,0-.22-.16-1.33-.32-2.62-.51-3.86s-.41-2.54-.62-3.74v0a85.67,85.67,0,0,0-4.35-15.94h.08l.15,0h0c1.27.16,7.48,1,16.18,2.86,17.74,3.72,45.86,11.5,63.71,25.83,4.57,3.68,9.08,9,13.5,15.23,1.22,1.73,2.43,3.54,3.64,5.41q.6.93,1.2,1.89c.41.63.8,1.27,1.2,1.93s.8,1.3,1.2,2q2.76,4.6,5.47,9.5l1,1.71c.65,1.15,1.28,2.31,1.9,3.49C1446.23,1006.94,1447.23,1008.83,1448.23,1010.72Z"/></g><rect class="cls-87" x="1126.14" y="1115.8" width="789" height="72.3" rx="8.24"/><rect class="cls-87" x="1126.14" y="1698.49" width="789" height="72.3" rx="8.24"/><rect class="cls-87" x="1126.14" y="1794.6" width="789" height="36.15" rx="8.24"/><rect class="cls-87" x="1126.14" y="1854.57" width="789" height="36.15" rx="8.24"/><path class="cls-87" d="M1275.52,1294.61a150.87,150.87,0,1,0,152.23,158.91H1275.52Z"/><path class="cls-87" d="M1302.12,1270.1h-1.57V1429h152.23c.13-2.67.21-5.35.21-8.06A150.88,150.88,0,0,0,1302.12,1270.1Z"/><rect class="cls-87" x="1534.08" y="1333.53" width="382.46" height="48.59" rx="3.71"/><rect class="cls-87" x="1534.08" y="1408.92" width="382.46" height="48.59" rx="3.71"/><rect class="cls-87" x="1534.08" y="1484.32" width="382.46" height="48.59" rx="3.71"/><polygon class="cls-21" points="2000.56 1243.81 1770.95 1428.95 1800.07 1492.22 2000.56 1405.31 2000.56 1243.81"/><polygon class="cls-21" points="1030.23 1214.61 1107.04 1270.1 1275.32 1330.05 1248.54 1404.72 1030.23 1376.11 1030.23 1214.61"/></g><g id="icon_4" data-name="icon 4"><path class="cls-107" d="M426.21,1830.57a458.81,458.81,0,0,0,16.05,103.57c10.63,38.38,26,73.11,45.64,103.21a292.1,292.1,0,0,0,79.3,81.72A292.21,292.21,0,0,0,647,2036.62c19.66-30.31,35-65.28,45.56-103.91a457.45,457.45,0,0,0,15.68-102.14L567.2,1798Zm330.86-20.52-.87-18.45-18-4.16-165.5-38.29-5.5-1.27-5.49,1.27-165.5,38.29-18,4.16-.87,18.45c-.11,2.49-2.65,61.92,17.47,135.52,11.89,43.49,29.28,83.06,51.69,117.6,28.3,43.62,64.61,79.2,108,105.77l12.74,7.82,12.75-7.82c43.34-26.57,79.66-62.15,108-105.77,22.41-34.54,39.8-74.11,51.69-117.6C759.72,1872,757.18,1812.54,757.07,1810.05Z"/><path class="cls-108" d="M567.2,2148.15c-176.31-108.09-165.49-337-165.49-337l165.49-38.29,165.5,38.29s10.82,228.86-165.5,337Z"/><path class="cls-109" d="M567.2,2152.55l-2-1.2c-40.69-24.95-74.82-58.4-101.43-99.41-21.25-32.75-37.76-70.37-49.09-111.81a491.59,491.59,0,0,1-15.69-91.2c-1.74-23.11-1.1-37.31-1.07-37.91l.13-2.83,2.77-.65,165.5-38.28.84-.2.85.2,165.5,38.28,2.77.65.13,2.83c0,.6.67,14.8-1.07,37.91a491.59,491.59,0,0,1-15.69,91.2c-11.33,41.44-27.85,79.06-49.1,111.81-26.6,41-60.73,74.46-101.42,99.41ZM405.38,1814.2c-.22,12.34,0,63.56,16.64,124.18,11.14,40.65,27.34,77.52,48.17,109.59,25.55,39.35,58.18,71.56,97,95.77,38.88-24.23,71.53-56.48,97.1-95.88,20.83-32.11,37-69,48.15-109.71,16.57-60.58,16.8-111.63,16.58-124L567.2,1776.76Z"/><path class="cls-13" d="M569.54,2029.82A23.86,23.86,0,0,1,550.2,2020l-.37-.5-.33-.52-54.19-84.77a2.49,2.49,0,0,1,.75-3.43l28.71-18.35a2.49,2.49,0,0,1,3.44.75l37.6,58.82a1.66,1.66,0,0,0,2.9-.19l57-123.52a2.49,2.49,0,0,1,3.3-1.22L660,1861.36a2.48,2.48,0,0,1,1.21,3.3l-70.19,152-.07.13a24.42,24.42,0,0,1-19.57,13C570.76,2029.8,570.15,2029.82,569.54,2029.82Z"/><path class="cls-110" d="M739.6,1945.57c-11.89,43.49-29.28,83.06-51.69,117.6-28.3,43.62-64.62,79.2-108,105.77l-12.75,7.82V1747.88l5.5,1.27,165.5,38.29,18,4.16.87,18.45C757.18,1812.54,759.72,1872,739.6,1945.57Z"/></g><g id="icon_3" data-name="icon 3"><path class="cls-111" d="M1655.77,2082.79v304.67h-493c-7,0-12.73-5.28-12.73-11.79V2037.53a4.45,4.45,0,0,1,4.61-4.27h168.27a4.6,4.6,0,0,1,4.4,3l14.29,42.27H1651.5A4.27,4.27,0,0,1,1655.77,2082.79Z"/><rect class="cls-112" x="1150.05" y="2056.27" width="505.71" height="138.43"/><rect class="cls-113" x="1150.05" y="2068.07" width="505.71" height="138.43"/><rect class="cls-114" x="1150.05" y="2078.57" width="505.71" height="138.43"/><rect class="cls-115" x="1150.05" y="2085.79" width="505.71" height="138.43"/><path class="cls-116" d="M1644,2120.84H1327.56l-13.25-42.27a4.25,4.25,0,0,0-4.07-3H1154.32a4.27,4.27,0,0,0-4.27,4.27V2418a11.79,11.79,0,0,0,11.79,11.79H1644a11.79,11.79,0,0,0,11.79-11.79V2132.63A11.79,11.79,0,0,0,1644,2120.84Z"/><circle class="cls-114" cx="1403.62" cy="2276.41" r="81.33" transform="translate(-1198.55 1659.25) rotate(-45)"/><circle class="cls-117" cx="1403.62" cy="2249.41" r="24.27"/><path class="cls-118" d="M1397.53,2284.31h12.17a38.61,38.61,0,0,1,38.61,38.61v0a4.76,4.76,0,0,1-4.76,4.76h-79.86a4.76,4.76,0,0,1-4.76-4.76v0a38.61,38.61,0,0,1,38.61-38.61Z"/></g><g id="icon_2" data-name="icon 2"><path class="cls-119" d="M1390.24,84.66a34.59,34.59,0,0,0-4-12L1386,72c-19-44.79-73.88-64.34-122.53-43.68-38.68,16.43-61.78,53.34-60.06,90.29a.7.7,0,0,1-1.18.51c-25.4-26.89-68-35.9-106.69-19.46-48.64,20.66-72.65,73.72-53.63,118.5a80.76,80.76,0,0,0,4.29,8.64h0l0,.07a81.79,81.79,0,0,0,12.1,16.12c29.7,36.42,114,122.33,253.64,131.24,0,0,93.22-123.92,80.54-270a82.35,82.35,0,0,0-2.32-19.56Z"/><path class="cls-120" d="M1390.24,84.66v0a81.64,81.64,0,0,1,2.32,19.55c12.68,146.11-80.54,270-80.54,270q-8.94-.57-17.59-1.56c21.89-33.22,83.49-138.65,73-259.18A82.27,82.27,0,0,0,1365.14,94h0a34.44,34.44,0,0,0-4-12.06c-.08-.19-.15-.39-.24-.58C1344.17,41.83,1299.53,22,1255.85,32q3.72-1.95,7.67-3.63C1312.16,7.69,1367,27.24,1386,72l.24.58A34.72,34.72,0,0,1,1390.24,84.66Z"/><g class="cls-121"><path class="cls-13" d="M1105.72,136.5a11.76,11.76,0,0,0-7.06-7.35c-5.62-2-10.85-.19-15.36,2.9a41.31,41.31,0,0,0-10.77,11.15,40.75,40.75,0,0,0-5.83,12.91c-2.72,10.76-1.39,24.77,2.36,37.64a106.91,106.91,0,0,0,8.54,20.93c3,5.47,6.56,10.67,10.63,12.86s8.56.33,9.28-5.36c.4-3.11-.34-6.76-1.19-10.2a135.34,135.34,0,0,0-4.16-13.61c-3-8.27-6.94-17-6.69-25.18v1.23a9.17,9.17,0,0,1,2.32-5.16c5.45-6.86,11.76-12.31,16.31-20.6C1105.81,145.55,1107.25,141.14,1105.72,136.5Z"/></g></g><g id="speech_ballon_2" data-name="speech ballon 2"><path class="cls-122" d="M2406.88,736.34c0-51.64,78.53-93.49,175.4-93.49s175.4,41.85,175.4,93.49c0,46.21-62.91,84.59-145.59,92.14a13.64,13.64,0,0,0-6.22,2.07c-25.38,16.54-63.7,40-74.21,45.45-1.26.66-3,.12-3.31-1-1.95-6.72-8-27.67-13.84-47.57-.92-3.16-3.92-5.68-7.87-6.68C2447.64,805.65,2406.88,773.53,2406.88,736.34Z"/><path class="cls-123" d="M2397.13,714.75c0-55.7,78.53-100.85,175.4-100.85s175.4,45.15,175.4,100.85c0,49.86-62.91,91.26-145.59,99.4a13.13,13.13,0,0,0-6.22,2.23c-25.38,17.85-63.7,43.14-74.21,49a2.29,2.29,0,0,1-3.31-1.13c-1.95-7.25-8-29.85-13.84-51.31-.92-3.41-3.92-6.13-7.87-7.21C2437.89,789.53,2397.13,754.88,2397.13,714.75Z"/><rect class="cls-13" x="2556.03" y="655.91" width="26.62" height="101.32" rx="4.7"/><rect class="cls-13" x="2556.03" y="655.91" width="26.62" height="101.32" rx="4.7" transform="translate(3275.9 -1862.77) rotate(90)"/></g><g id="speech_balloon_1" data-name="speech balloon 1"><path class="cls-124" d="M764.65,567.53c0-61.21-82-110.83-183.17-110.83S398.31,506.32,398.31,567.53c0,54.79,65.71,100.29,152,109.23a13.22,13.22,0,0,1,6.5,2.45c26.5,19.61,66.52,47.4,77.49,53.89a2.35,2.35,0,0,0,3.46-1.24c2-8,8.38-32.8,14.45-56.39a11.53,11.53,0,0,1,8.22-7.92C722.09,649.7,764.65,611.62,764.65,567.53Z"/><path class="cls-125" d="M754.18,551.5c0-61.21-82-110.83-183.17-110.83S387.85,490.29,387.85,551.5c0,54.79,65.7,100.29,152,109.23a13.31,13.31,0,0,1,6.5,2.45c26.51,19.61,66.53,47.41,77.49,53.89a2.36,2.36,0,0,0,3.47-1.23c2-8,8.37-32.81,14.44-56.4a11.54,11.54,0,0,1,8.22-7.92C711.62,633.67,754.18,595.6,754.18,551.5Z"/><ellipse class="cls-13" cx="492.43" cy="553.64" rx="20.28" ry="18.75"/><ellipse class="cls-13" cx="571.85" cy="553.64" rx="20.28" ry="18.75"/><ellipse class="cls-13" cx="651.26" cy="553.64" rx="20.28" ry="18.75"/></g><g id="doctor-2" data-name="doctor"><path class="cls-126" d="M2069.5,2296.28s6.05,49.7-8.56,65.64-51.15,17.89-59.63,28.33-7.37,25.55,10.34,31.37,57.66-8.56,75.75-6.13,50.82,12.2,47-26.58-5.88-56.89-3.05-89.41Z"/><path class="cls-127" d="M2142,2395.56s21.51,31.13,9.66,37.85-24.72,2.59-46.4,1.4-101.5,12.73-125.2,2.77-11.49-31.37-11.49-31.37l59.49,3.94,85.83-26.32Z"/><path class="cls-128" d="M2135.28,2357.79s-46.68,15.16-77.29-2.73c0,0-48,25.88-75,36s-18.71,36.47,17.65,37.55,83.85-10.12,103.88-9.52,18.07.81,34.15-.71C2166.06,2415.77,2144.41,2379.11,2135.28,2357.79Z"/><path class="cls-128" d="M2135.28,2357.79s-.84-7.38-2.41-11.51-6.6,2.39-7.66,6-8,10-12.65,10.37-6.16,7.17,3.59,7.19,15.24-3,15.24-3S2138.3,2361.55,2135.28,2357.79Z"/><path class="cls-128" d="M2050.59,2358.82a19.49,19.49,0,0,0,10.33-13.74l0-.11c.65-3.8,29.1,1.36,29.9,8.6s-33,21-45.51,20.74-18.44-3-18.44-3S2041.38,2363.63,2050.59,2358.82Z"/><path class="cls-13" d="M2062.09,2377.53a3.3,3.3,0,0,0,2.85-1.42,3.23,3.23,0,0,0-.9-4.54c-1.51-1-14.94-9.84-22.52-11.09a3.27,3.27,0,1,0-1.06,6.45c5.19.85,16.09,7.53,19.84,10A3.3,3.3,0,0,0,2062.09,2377.53Z"/><path class="cls-13" d="M2050.41,2382.77a3.35,3.35,0,0,0,2.85-1.42,3.23,3.23,0,0,0-.9-4.54c-1.51-1-14.94-9.85-22.52-11.09a3.26,3.26,0,1,0-1.06,6.44c5.19.85,16.08,7.54,19.84,10A3.38,3.38,0,0,0,2050.41,2382.77Z"/><path class="cls-13" d="M2038.73,2387.87a3.35,3.35,0,0,0,2.85-1.42,3.23,3.23,0,0,0-.9-4.54c-1.51-1-14.94-9.85-22.52-11.09a3.26,3.26,0,1,0-1.06,6.44c5.2.85,16.09,7.54,19.84,10A3.38,3.38,0,0,0,2038.73,2387.87Z"/><path class="cls-13" d="M2028.29,2393.28a3.34,3.34,0,0,0,2.86-1.43,3.22,3.22,0,0,0-.9-4.53c-1.51-1-14.94-9.85-22.52-11.1a3.27,3.27,0,1,0-1.06,6.45c5.19.85,16.08,7.53,19.84,10A3.47,3.47,0,0,0,2028.29,2393.28Z"/><path class="cls-129" d="M2061.63,2105.62c1.55,45.19,8.57,228.93,8.57,228.93h60c-.28-11.77,10.28-71.08,22.09-136.76s14.83-127,5.27-169.18c-10.54-46.48-18.27-58.08,30.29-159.83,12.74-26.7,23.61-65.06,32.52-105a.08.08,0,0,1,0,0h0c19.32-86.77,29.43-181.24,29.43-181.24H2083.77c-25.45,58.08-40.63,249.32-41.06,271.61-.68,35.57-3.12,48.3-7,93S2058.52,2014.9,2061.63,2105.62Z"/><path class="cls-130" d="M2130.2,2334.55c-.28-11.77,10.28-71.08,22.09-136.76s14.83-127,5.27-169.18c-10.54-46.48-18.27-58.08,30.29-159.83,12.74-26.7,23.61-65.06,32.52-105-1,2.63-22.51,69.75-49.68,117.72-30.22,53.36-43.34,89.1-28.14,138,20.68,66.56-10.76,254.74-21.53,315.08Z"/><path class="cls-131" d="M2296.57,2307.59s6,49.71-8.56,65.64-51.15,17.9-59.64,28.34-7.36,25.55,10.35,31.37,57.66-8.57,75.75-6.13,50.82,12.2,47-26.58-5.88-56.89-3-89.41Z"/><path class="cls-127" d="M2369,2406.87s21.51,31.13,9.65,37.86-24.71,2.59-46.39,1.4-101.5,12.73-125.2,2.77-11.49-31.38-11.49-31.38l59.48,3.94,85.84-26.31Z"/><path class="cls-128" d="M2362.35,2369.11s-46.69,15.15-77.29-2.74c0,0-48,25.88-75,36s-18.71,36.48,17.64,37.55,83.85-10.11,103.88-9.52,18.07.82,34.16-.7C2393.13,2427.08,2371.48,2390.43,2362.35,2369.11Z"/><path class="cls-128" d="M2362.35,2369.11s-.84-7.38-2.41-11.51-6.6,2.39-7.67,6-8,10-12.64,10.38-6.16,7.17,3.59,7.19,15.24-2.95,15.24-2.95S2365.37,2372.87,2362.35,2369.11Z"/><path class="cls-128" d="M2277.65,2370.14A19.44,19.44,0,0,0,2288,2356.4a.5.5,0,0,0,0-.12c.65-3.79,29.11,1.37,29.91,8.6s-33,21-45.52,20.75-18.44-3-18.44-3S2268.45,2375,2277.65,2370.14Z"/><path class="cls-13" d="M2289.15,2388.85a3.34,3.34,0,0,0,2.85-1.42,3.23,3.23,0,0,0-.89-4.54c-1.51-1-14.94-9.84-22.52-11.09a3.26,3.26,0,1,0-1.06,6.44c5.19.86,16.08,7.54,19.84,10A3.38,3.38,0,0,0,2289.15,2388.85Z"/><path class="cls-13" d="M2277.47,2394.09a3.35,3.35,0,0,0,2.85-1.42,3.23,3.23,0,0,0-.89-4.54c-1.51-1-14.94-9.85-22.52-11.09a3.27,3.27,0,1,0-1.07,6.44c5.2.85,16.09,7.53,19.85,10A3.47,3.47,0,0,0,2277.47,2394.09Z"/><path class="cls-13" d="M2265.79,2399.19a3.34,3.34,0,0,0,2.86-1.43,3.22,3.22,0,0,0-.9-4.53c-1.51-1-14.94-9.85-22.52-11.1a3.27,3.27,0,1,0-1.06,6.45c5.19.85,16.08,7.53,19.84,10A3.47,3.47,0,0,0,2265.79,2399.19Z"/><path class="cls-13" d="M2255.36,2404.59a3.3,3.3,0,0,0,2.85-1.42,3.22,3.22,0,0,0-.9-4.54c-1.5-1-14.93-9.84-22.51-11.09a3.27,3.27,0,1,0-1.07,6.45c5.2.85,16.09,7.53,19.85,10A3.29,3.29,0,0,0,2255.36,2404.59Z"/><path class="cls-132" d="M2171.64,1615.71c4.23,88.11,45.87,312.57,47.19,342.78,1.9,43.16,17.75,46.21,40.13,123.64s37.86,257.27,37.86,257.27h60.93c-.21-31.4,19.47-193.74,19.47-262.91,0-47.58-30.34-99.84-34.67-147.65-6.09-67.28,34.67-220.66,33.23-279-.89-36.22-18-78.5-18-78.5s-24.11-4.93-55-8.44c-53.14-6.06-126.29-7.94-130.83,26.74C2171.17,1595.76,2171.12,1604.67,2171.64,1615.71Z"/><path class="cls-130" d="M2354.33,1704.27c-13.22,68.52-46,181.09-23.5,257.45s34.43,90.55,32,145.85c-2.28,51.46-19.65,188.68-14.4,231.83h9.34c-.21-31.4,19.47-193.74,19.47-262.91,0-47.58-30.34-99.84-34.67-147.65-6.09-67.28,34.67-220.66,33.23-279-.89-36.22-18-78.5-18-78.5s-24.11-4.93-55-8.44l-33.18,7.25-152.25,42.9s102.16,21.16,226.62-16.15C2344,1596.91,2367.54,1635.75,2354.33,1704.27Z"/><path class="cls-133" d="M1778,1444.08c-16.43-6.63-47.77,5.43-57,10.79-11.93,7-15,13.39-6.8,16.25s15.08-7.87,23.09-4.69c2.07.83-2.46,1.94-3.28,2.34-1.84.9-5,2.56-5.63,2.81-24.64,9.44-44.36,24.78-10.32,42.94,40.06,21.37,59.08-4.08,86.67-29.43Z"/><path class="cls-134" d="M2137.83,1188.15c-21.81,27.27-47,80.36-70.28,118.45a260,260,0,0,1-18,26.37h0a94.11,94.11,0,0,1-8.37,9.28c-24.83,23.62-207.92,136.59-241.14,150,0,0-43.78-44.59-29.12-63.27,0,0,113.22-71,170.38-124.51,20.84-19.51,34.83-24,37-28,12.69-23.4,67.79-170.5,111.53-203.11,42-31.28,90.25-27,92.32,29.31C2183.09,1126.75,2162.45,1157.35,2137.83,1188.15Z"/><path class="cls-135" d="M2067.55,1306.6a260,260,0,0,1-18,26.37c-2.39-15.24-8.37-49-8.37-91.56,0-64.61,16.06-111.67,16.06-111.67l6,50.46Z"/><path class="cls-136" d="M2406.44,1151c-2.26,26.07-11.16,57.25-20.36,92.5-13.92,53.31-28.5,115.91-21.76,184.15l.06.57c4.13,41.76,6.17,71.87,10.13,93.06,2.88,15.38,4.52,35.53,5.23,58.61,3.88,126.21-19.92,339.93-19.92,339.93s-125.11,81.56-339.65,12.54c0,0,6.26-229,31.41-356,16.18-81.68,10.87-176.83,0-325.61-7.75-106.08-.91-191.43,120.14-215.4a255.11,255.11,0,0,1,138.83,11.45c23.43,8.77,49.83,21.74,74.32,40.79C2404,1102.39,2408.77,1123.91,2406.44,1151Z"/><path class="cls-21" d="M2374.51,1521.23c2.88,15.38,4.52,35.53,5.23,58.61l-.32,32.57-34.92,3.43,6.69-159.38c-2.25-22.44-7.05-111.07-7.05-111.07-11.93-17.53-27.85-124.58-27.85-124.58l69.79,22.64c-13.92,53.31-28.5,115.91-21.76,184.15l.06.57C2368.51,1469.93,2370.55,1500,2374.51,1521.23Z"/><path class="cls-137" d="M2161.91,1301.61c1,27,1.39,54.05,1.56,81.09s0,54.07-.6,81.11-1.59,54.06-3.13,81.06c-.77,13.5-1.66,27-2.77,40.48-.51,6.74-1.15,13.47-1.75,20.21s-1.3,13.47-2.09,20.19l-2.19,20.15c-.72,6.71-1.48,13.42-2,20.15l-1.78,20.18-1.52,20.2c-.56,6.73-.9,13.48-1.37,20.22l-.65,10.11-.57,10.11-1.15,20.23-1,20.24c-2.61,54-4.1,108-5.06,162.08h-.3c-.76-54.07.29-108.16,2.36-162.21l.93-20.26,1.09-20.26c.34-6.75.82-13.5,1.29-20.24s.86-13.5,1.45-20.24l1.66-20.22,1.93-20.2c.6-6.73,1.41-13.45,2.18-20.17l2.34-20.15c.82-6.7,1.47-13.42,2.19-20.13s1.32-13.44,1.87-20.17q1.76-20.19,3-40.42c1.7-27,2.82-54,3.58-81s1.16-54,1.2-81.07-.21-54.06-1-81.08Z"/><path class="cls-138" d="M2225.24,1240.43s59.77.8,76.84-4.89V1263s-48,11.25-76.84,3.91Z"/><path class="cls-139" d="M2218.22,1598.22s60,5.22,90.71-7.83c0,0,3.55,60.71-4.9,83-6.3,16.61-61.71,15.59-74.38,10.72C2214.28,1678.21,2218.22,1598.22,2218.22,1598.22Z"/><path class="cls-140" d="M2214.39,1593.79h0a5.52,5.52,0,0,0,5.1,5.51c15.24,1.12,61.11,3.36,89.92-7.49a5.47,5.47,0,0,0,3.52-5.14v-.18a5.51,5.51,0,0,0-7-5.31c-13,3.68-43.65,10.36-85.57,7.12A5.52,5.52,0,0,0,2214.39,1593.79Z"/><path class="cls-139" d="M2127.68,1589.63s-43.21,2.65-63.78-10.94c0,0-8.34,57.59-4.46,79.12,2.89,16,42.41,17.2,51.89,13.06C2122.83,1665.84,2127.68,1589.63,2127.68,1589.63Z"/><path class="cls-140" d="M2130.83,1585.58h0c-.28,2.74-2.09,4.94-4.16,5-10.94.48-43.79.84-63.25-10.58-1.44-.85-2.23-2.86-2-5l0-.17c.35-3.47,3.08-5.86,5.48-4.78,8.94,4,30.07,11.54,60.2,10.07C2129.42,1580,2131.14,1582.51,2130.83,1585.58Z"/><path class="cls-141" d="M2161.77,1056.45s-24.14,61.78,0,168.81c0,0,79.16-142.1,101.91-160.13S2161.77,1056.45,2161.77,1056.45Z"/><path class="cls-142" d="M2261.28,957.3s10,80.7,13.67,89.28c3.05,7.08-19.71,35.27-60.23,38.06-18.23,1.25-37.27,0-49-14-2.46-2.92-4.92-5.74-5-8.38-.34-10,13.22-70.79,11.61-99.87C2171.86,954.23,2261.28,957.3,2261.28,957.3Z"/><path class="cls-143" d="M2120,857.37c-3.21,15.81-1,76,5.21,101.33,8.61,35,20,68.9,68.68,63.47,42.08-4.7,90.52-50,98.4-124.42s-56.46-88.34-87.26-89.89C2177.66,806.49,2137.71,770.14,2120,857.37Z"/><path class="cls-144" d="M2315.73,871.42c-.46,59.33-51.5,104.24-52.32,105.11,6.19-9,5-20.67,5-20.67,16-12.72,21.4-38.68,13.82-50.92s-17.66,2.45-17.66,2.45c0-35.49-11.46-55.21-17.92-63.52a34.68,34.68,0,0,0-4.31-4.76h0c-1.87,1.12-3.78,2.2-5.74,3.22-52.82,27.91-136.17,27.36-136.17-18.89,0-45,35.73-61.91,108.41-60.69s90.32,45.65,90.32,45.65S2316.14,817.58,2315.73,871.42Z"/><path class="cls-145" d="M2236.54,842.34c2.4-1.55,5.44-3.06,5.74-3.22C2240.41,840.24,2238.5,841.32,2236.54,842.34Z"/><path class="cls-146" d="M2285,817.43a277.12,277.12,0,0,1-39.66,24.91c-2.54-3.26-3.07-3.23-3.07-3.23S2267.08,828.52,2285,817.43Z"/><g class="cls-147"><path d="M2287.83,840.73A31.89,31.89,0,0,1,2294,852.1a28.17,28.17,0,0,1,.9,3.14,31.71,31.71,0,0,1,.67,3.19,27.43,27.43,0,0,1,.45,3.24c.09,1.08.23,2.17.28,3.25l0,3.27c0,1.09-.11,2.17-.18,3.25a51.61,51.61,0,0,1-.86,6.44c-.34,2.13-1,4.2-1.55,6.28q-1,3.06-2.31,6c.2-2.16.59-4.24.87-6.34l.35-3.15c.12-1.05.29-2.08.32-3.13s.14-2.09.24-3.13.06-2.09.11-3.13c.11-2.09,0-4.16,0-6.24a76.66,76.66,0,0,0-1.55-12.35A57,57,0,0,0,2287.83,840.73Z"/></g><g class="cls-147"><path d="M2117,823.29a23.57,23.57,0,0,0,5,7.39,31.53,31.53,0,0,0,6.95,5.39,42.65,42.65,0,0,0,8.05,3.58c1.39.48,2.81.87,4.24,1.25s2.88.67,4.35.88a98.18,98.18,0,0,0,17.84,1.36c6,0,12.05-.41,18.15-.8a95.62,95.62,0,0,1-18.06,3.14,85.82,85.82,0,0,1-9.22.22,73.68,73.68,0,0,1-9.23-1,44.3,44.3,0,0,1-17.37-6.7,29.06,29.06,0,0,1-6.82-6.41A20.14,20.14,0,0,1,2117,823.29Z"/></g><g class="cls-147"><path d="M2132.92,789.45a62.36,62.36,0,0,1,9.93-5.25l2.6-1.09,2.64-1c1.75-.69,3.56-1.2,5.35-1.78s3.61-1,5.43-1.51,3.66-.88,5.49-1.27l2.77-.57c.92-.17,1.85-.3,2.78-.45,1.86-.27,3.71-.61,5.57-.84,3.74-.36,7.48-.8,11.23-.91,1.88,0,3.75-.21,5.63-.18s3.75,0,5.62.07,3.75.11,5.62.26l5.6.43c3.72.42,7.42,1,11.1,1.57-3.75.06-7.46-.09-11.18-.1l-5.57.07h-2.78c-.93,0-1.85.07-2.78.1-1.85.09-3.7.17-5.55.22s-3.69.26-5.54.38-3.69.2-5.52.45l-5.51.61a200.87,200.87,0,0,0-21.79,3.91c-1.8.45-3.6.87-5.37,1.39l-2.68.75-2.64.83A96.49,96.49,0,0,0,2132.92,789.45Z"/></g><path class="cls-13" d="M2155.34,976.9c6.18,1.07,23.74,3.27,42.35-2.15a1.5,1.5,0,0,1,1.69,2c-1.37,5.74-6,19.23-20.05,23.39-14.66,4.35-22.89-14-25.45-21A1.52,1.52,0,0,1,2155.34,976.9Z"/><path class="cls-148" d="M2354.35,1594.94s-2.23,29.92-10.54,38.67c-7.29,7.69-32.06,17.51-40.39,21.66s-6,13.6,1.31,15,23.8-6.14,27.2-7.64-9.25,15.7-15.22,24.24-9.47,21,1.29,28.73,35.81,16.73,56.53,1.7,23.51-47.73,23-56.52,17.55-52,17.55-52Z"/><path class="cls-149" d="M2391.57,1093c18.08,16,26,52,31.36,91.09,6.61,48.31,35.36,123.83,35.36,164,0,34.26-34.66,257.06-47.87,290.34,0,0-62.49,1-65.92-22.51,0,0,30.91-228,25.69-254.12s-70.69-150.82-64.16-205C2312.29,1104.78,2349.34,1055.63,2391.57,1093Z"/><path class="cls-138" d="M2272.94,1038.47s18,5.37,15.54,22.91-25.36,50.84-52,66l2.45,39.15s-75.75,58.74-75.75,188.6l-1.44-129.86S2240.62,1055.12,2272.94,1038.47Z"/><path class="cls-138" d="M2163.2,1043.54s-46.62,12.86-33.89,67.68l-14.19,37.19s40.4,145.37,48.08,205.08l-1.44-128.23s-16.48-92.89,0-168.81Z"/></g><g id="man"><path class="cls-150" d="M1011.37,2279.46s-6.18,50.78,8.74,67.06,52.26,18.27,60.93,28.94,7.52,26.1-10.58,32.05-58.9-8.75-77.37-6.27-51.92,12.46-48-27.15,6-58.11,3.12-91.34Z"/><path class="cls-127" d="M937.34,2380.88s-22,31.8-9.86,38.67,25.24,2.65,47.39,1.43,103.69,13,127.9,2.83,11.73-32,11.73-32l-60.76,4-87.68-26.89Z"/><path class="cls-128" d="M944.17,2342.3s47.7,15.48,79-2.79c0,0,49,26.43,76.59,36.74s19.11,37.26-18,38.36-85.66-10.33-106.12-9.72-18.46.83-34.89-.72C912.73,2401.53,934.84,2364.08,944.17,2342.3Z"/><path class="cls-128" d="M944.17,2342.3s.86-7.54,2.47-11.76,6.74,2.44,7.82,6.17,8.22,10.18,12.92,10.6,6.29,7.32-3.66,7.34-15.57-3-15.57-3S941.09,2346.14,944.17,2342.3Z"/><path class="cls-128" d="M1030.69,2343.36a19.93,19.93,0,0,1-10.55-14l0-.12c-.66-3.88-29.73,1.39-30.55,8.78s33.71,21.44,46.5,21.2,18.84-3.06,18.84-3.06S1040.09,2348.26,1030.69,2343.36Z"/><path class="cls-13" d="M1019,2362.47A3.44,3.44,0,0,1,1016,2361a3.31,3.31,0,0,1,.92-4.64c1.54-1,15.26-10.06,23-11.33a3.34,3.34,0,1,1,1.09,6.58c-5.31.87-16.43,7.7-20.27,10.26A3.52,3.52,0,0,1,1019,2362.47Z"/><path class="cls-13" d="M1030.88,2367.82a3.39,3.39,0,0,1-2.91-1.46,3.29,3.29,0,0,1,.91-4.63c1.54-1,15.26-10.06,23-11.33A3.34,3.34,0,1,1,1053,2357c-5.31.87-16.43,7.7-20.27,10.25A3.42,3.42,0,0,1,1030.88,2367.82Z"/><path class="cls-13" d="M1042.81,2373a3.36,3.36,0,0,1-2.91-1.45,3.29,3.29,0,0,1,.91-4.63c1.54-1,15.26-10.06,23-11.33a3.34,3.34,0,1,1,1.09,6.58c-5.31.87-16.43,7.7-20.27,10.25A3.32,3.32,0,0,1,1042.81,2373Z"/><path class="cls-13" d="M1053.47,2378.55a3.44,3.44,0,0,1-2.92-1.45,3.31,3.31,0,0,1,.92-4.64c1.54-1,15.26-10.06,23-11.33a3.4,3.4,0,0,1,3.91,2.74,3.36,3.36,0,0,1-2.82,3.84c-5.31.88-16.43,7.7-20.27,10.26A3.52,3.52,0,0,1,1053.47,2378.55Z"/><path class="cls-151" d="M827.16,1550.21s22.05,206.06,63.32,292.53c49.6,104,41.7,115.8,30.93,163.28-9.77,43.07-6.7,105.74,5.38,172.83s22.86,127.68,22.57,139.7h61.29s7.18-187.7,8.76-233.86c3.18-92.67,30.51-116.33,26.51-162s-6.48-58.66-7.18-95c-.43-22.77-15.94-218.13-41.94-277.48Z"/><path class="cls-152" d="M1019.41,2084.69c-1.59,46.17-8.76,233.87-8.76,233.87H949.36c.29-12-10.5-72.61-22.57-139.71s-15.15-129.76-5.38-172.83c10.77-47.48,18.66-59.33-30.94-163.27-13-27.28-24.12-66.46-33.22-107.32a.08.08,0,0,0,0,0h0c-19.74-88.64-30.07-185.15-30.07-185.15H996.79c26,59.34,41.51,254.7,42,277.47.69,36.34,3.18,49.34,7.18,95S1022.58,1992,1019.41,2084.69Z"/><path class="cls-153" d="M949.36,2318.56c.29-12-10.5-72.61-22.57-139.71s-15.15-129.76-5.38-172.83c10.77-47.48,18.66-59.33-30.94-163.27-13-27.28-24.12-66.46-33.22-107.32,1,2.69,23,71.26,50.75,120.26,30.88,54.51,44.27,91,28.74,141-21.12,68,11,260.23,22,321.87Z"/><path class="cls-154" d="M747.74,2291s-6.18,50.78,8.75,67.06,52.25,18.27,60.92,28.94,7.53,26.1-10.57,32.05-58.9-8.75-77.38-6.26-51.92,12.46-48-27.15,6-58.12,3.13-91.35Z"/><path class="cls-127" d="M673.71,2392.44s-22,31.8-9.86,38.67,25.25,2.65,47.4,1.44,103.69,13,127.9,2.82,11.73-32,11.73-32l-60.77,4-87.68-26.88Z"/><path class="cls-128" d="M680.55,2353.86s47.69,15.48,79-2.79c0,0,49,26.44,76.59,36.74s19.11,37.26-18,38.36-85.66-10.33-106.13-9.72-18.45.83-34.89-.72C649.1,2413.09,671.22,2375.64,680.55,2353.86Z"/><path class="cls-128" d="M680.55,2353.86s.86-7.54,2.46-11.76,6.74,2.45,7.83,6.17,8.21,10.18,12.91,10.6,6.3,7.32-3.66,7.34-15.57-3-15.57-3S677.47,2357.7,680.55,2353.86Z"/><path class="cls-128" d="M767.07,2354.92a19.91,19.91,0,0,1-10.55-14l0-.12c-.67-3.87-29.74,1.39-30.55,8.79s33.7,21.43,46.49,21.19,18.84-3.06,18.84-3.06S776.47,2359.82,767.07,2354.92Z"/><path class="cls-13" d="M755.32,2374a3.42,3.42,0,0,1-2.91-1.45,3.29,3.29,0,0,1,.92-4.64c1.54-1,15.26-10.06,23-11.33a3.34,3.34,0,1,1,1.09,6.58c-5.31.88-16.44,7.7-20.28,10.26A3.49,3.49,0,0,1,755.32,2374Z"/><path class="cls-13" d="M767.25,2379.38a3.43,3.43,0,0,1-2.91-1.45,3.31,3.31,0,0,1,.92-4.64c1.54-1,15.26-10.06,23-11.33a3.34,3.34,0,1,1,1.09,6.58c-5.31.87-16.44,7.7-20.27,10.26A3.53,3.53,0,0,1,767.25,2379.38Z"/><path class="cls-13" d="M779.18,2384.59a3.42,3.42,0,0,1-2.91-1.46,3.3,3.3,0,0,1,.92-4.63c1.54-1,15.26-10.06,23-11.33a3.34,3.34,0,1,1,1.09,6.58c-5.31.87-16.44,7.7-20.27,10.25A3.48,3.48,0,0,1,779.18,2384.59Z"/><path class="cls-13" d="M789.84,2390.11a3.42,3.42,0,0,1-2.91-1.45,3.3,3.3,0,0,1,.92-4.64c1.54-1,15.26-10.05,23-11.33a3.34,3.34,0,1,1,1.09,6.58c-5.31.88-16.44,7.7-20.28,10.26A3.49,3.49,0,0,1,789.84,2390.11Z"/><path class="cls-155" d="M875.36,1584.22c-4.32,90-46.85,319.31-48.2,350.17-1.94,44.09-18.14,47.21-41,126.31s-38.67,262.82-38.67,262.82H685.24c.22-32.08-19.89-197.92-19.89-268.58,0-48.61,31-102,35.42-150.84,6.22-68.73-35.42-225.41-33.95-285,.91-37,18.39-80.19,18.39-80.19s24.63-5,56.16-8.63c54.28-6.19,129-8.11,133.65,27.32C875.84,1563.84,875.9,1572.94,875.36,1584.22Z"/><path class="cls-156" d="M688.74,1674.69c13.5,70,47,185,24,263s-35.16,92.5-32.66,149c2.33,52.57,20.07,192.74,14.7,236.83h-9.54c.22-32.08-19.89-197.92-19.89-268.58,0-48.61,31-102,35.42-150.84,6.22-68.73-35.42-225.41-33.95-285,.91-37,18.39-80.19,18.39-80.19s24.63-5,56.16-8.63l33.89,7.41,155.54,43.82s-104.36,21.62-231.51-16.5C699.29,1565,675.24,1604.69,688.74,1674.69Z"/><path class="cls-157" d="M1248.72,1326.87s26.45,15.47,38.63,13.56c10.7-1.67,38.09-12.67,47.46-14.29s13.15,7.58,8,13.1-20.93,6-24.17,8,18.57,1.32,29.22,1.26,23.14,4.19,23.41,17.74-6.7,39.81-31.35,48.53-53.78-7.91-60.85-13.47-53.91-15.4-53.91-15.4Z"/><path class="cls-13" d="M1274.26,1331l7.31,3.7s10.94,42.94-19.81,67.69l-15.4-4.24Z"/><path class="cls-158" d="M1248.54,1404.72s-176.62-21.44-204.62-38.78c-16.52-10.23-36.34-36.93-54-65.91-5.66-9.3-11.07-18.79-16.13-28.15-18.76-34.69-32.8-67.5-37.91-81.39-14.64-39.84-55.48-80.94-43.3-138.87,3.22-15.32,13.2-28.56,27.5-34.92,10.54-4.69,23.23-5.61,39.49.42,26.06,9.66,68.46,46.68,99,159.4,4.31,15.94,18.75,94.65,47.21,104.59,38.5,13.45,158,37.68,169.56,48.94C1275.32,1330.05,1280.23,1386.09,1248.54,1404.72Z"/><path class="cls-159" d="M1003.26,1221.28A265.16,265.16,0,0,0,989.91,1300c-5.66-9.3-11.07-18.79-16.13-28.15l15.48-128.94,25.26-23.66S1020,1170.62,1003.26,1221.28Z"/><path class="cls-160" d="M998.51,1210.82c-36.31,121.12-1.1,340.23-1.1,340.23-68.28,69.81-251.92,10.45-300.59-7-7.35-2.64-11.62-4.31-12-4.44h0s2.49-5.32,8.53-54.23c2.63-21.14,5.91-50.44,9.94-91,.07-.7.14-1.38.21-2.06s.13-1.36.2-2l.06-.59c11.44-115.79-37.24-215.71-43-282.61-2.39-27.62,2.54-49.61,22-64.77,25-19.46,52-32.71,75.92-41.67A260.68,260.68,0,0,1,900.55,989C1024.2,1013.49,1029.71,1106.74,998.51,1210.82Z"/><path class="cls-161" d="M726.83,1197.41c-29.94,53-10.08,102.28-10.08,120.28s-1,41.5,0,43.5c.64,1.27-10.64,126.71-19.93,182.89-7.35-2.64-11.62-4.31-12-4.44h0s2.49-5.32,8.53-54.23c2.63-21.14,5.91-50.44,9.94-91,.07-.7.14-1.38.21-2.06s.13-1.36.2-2l.06-.59c11.44-115.79-37.24-215.71-43-282.61,33.14-15,82.22-6.42,82.22-6.42S761.83,1135.41,726.83,1197.41Z"/><path class="cls-162" d="M539.88,1541.32s-14.17,27.18-11.67,39.25c2.19,10.6,18.41,32.46,23.41,40.55s-2.12,15-9.18,12.27-17.36-18.14-19.51-21.28-.42,18.62.16,29.24-3.06,23.32-16.58,24.26-40.09-4.76-50-29,5.29-54.1,10.5-61.43,12.76-54.6,12.76-54.6Z"/><path class="cls-13" d="M538.15,1554.72l-2.54,7.11s-26.35,9.46-63-19.49l1.56-11.87Z"/><path class="cls-163" d="M724.55,1039.65s49.52,62.43-13.77,155.1c-65.86,96.41-81.63,120.51-91.59,148s-14.8,57.8-21.73,78.45-57,133.15-57,133.15-33.21,7-71-22.18c0,0,22.63-125.13,56-188.48s43.4-140.72,77-192.8S671.87,1015.54,724.55,1039.65Z"/><path class="cls-13" d="M794.12,995.14s-9.31,3.24-8.65,16.15,19.89,34.6,65.6,39,79.21-35.69,55-46.41S794.12,995.14,794.12,995.14Z"/><path class="cls-164" d="M806.27,911s-10.18,82.45-14,91.22c-3.12,7.23,20.13,36,61.53,38.87,18.62,1.28,37-5.94,49-20.23,2.5-3,5-5.87,5.12-8.56.34-10.19-12.42-66.4-10.78-96.11C897.62,907.86,806.27,911,806.27,911Z"/><path class="cls-165" d="M938.12,805.54c5.14,15.53,3.62,79.29.68,105.79-4.07,36.68-31.76,68.57-63.18,71-38.2,3-66.12-23.13-80.29-43.58-8.05-11.61-25.68-46.55-29.74-64.22-17.06-74.13,43.67-113.8,73.72-119.85C866,749.35,909.76,719.82,938.12,805.54Z"/><path class="cls-13" d="M902.44,932.23c-6.06,2.1-23.39,7.22-43.05,4.83a1.53,1.53,0,0,0-1.38,2.25c2.32,5.57,9.23,18.4,24.08,20.28,15.49,2,20.75-17.93,22.18-25.42C904.5,933,903.47,931.87,902.44,932.23Z"/><path class="cls-166" d="M940.92,826.81c-1.31-2.73-16.81-32.88-59.78-23.95-35.61,7.39-66.52-9.81-77.42.88-5.07,5,2.41,42.86-3.08,58.37,0,0-13.59-15.22-20.64-6-8.31,10.9-5.92,28.84-.7,45.4.23.72,11.08,20.15,11.32,20.87,6.58,19.81,6.17,18.38,6.17,18.38s-.17-.18-.48-.56l-1-1.42c-8-11.61-25.67-46.54-29.74-64.22-17.06-74.14,43.67-113.8,73.72-119.86,26.67-5.36,70.45-34.89,98.81,50.83C939.5,809.71,940.39,817.35,940.92,826.81Z"/><path class="cls-145" d="M847.45,707.18c-51,31.65-68.47,12.08-89.06,41.39-10.13,14.4-13.41,62.76-4,108,8.81,42.43,35.86,76.11,40.31,81.44,1,1.38,1.62,2.18,1.62,2.18l-.91-5.1a38.59,38.59,0,0,0-1-4.12h0c-3.25-11,0-22.57,0-22.57-5.73,6.47-10.34,3.07-14.06-3.46-5.44-9.54-9.36-37-4.51-47.3l.09-.17a23.18,23.18,0,0,1,2.48-4.07c7.1-9.31,20.81,6,20.81,6,5.53-15.65-2.46-54.34,3.1-58.85,15.18-12.31,42.16,6.56,78.08-.9,45.37-9.43,60.35,24.35,60.35,24.35C1009.34,704.57,880.17,686.87,847.45,707.18Z"/><path class="cls-167" d="M917.31,717.75a44.75,44.75,0,0,1,8,5.39,58,58,0,0,1,7,6.8,56.27,56.27,0,0,1,5.74,7.94,58.74,58.74,0,0,1,4.25,8.87,53.94,53.94,0,0,1,2.51,9.51l.35,2.44.21,2.45c.14,1.63.12,3.27.11,4.9a56.47,56.47,0,0,1-3.91,19,86.77,86.77,0,0,0,1.57-18.93,61.52,61.52,0,0,0-1.13-9.3,54.65,54.65,0,0,0-2.52-9,64.5,64.5,0,0,0-9-16.38,76.07,76.07,0,0,0-6.14-7.2A69.54,69.54,0,0,0,917.31,717.75Z"/><path class="cls-167" d="M911.8,727.17a41.7,41.7,0,0,1,11.44,9.88,47.45,47.45,0,0,1,4.37,6.3,51.87,51.87,0,0,1,3.28,6.95,49.2,49.2,0,0,1,2,7.43,45.81,45.81,0,0,1,.69,7.65,43.39,43.39,0,0,1-2.66,14.9,78.15,78.15,0,0,0,.32-14.8,54.88,54.88,0,0,0-3.19-14.13,53.75,53.75,0,0,0-3-6.63,61.53,61.53,0,0,0-3.76-6.27A71.83,71.83,0,0,0,911.8,727.17Z"/><path class="cls-167" d="M834.35,719.86a164.23,164.23,0,0,1-15.71,9.31c-2.69,1.44-5.44,2.74-8.28,4a40,40,0,0,1-4.43,1.58c-1.48.42-2.95.81-4.41,1.2-2.94.73-5.85,1.49-8.73,2.32s-5.73,1.74-8.53,2.76a46.6,46.6,0,0,0-8,3.81A16.3,16.3,0,0,0,770,751c.79-3,3-5.47,5.42-7.4a39.2,39.2,0,0,1,8-4.77,77.53,77.53,0,0,1,8.61-3.31c2.92-.94,5.87-1.73,8.81-2.51,1.47-.37,2.94-.73,4.37-1.12s2.76-.88,4.17-1.39c2.79-1,5.55-2.27,8.33-3.45C823.18,724.65,828.71,722.18,834.35,719.86Z"/></g></g></g></svg>