<svg width="120" height="41" viewBox="0 0 120 41" fill="none" xmlns="http://www.w3.org/2000/svg">
<path fill-rule="evenodd" clip-rule="evenodd" d="M27.9864 16.3014C27.3893 15.4537 28.2517 14.7364 28.119 14.0844C26.7923 14.0844 26.0626 15.2581 24.8685 15.0625C24.6032 8.47671 25.4656 7.1726 31.8339 5.34685C36.7428 3.91233 41.5853 2.28219 46.2289 0C48.4843 8.99835 38.5339 17.4099 27.9864 16.3014Z" fill="#78B751"/>
<path fill-rule="evenodd" clip-rule="evenodd" d="M96.1036 20.8275C97.0966 20.924 98.0918 20.5655 99.44 20.8275C101.799 25.5432 104.159 30.4553 106.855 35.8914C109.147 30.5863 111.169 25.7396 113.259 20.762C115.281 20.6965 117.371 20.5655 119.528 20.5C119.124 21.9409 117.371 21.155 116.63 22.9888C116.293 27.639 116.63 33.0751 116.899 38.4457C117.573 39.5591 118.854 39.4936 120 40.3451C116.832 40.3451 113.933 40.3451 110.698 40.3451C111.641 39.6901 112.383 39.2317 113.192 38.7077C113.192 34.3195 113.192 29.8658 113.192 25.4122C113.057 25.3467 112.922 25.2812 112.787 25.2812C110.563 30.3243 108.406 35.3019 105.911 41C103.215 35.4984 100.788 30.5208 98.3615 25.4777C98.2267 25.4777 98.0918 25.5432 97.957 25.5432C97.957 29.8004 97.957 34.0575 97.957 38.2492C98.2941 39.4936 99.7097 39.4281 100.586 40.4106C98.0244 40.4106 95.6651 40.4106 93.1035 40.4106C93.845 39.4281 95.1258 39.5591 95.8673 38.0527C96.6762 33.7956 96.2718 28.8834 96.3392 24.0368C96.3392 22.8579 95.328 22.2029 94.3843 21.548C94.5 20.5 95.4295 20.762 96.1036 20.8275Z" fill="white"/>
<path fill-rule="evenodd" clip-rule="evenodd" d="M8.46468 38.4073C11.5067 38.538 14.6809 38.7992 17.9213 38.0154C18.3842 37.3622 18.9133 36.6437 19.5746 35.7293C19.9052 37.2969 19.1117 38.4073 19.1117 39.975C12.6309 39.8443 6.34851 39.7137 0 39.8443C0.925824 38.9952 2.31456 39.3218 3.7033 38.0154C4.43073 30.7651 4.03395 22.9921 3.7033 15.2192C2.8436 14.0435 1.12422 14.566 0.396782 13.325C3.96782 13.7169 7.47273 13.9128 10.9776 13.5863C9.98568 14.0435 8.99372 14.4354 8.13403 14.8273C7.00981 18.2239 7.14207 35.5986 8.46468 38.4073Z" fill="white"/>
<path fill-rule="evenodd" clip-rule="evenodd" d="M96.2068 20.919C95.6175 20.9846 94.9628 20.919 94.57 21.5095C93.0641 20.7878 91.6891 20.9846 90.2487 22.4937C89.6594 25.643 90.0523 29.1204 89.9868 32.5977C89.8559 38.109 86.7786 41.1271 81.3443 40.9959C76.3683 40.8647 73.2256 37.781 73.0946 32.729C72.9637 29.3828 73.0946 25.971 72.8982 22.6249C72.5054 21.3127 70.6721 21.9032 70.3447 20.5254C73.291 20.7878 76.1719 20.7878 79.1182 20.5254C78.7908 21.8376 77.2195 21.3127 76.6957 22.2968C76.1064 26.4959 75.8445 30.7606 76.6302 34.9597C77.2195 38.3059 80.0348 39.8805 83.5704 39.4869C86.7131 39.0932 88.5464 37.1905 88.6119 33.7131C88.7428 30.0389 88.6119 26.2991 88.4154 22.6249C88.0226 21.3127 86.1893 21.9032 85.7965 20.5254C89.3321 20.591 92.8022 20.2629 96.2068 20.919Z" fill="white"/>
<path fill-rule="evenodd" clip-rule="evenodd" d="M66.8461 28.29C66.7795 29.5671 66.7129 30.7164 66.6463 32.0573C64.7816 30.2056 62.5839 30.6526 60.2529 30.6526C60.1863 33.3344 59.9865 35.8246 60.5193 38.6341C63.6494 38.6341 66.8461 39.975 69.3102 35.6969C69.177 37.6763 69.0438 38.7618 68.4444 39.975C63.6494 39.975 58.8544 39.975 53.9928 39.975C54.3923 38.9534 55.7243 39.3365 56.5901 38.6341C57.1894 33.2067 56.9897 27.7792 56.7233 22.2879C55.9907 21.3301 54.5921 21.7771 53.793 20.5639C58.7878 20.6277 63.5162 20.8193 68.1781 20.5C68.5776 21.5855 68.511 22.5433 68.3112 23.7565C66.1801 21.3301 63.383 21.9686 60.5859 21.9048C59.9199 24.2673 60.3861 26.566 60.2529 29.0563C62.5173 29.5032 64.7816 29.8863 66.8461 28.29Z" fill="white"/>
<path fill-rule="evenodd" clip-rule="evenodd" d="M27.2977 27.7778C30.4217 22.1822 31.7233 21.1763 35.1728 21.5535C29.3153 24.0055 26.4516 31.1101 28.4041 38.4661C29.0549 38.8433 29.8359 39.2834 31.0074 39.975C27.6882 39.975 24.9547 39.975 22.1561 39.975C22.4815 38.9062 23.8482 39.2206 24.3689 38.0889C26.5817 29.9784 22.6767 22.4966 15.5176 21.4278C19.1622 19.0386 23.4577 21.302 27.2977 27.7778Z" fill="white"/>
<path fill-rule="evenodd" clip-rule="evenodd" d="M52.1102 39.3627C46.2768 42.2727 39.6656 41.1733 36.2952 37.0994C33.3136 33.4781 33.4433 28.4988 36.5544 24.6189C40.1193 20.2216 46.0824 19.2516 51.851 22.1616C52.3695 23.5196 52.3695 24.9422 52.4343 26.4942C51.2676 26.3649 51.3973 25.3949 51.0732 24.8129C49.4528 22.2262 47.0546 21.2563 44.2027 21.5149C41.2212 21.7736 38.8878 23.3256 37.9804 26.3002C36.8137 30.2448 37.0729 34.0601 39.86 37.2287C43.749 41.6907 49.4528 40.5913 52.7584 34.9654C52.5639 36.4527 52.3695 37.94 52.1102 39.3627Z" fill="white"/>
</svg>
