<svg xmlns="http://www.w3.org/2000/svg" viewBox="0 0 440.3 228.23"><defs><style>.cls-1{isolation:isolate;}.cls-2{fill:#cbcfff;}.cls-2,.cls-4,.cls-5{opacity:0.6;}.cls-19,.cls-3{fill:#da97b8;}.cls-18,.cls-3{opacity:0.3;}.cls-4{fill:#cae1fc;}.cls-5{fill:#ffd7df;}.cls-6{fill:#fff;}.cls-7{fill:#fa9a95;}.cls-8{fill:#7ab6f6;}.cls-9{fill:#fa7071;}.cls-10{fill:#2a2b7c;}.cls-11{fill:#bfd4f8;}.cls-12{fill:#364e57;}.cls-13{fill:#b7cae4;}.cls-14{fill:#b0bcd8;}.cls-15{fill:#8ca7f6;}.cls-16{fill:#ff6d69;}.cls-17{fill:#f1a09d;}.cls-18{fill:#a8bcff;}.cls-19{opacity:0.2;}.cls-20{fill:#ffc5c0;}.cls-21{fill:#5c75c3;}.cls-22,.cls-23{fill:#ecb49f;}.cls-23{mix-blend-mode:multiply;}.cls-24{fill:#2e3054;}.cls-25{fill:#f5b29c;}.cls-26{fill:#0b1238;}.cls-27{fill:#3d4166;}.cls-28{fill:#ad704d;}.cls-29{fill:#e1965e;}.cls-30{fill:#e7a588;}.cls-31{fill:#f0f3fa;}.cls-32{fill:#6268a5;}.cls-33{fill:#fad583;}.cls-34{fill:#fe771e;}.cls-35{fill:#f88778;}.cls-36{fill:#46577b;}.cls-37{fill:#d3dcff;}.cls-38{fill:#c7e6fe;}</style></defs><g class="cls-1"><g id="Layer_3" data-name="Layer 3"><path class="cls-2" d="M450.71,155.2a68,68,0,1,1-68-68A68,68,0,0,1,450.71,155.2Z" transform="translate(-10.41 -5.4)"/><path class="cls-2" d="M292,92a46.33,46.33,0,1,1-46.33-46.33A46.33,46.33,0,0,1,292,92Z" transform="translate(-10.41 -5.4)"/><path class="cls-3" d="M126.74,155.23a34.33,34.33,0,1,1-45.45-17.08A34.32,34.32,0,0,1,126.74,155.23Z" transform="translate(-10.41 -5.4)"/><path class="cls-3" d="M343.1,75.49a34.33,34.33,0,1,1-45.45-17.07A34.33,34.33,0,0,1,343.1,75.49Z" transform="translate(-10.41 -5.4)"/><path class="cls-3" d="M226.87,38.53a38.28,38.28,0,1,1-50.67-19A38.28,38.28,0,0,1,226.87,38.53Z" transform="translate(-10.41 -5.4)"/><path class="cls-4" d="M163.25,55.55A80,80,0,1,1,57.37,15.76,80,80,0,0,1,163.25,55.55Z" transform="translate(-10.41 -5.4)"/><path class="cls-4" d="M388.61,34.79A50.06,50.06,0,1,1,322.34,9.88,50.06,50.06,0,0,1,388.61,34.79Z" transform="translate(-10.41 -5.4)"/><path class="cls-5" d="M208.09,160.93a33.17,33.17,0,1,1-33.16-33.17A33.16,33.16,0,0,1,208.09,160.93Z" transform="translate(-10.41 -5.4)"/></g><g id="Layer_4" data-name="Layer 4"><rect class="cls-6" x="58.66" y="80.04" width="14.73" height="19.28" transform="translate(-38.38 24.55) rotate(-21.2)"/><polygon class="cls-7" points="54.77 92.79 53.3 93.36 51.2 87.95 52.67 87.38 54.77 92.79"/><rect class="cls-8" x="64.55" y="88.17" width="1.58" height="9.6" transform="translate(-39.59 24.49) rotate(-21.18)"/><polygon class="cls-9" points="60.04 90.75 58.56 91.32 53.61 78.55 55.09 77.98 60.04 90.75"/><rect class="cls-10" x="69.69" y="85.41" width="1.58" height="10.35" transform="translate(-38.45 26.31) rotate(-21.25)"/><polygon class="cls-6" points="311.99 75.99 302.34 86.79 289.27 75.11 296.51 67.02 301.58 66.7 311.99 75.99"/><polygon class="cls-8" points="299.17 69.4 301.58 66.7 296.51 67.02 299.17 69.4"/><rect class="cls-8" x="306.71" y="76.33" width="5.82" height="0.54" transform="translate(35.83 251.11) rotate(-48.23)"/><polygon class="cls-8" points="302.35 70.11 298.47 74.45 298.07 74.09 301.95 69.75 302.35 70.11"/><rect class="cls-9" x="304.6" y="80.25" width="2.63" height="2.72" transform="translate(30.87 250.02) rotate(-48.23)"/><polygon class="cls-6" points="295.43 74.39 295.53 76.19 294.46 76.25 294.5 76.82 295.57 76.76 295.57 76.76 296.14 76.73 296.01 74.36 295.43 74.39"/><rect class="cls-8" x="309.98" y="79.25" width="5.82" height="0.54" transform="translate(34.73 254.5) rotate(-48.23)"/><polygon class="cls-8" points="305.62 73.03 301.74 77.37 301.34 77.01 305.22 72.67 305.62 73.03"/><rect class="cls-9" x="307.86" y="83.17" width="2.63" height="2.72" transform="translate(29.84 253.53) rotate(-48.25)"/><polygon class="cls-6" points="298.7 77.31 298.8 79.11 297.73 79.17 297.76 79.74 298.84 79.68 298.84 79.68 299.41 79.65 299.28 77.28 298.7 77.31"/><polygon class="cls-8" points="307.89 75.05 304.01 79.4 303.61 79.04 307.49 74.7 307.89 75.05"/><rect class="cls-8" x="314.25" y="83.07" width="5.82" height="0.54" transform="translate(33.32 258.97) rotate(-48.23)"/><rect class="cls-11" x="311.14" y="86.09" width="2.63" height="2.72" transform="translate(28.62 256.73) rotate(-48.21)"/><polygon class="cls-12" points="299.17 69.4 301.58 66.7 296.51 67.02 299.17 69.4"/><path class="cls-13" d="M133.15,51.86a6.41,6.41,0,1,1-7.91-4.42A6.42,6.42,0,0,1,133.15,51.86Z" transform="translate(-10.41 -5.4)"/><path class="cls-6" d="M128.68,53.73l-.56.16-.18-.63a1.25,1.25,0,0,0,.47-1.14l.06,0a.3.3,0,0,0,.22-.36l-.12-.41a.29.29,0,0,0-.38-.19h0L128.1,51a1.37,1.37,0,0,0-2.63.74l0,.17h0a.3.3,0,0,0-.22.36l.12.41a.29.29,0,0,0,.38.19l0,0a1.24,1.24,0,0,0,1,.73l.18.63-.56.16a1.25,1.25,0,0,0-.94,1.52l.49,1.74,4.8-1.36-.49-1.74A1.27,1.27,0,0,0,128.68,53.73Z" transform="translate(-10.41 -5.4)"/><rect class="cls-6" x="123.85" y="52.73" width="0.34" height="5.35" transform="translate(-20.8 30.38) rotate(-15.76)"/><polygon class="cls-6" points="111.65 48.59 112.58 46.7 114.36 47.83 111.65 48.59"/><polygon class="cls-14" points="359.84 39.16 355.72 36.23 353.97 41.96 363.14 44.76 364.89 39.03 359.84 39.16"/><polygon class="cls-14" points="360.09 38.34 351.16 31.98 362.12 31.69 371.05 38.05 360.09 38.34"/><path class="cls-6" d="M372.53,40.52c-.08.23-.56.29-1.09.13s-.89-.48-.82-.72.55-.29,1.08-.13S372.6,40.28,372.53,40.52Z" transform="translate(-10.41 -5.4)"/><polygon class="cls-15" points="369.53 46.51 369.94 43.41 369.5 43.28 369.39 43.24 368.95 43.11 367.56 45.91 369.53 46.51"/><path class="cls-15" d="M380.66,48.5a.72.72,0,1,1-1.38-.42.72.72,0,0,1,.9-.5A.73.73,0,0,1,380.66,48.5Z" transform="translate(-10.41 -5.4)"/><path class="cls-15" d="M379.18,50.28,381,43.75l-9.26-3.39.13-.36,9.42,3.45a.18.18,0,0,1,.11.23l-1.83,6.69Z" transform="translate(-10.41 -5.4)"/><path class="cls-6" d="M243.87,59.4,242,67.92a6.84,6.84,0,0,1-8.13,5.22h0A6.85,6.85,0,0,1,228.66,65l1.86-8.52Z" transform="translate(-10.41 -5.4)"/><rect class="cls-6" x="229.51" y="73.43" width="8.18" height="1.99" transform="translate(100.73 281.42) rotate(-77.7)"/><path class="cls-6" d="M227,79.37c.32-1.5,2.93-2.2,5.83-1.57s5,2.35,4.65,3.85Z" transform="translate(-10.41 -5.4)"/><path class="cls-6" d="M243.21,71l-6-1.31,5-10.61L248,60.31l-1.34,6.15Zm-4.38-2.09,3.93.85,2.9-3.75,1.05-4.82-3.83-.84Z" transform="translate(-10.41 -5.4)"/><path class="cls-6" d="M224.51,61.63l1.34-6.15,5.78,1.26.15,11.74-6-1.3Zm6-4-3.83-.83-1,4.82,1.08,4.62,3.92.85Z" transform="translate(-10.41 -5.4)"/><path class="cls-16" d="M235.64,62.84h0l-1.92.55,0-1.07,2.42-.69,1.14.25-1.75,8-1.29-.28Z" transform="translate(-10.41 -5.4)"/><path class="cls-2" d="M226.77,17.25A11.78,11.78,0,1,1,215,5.48,11.77,11.77,0,0,1,226.77,17.25Z" transform="translate(-10.41 -5.4)"/><circle class="cls-17" cx="374.86" cy="173.34" r="9.87" transform="translate(-48.17 150.23) rotate(-22.36)"/><path class="cls-6" d="M382.44,173.34a7.58,7.58,0,1,1-7.58-7.58A7.57,7.57,0,0,1,382.44,173.34Z" transform="translate(-10.41 -5.4)"/><path class="cls-17" d="M380.24,173.34a5.38,5.38,0,1,1-5.38-5.38A5.38,5.38,0,0,1,380.24,173.34Z" transform="translate(-10.41 -5.4)"/><path class="cls-6" d="M377.94,173.34a3.08,3.08,0,1,1-3.08-3.08A3.08,3.08,0,0,1,377.94,173.34Z" transform="translate(-10.41 -5.4)"/><path class="cls-17" d="M376.06,173.34a1.2,1.2,0,1,1-1.2-1.2A1.2,1.2,0,0,1,376.06,173.34Z" transform="translate(-10.41 -5.4)"/><polygon class="cls-10" points="366.37 167.57 363.87 168.6 364.91 166.11 366.37 167.57"/><polygon class="cls-10" points="373.69 158.59 373.94 158.84 365.03 167.75 364.78 167.5 373.69 158.59"/><polygon class="cls-8" points="373.89 158.89 375.2 158.99 373.29 160.9 371.98 160.8 373.89 158.89"/><polygon class="cls-8" points="373.64 158.64 373.54 157.33 371.63 159.24 371.73 160.55 373.64 158.64"/><path class="cls-4" d="M274,199.5c0,1.62-12.68,2.93-28.33,2.93s-28.32-1.31-28.32-2.93,12.68-2.93,28.32-2.93S274,197.88,274,199.5Z" transform="translate(-10.41 -5.4)"/><path class="cls-18" d="M272.5,219.18c0,1.43-34.69,2.6-77.48,2.6s-77.49-1.17-77.49-2.6,34.69-2.61,77.49-2.61S272.5,217.74,272.5,219.18Z" transform="translate(-10.41 -5.4)"/><path class="cls-3" d="M184.25,199.5c0,1.35-11,2.44-24.57,2.44s-24.58-1.09-24.58-2.44,11-2.45,24.58-2.45S184.25,198.15,184.25,199.5Z" transform="translate(-10.41 -5.4)"/><path class="cls-18" d="M323.11,206.16c0,1.27-10.79,2.3-24.11,2.3s-24.11-1-24.11-2.3,10.8-2.3,24.11-2.3S323.11,204.89,323.11,206.16Z" transform="translate(-10.41 -5.4)"/><path class="cls-18" d="M217,227.7c0,.51-5.09.92-11.36.92s-11.37-.41-11.37-.92,5.09-.92,11.37-.92S217,227.19,217,227.7Z" transform="translate(-10.41 -5.4)"/><path class="cls-19" d="M341.47,218.74c0,1.59-11.91,2.88-26.61,2.88s-26.61-1.29-26.61-2.88,11.92-2.87,26.61-2.87S341.47,217.16,341.47,218.74Z" transform="translate(-10.41 -5.4)"/><path class="cls-14" d="M365.3,229.21c0,.58-4.61,1.06-10.3,1.06s-10.3-.48-10.3-1.06,4.61-1.07,10.3-1.07S365.3,228.62,365.3,229.21Z" transform="translate(-10.41 -5.4)"/><path class="cls-8" d="M352.32,228.89c-.51-5.17-1.52-10.58-1-15.82.15-1.43,1.37-7.83,3.68-6.36,1.85,1.19.63,5.51.62,7.31a55,55,0,0,1-2.32,14.54Z" transform="translate(-10.41 -5.4)"/><path class="cls-10" d="M352.25,229.75l0-.22a31.39,31.39,0,0,1,1.07-4.54c.18-.64.37-1.3.54-1.94.05-.21.11-.54.19-.93.32-1.82.82-4.57,2.26-4.57a1.4,1.4,0,0,1,.61.15c2,1,.94,4.87,0,7.4a1.74,1.74,0,0,1,.84-.24,1,1,0,0,1,.9.48,1.83,1.83,0,0,1-.16,1.77,5.39,5.39,0,0,1-2.66,2l-.22.1Zm4.09-11.87c-1.17,0-1.67,2.8-1.94,4.3-.07.39-.13.74-.19,1-.17.64-.36,1.3-.54,1.94a32.66,32.66,0,0,0-1,4.27l2.89-.46.16-.07A5,5,0,0,0,358.2,227a1.55,1.55,0,0,0,.17-1.44.72.72,0,0,0-.62-.32,1.81,1.81,0,0,0-1.09.46l-.49.39.24-.58c.78-1.91,2.4-6.47.39-7.46A1,1,0,0,0,356.34,217.88Z" transform="translate(-10.41 -5.4)"/><path class="cls-10" d="M352.94,229.82c.72-3.33-.93-8.74-2.24-11.94-.43-1-2.77-4.52-4.25-3.8s.55,4.37,1.08,5.23a2.61,2.61,0,0,0-2-.92c-1.45,0-1.14.3-1,1.49.23,1.83,1.62,2.84,2.88,3.92-.94-.35-2.44-.29-2.39,1.09S352.94,229.82,352.94,229.82Z" transform="translate(-10.41 -5.4)"/><path class="cls-20" d="M113.93,226.8c2.53,0,8.57-.27,7.66-4.55a17.81,17.81,0,0,0-2.4-.13c4.2-1.77,4.15-6.38,3.94-10.74a12.36,12.36,0,0,0-4.64,6.5c-2.24-2.31-2.83.92-3.39,2.93-.78,2.81-1.37,4.59-3.94,6.32Z" transform="translate(-10.41 -5.4)"/><path class="cls-18" d="M121.44,226.74c0,.81-3.82,1.46-8.54,1.46s-8.54-.65-8.54-1.46,3.82-1.45,8.54-1.45S121.44,225.94,121.44,226.74Z" transform="translate(-10.41 -5.4)"/><path class="cls-8" d="M112.69,227.5c-.67-.23,2.86-10.12,2.86-11.07,0-4.37-2.31-5.26-3.09-.53,1-4.16.14-12.57-3.46-15.1-2.14,1.9-1.84,6.06-1.23,8.78C108.48,212.81,110,226.56,112.69,227.5Z" transform="translate(-10.41 -5.4)"/><path class="cls-10" d="M111.87,225.44c-2.1-6.86-3.1-13.84-11.9-13.07-.16,3.27,3,4.94,5.44,6-1.93-.31-3.44.75-2.34,2.53.82,1.33,3.91,1.39,5.18,1.65-3.09,2.06,2.36,4.17,4,4.42Z" transform="translate(-10.41 -5.4)"/></g><g id="Layer_2" data-name="Layer 2"><path class="cls-21" d="M81.72,51.91a1.09,1.09,0,1,1-2.15,0V47.8a1.09,1.09,0,1,1,2.15,0Z" transform="translate(-10.41 -5.4)"/><path class="cls-21" d="M81.72,35.79a1.09,1.09,0,1,1-2.15,0V31.68a1.09,1.09,0,1,1,2.15,0Z" transform="translate(-10.41 -5.4)"/><path class="cls-21" d="M90.35,46A1.15,1.15,0,0,1,91,47.48a1.24,1.24,0,0,1-1.68.26l-3.73-2.05a1.15,1.15,0,0,1-.61-1.53,1.26,1.26,0,0,1,1.69-.25Z" transform="translate(-10.41 -5.4)"/><path class="cls-21" d="M75.74,37.9a1.14,1.14,0,0,1,.61,1.52,1.25,1.25,0,0,1-1.68.26l-3.73-2a1.14,1.14,0,0,1-.6-1.52A1.23,1.23,0,0,1,72,35.85Z" transform="translate(-10.41 -5.4)"/><path class="cls-21" d="M89.28,35.85a1.24,1.24,0,0,1,1.68.26,1.15,1.15,0,0,1-.61,1.52l-3.72,2a1.26,1.26,0,0,1-1.69-.26,1.14,1.14,0,0,1,.61-1.52Z" transform="translate(-10.41 -5.4)"/><path class="cls-21" d="M74.67,43.91a1.25,1.25,0,0,1,1.68.25,1.15,1.15,0,0,1-.61,1.53L72,47.74a1.23,1.23,0,0,1-1.67-.26,1.14,1.14,0,0,1,.6-1.52Z" transform="translate(-10.41 -5.4)"/><path class="cls-7" d="M192.09,58.69a4.26,4.26,0,0,1-1-.11,4.5,4.5,0,1,1,2-8.78.34.34,0,0,1-.15.66,3.83,3.83,0,1,0,2.84,2.73.33.33,0,0,1,.24-.41.34.34,0,0,1,.42.24,4.5,4.5,0,0,1-4.35,5.67Z" transform="translate(-10.41 -5.4)"/><path class="cls-7" d="M192,55.16a.32.32,0,0,1-.23-.09l-2.46-2.22a.34.34,0,1,1,.46-.5l2.2,2,5.57-6.22a.34.34,0,0,1,.51.45l-5.8,6.48a.41.41,0,0,1-.24.11Z" transform="translate(-10.41 -5.4)"/><path class="cls-3" d="M181.44,232c0,.89-9,1.61-20,1.61s-20-.72-20-1.61,9-1.62,20-1.62S181.44,231.12,181.44,232Z" transform="translate(-10.41 -5.4)"/><path class="cls-18" d="M291.05,220.39c0,.84-8.42,1.52-18.81,1.52s-18.82-.68-18.82-1.52,8.43-1.53,18.82-1.53S291.05,219.55,291.05,220.39Z" transform="translate(-10.41 -5.4)"/><path class="cls-19" d="M282.31,228.93c0,.84-8.42,1.52-18.81,1.52s-18.82-.68-18.82-1.52,8.43-1.52,18.82-1.52S282.31,228.09,282.31,228.93Z" transform="translate(-10.41 -5.4)"/><path class="cls-22" d="M318,99.51a2.08,2.08,0,0,1-.85-.18c-.92-.35-1.45-2-1.66-2.82-.48-2-1.51-3.36-2.54-5.18-.13-.23.83.15.87.18a3.87,3.87,0,0,1,1.05,1.32c.43-.85-.2-1.79-.29-2.65a29.69,29.69,0,0,1-.17-3.13c.73.92.87,2.59,1.2,3.67a13,13,0,0,1,0-2,4.92,4.92,0,0,1,.13-2A16,16,0,0,1,317,90.68a16.39,16.39,0,0,1,.52-3.22c.86,1,.15,2.39.6,3.49a5.71,5.71,0,0,0,1-1.8c.53,2.32-.75,4.44-.49,6.81C318.67,97,319.38,99.45,318,99.51Z" transform="translate(-10.41 -5.4)"/><path class="cls-9" d="M327.69,127.56c-1.18,2.22-2.72,6.63-4.15,2.22a159.74,159.74,0,0,0-6.28-16.8s-1.22-7.11-1.43-9.91c-.05-.67-.36-6.47-.61-6.46,1.86-.07,3.94-.29,3.94-.29s.35,2.85.62,4.55c.21,1.29,1.55,8.75,1.55,8.75s5,10.45,5.17,11a3,3,0,0,0,2.08,1.83C329.9,122.94,328.34,126.34,327.69,127.56Z" transform="translate(-10.41 -5.4)"/><path class="cls-22" d="M344.25,131.1c-.31,3.59-2.28,6.74-3,10.23-.73,3.65-.09,6.11.8,9.44,1.07,4.07,4.34,8.56-.73,9.9-3.39.9-7.4-.87-10.78-1.21-2.78-.28-5.44.24-6.11-2.35-1.49-5.8,7-11.48,2.16-16.09-4.14-4.33-2.63-12.05-1.89-15.94,2.86-3.78,5.63-1.92,6.41-7.22a34.84,34.84,0,0,1,4-.71,5.82,5.82,0,0,0,2.59,5c1.41.94,3.13.16,4.57,1a4.34,4.34,0,0,1,1.88,3.64,24.08,24.08,0,0,1,.1,4.25Z" transform="translate(-10.41 -5.4)"/><path class="cls-9" d="M344.46,131.66c1.35-3.84.6-6.68-2.64-8.15.42-1.2.26-3.68-1.82-1.76-.53.59-1.83.16-2.67,0-1.16-.24-1.52,3.07-2.16,4A6.15,6.15,0,0,1,330.5,128c-4.22-.49-4-1.89-2.75-6-1.18.67-4.89,1.26-3.79,3.17.55,1.08-1.95,8.18-.11,12s3.28,5.93,3.32,7.41c0,1.67,0,3-.92,4.33s-1.17,2.75-1.82,5.07c-.08.64,3.05.29,3.51.39a50.31,50.31,0,0,0,12,.71,11.38,11.38,0,0,0,2.82-.45c1.5-.62.81-2.27.49-3.51-.89-3.33-2.7-6.14-2-9.79C341.9,138.17,342.92,136,344.46,131.66Z" transform="translate(-10.41 -5.4)"/><path class="cls-23" d="M335.15,117.61c0-.15,0-.3,0-.46a34.84,34.84,0,0,0-4,.71,6.49,6.49,0,0,1-1.08,2.86C331.91,121.23,333.85,119.83,335.15,117.61Z" transform="translate(-10.41 -5.4)"/><path class="cls-22" d="M328,104.94a17.2,17.2,0,0,0,1.22,11.72c2.37,4.32,5.95,2.29,7.65-1.42,1.4-3.07,2.42-9.3-.5-11.82a6.82,6.82,0,0,0-5.51-1c-2.82.94-2.56,2.83-2.57,5.38Z" transform="translate(-10.41 -5.4)"/><path class="cls-24" d="M336.13,102a8.3,8.3,0,0,1,4.18,6.74,7.31,7.31,0,0,1-4.48,7.54,4.5,4.5,0,0,0,.13-4.58c-.77-1.56-1.19-2.32-.68-4.29-1,2.69-3.83,1.09-5.72,2.22a3.56,3.56,0,0,0-1.36,4.57c-3-3.74-3.37-6.81-.47-10.59C329.31,101.51,333.92,100.84,336.13,102Z" transform="translate(-10.41 -5.4)"/><path class="cls-25" d="M325.28,212.07l-3.24-.69c-.12.77-.26,1.54-.41,2.28-.95,4.61-6.25,5.9-6.2,7.43s9.1-2.21,9.1-2.21S325.07,212.65,325.28,212.07Z" transform="translate(-10.41 -5.4)"/><path class="cls-25" d="M338.66,212.74,336,211.46c-.24.81-.26,2.55-.4,3.35-.85,5.13-5.15,5.06-5.29,6.43-.15,1.64,8.53-1.45,8.53-1.45S338.36,213.32,338.66,212.74Z" transform="translate(-10.41 -5.4)"/><path class="cls-26" d="M324.06,156.36c0,.28-3.33,57.94-3.33,57.94l4.9-.16,7.12-46.89,2.17,47.95,3.63.27s11.2-45.9,3.68-67.4a95.48,95.48,0,0,1-15.48-1.74A40.42,40.42,0,0,0,324.06,156.36Z" transform="translate(-10.41 -5.4)"/><path class="cls-24" d="M324.65,217l-.22.11c-5.25,3-5.68,1.51-5.66.84-1.68,1.42-3.46,2.23-3.43,3.13.05,1.54,9.14-2.23,9.14-2.23S324.55,218.07,324.65,217Z" transform="translate(-10.41 -5.4)"/><path class="cls-24" d="M338.55,217.85c-2.34,1.4-2.07,1.43-4.11,1.79s-1.13-.68-1.15-.8c-1.6,1.14-3.15,1.53-3.25,2.53-.16,1.72,8.67-1.57,8.67-1.57S338.69,219.23,338.55,217.85Z" transform="translate(-10.41 -5.4)"/><path class="cls-24" d="M156.34,212.86c.14,2.25-.57,4.44-.46,6.76,3.18.47,5.85,1.14,9.12.95-.76-2.11-2.44-2.51-4.19-3.77-2.82-2-1.47-3.45-2.48-6.36Z" transform="translate(-10.41 -5.4)"/><path class="cls-24" d="M137.17,211.74c-.8.86-.61,2.3-1.21,3.33-1.44,2.47-5.36,2.66-6.78,5-.27.46,5.69,0,6.07-.07,1.57-.26,4-.15,4.25-2.27s-.07-4.1.33-6.33Z" transform="translate(-10.41 -5.4)"/><path class="cls-27" d="M137.6,145s-1.09,1.92-1.18,7.42-1.92,61.5-1.92,61.5h6l7.17-53.83,8.07,54.57,4.62-.33s.36-31.12.18-40.78-3.73-28.83-3.73-28.83S143.28,148.2,137.6,145Z" transform="translate(-10.41 -5.4)"/><path class="cls-22" d="M150.42,108.76s.29,6.69,1.07,8c1,1.67,3.13.68,3.6,2.82.3,1.34-.52,3.15-1.22,4.24-2.16,3.33-6,2.89-9.55,3.5a4.17,4.17,0,0,1-4.87-2.66,7.35,7.35,0,0,1,1.13-5.91c.71-.82,2-1,2.82-1.76a6.58,6.58,0,0,0,2-4.72C145.27,109.52,148.91,107.25,150.42,108.76Z" transform="translate(-10.41 -5.4)"/><path class="cls-23" d="M151,115.18a61.85,61.85,0,0,1-.62-6.42c-1.51-1.51-5.15.76-5,3.49a5.64,5.64,0,0,1-.88,3.25,3.9,3.9,0,0,0,2.75,1.11A4.3,4.3,0,0,0,151,115.18Z" transform="translate(-10.41 -5.4)"/><path class="cls-22" d="M143.06,104.43c-.25,3.32.3,9.79,4.33,10.26s5-4.89,4.71-8c-.16-1.54.16-3.49-.57-4.91-.8-1.57-2.62-1.85-4.14-1.93-2.72-.14-4.12,1.94-4.33,4.61Z" transform="translate(-10.41 -5.4)"/><path class="cls-6" d="M148.08,146.91l.65-.11a50.18,50.18,0,0,0,5.73-1.53c2-.68,2.07.3,2.36-2,.34-2.64.76-6.48,1.32-9.1.53-2.47,1.4-4.86,1.53-7.41a17.52,17.52,0,0,0-1.17-8c-.7-1.53-.72-1.74-2.2-1.71a33.9,33.9,0,0,0-3.88.62s-1.59,4.75-5.75,4.42a5.07,5.07,0,0,1-4.67-4.33,3.45,3.45,0,0,1-1.68,0,5.2,5.2,0,0,1-2.32-1.38c-1-.8-.83-1.3-2-.63a8.21,8.21,0,0,0-2.18,2.63c-2.08,4.08,1.88,9.67,1.85,13.91s1.34,9.84,1.72,14.12C141.4,146,144,147.43,148.08,146.91Z" transform="translate(-10.41 -5.4)"/><path class="cls-24" d="M156.42,143.25c-.92.28-2,.44-2.91.63-1.47.31-2.94.55-4.42.74a35.09,35.09,0,0,1-6.31.33,21.57,21.57,0,0,1-5.58-1.22c-.09.8.17,1.81.16,2.67a33.63,33.63,0,0,1,3.84.7,37.41,37.41,0,0,0,5.43.42,28,28,0,0,0,7.13-1.33c.74-.19,2.43-.24,3-.77.41-.38,0-2.27.13-2.31Z" transform="translate(-10.41 -5.4)"/><path class="cls-6" d="M289.85,140.47a2.58,2.58,0,0,0,2.48,0S291.15,142.92,289.85,140.47Z" transform="translate(-10.41 -5.4)"/><path class="cls-22" d="M243.42,106.6s.29,6.68,1.07,8c1,1.68,3.13.68,3.6,2.82.3,1.34-.51,3.15-1.22,4.25-2.16,3.32-6,2.88-9.55,3.5a4.18,4.18,0,0,1-4.87-2.66,7.37,7.37,0,0,1,1.13-5.92c.71-.82,2-1,2.82-1.76a6.58,6.58,0,0,0,2-4.72C238.27,107.36,241.91,105.08,243.42,106.6Z" transform="translate(-10.41 -5.4)"/><path class="cls-23" d="M244.17,111.32l-.12-2.71c-1.91-1.72-6.49.86-6.3,4v.06a3.22,3.22,0,0,0,2.49,1.66C242.29,114.38,243.47,113.12,244.17,111.32Z" transform="translate(-10.41 -5.4)"/><path class="cls-22" d="M236,102.84s.43,9.12,4.3,9.27,4.32-4.81,4.57-8.42c.28-4-.06-5.27-4.57-5.51C236,98,236,102.84,236,102.84Z" transform="translate(-10.41 -5.4)"/><path class="cls-24" d="M245.78,101.4c0,.26-.11.55-.17.84,1.15,0,1.12,1.83.75,2.48-.07.11-.48.46-.48.53,0,.24.45.21.39.59a1.06,1.06,0,0,1-1.33.75c-.41-.15-.32-.63-.38-1a3.14,3.14,0,0,0-1.11-2c-.48-.46-1.33-1.12-1.4-1.8-.88,1.57-2.81,1.83-4.43,1.47-.23.95-.05,1.46-1,2s-1.07.07-1.81-.44c-.18-.76.89-.9,1.33-1.23-1.11-1.07-.66-3.45.39-4.57a5.52,5.52,0,0,1,4.67-1.81,4.66,4.66,0,0,1,2.6,1.06,2.35,2.35,0,0,1,1,1.8C245.77,100.23,245.88,100.74,245.78,101.4Z" transform="translate(-10.41 -5.4)"/><path class="cls-24" d="M240.38,108.24a4.88,4.88,0,0,0-3.75-.22s-.68,5.79,3.75,5.79c5.11,0,4-5.91,4-5.91A5.48,5.48,0,0,0,240.38,108.24Z" transform="translate(-10.41 -5.4)"/><path class="cls-6" d="M238.37,108.85a4,4,0,0,0,3.89-.06S240.41,112.7,238.37,108.85Z" transform="translate(-10.41 -5.4)"/><path class="cls-28" d="M295.33,108s.29,6.68,1.07,8c1,1.67,3.13.68,3.6,2.82.3,1.34-.52,3.15-1.23,4.24-2.15,3.33-6,2.89-9.54,3.51a4.18,4.18,0,0,1-4.87-2.67,7.35,7.35,0,0,1,1.13-5.91c.71-.82,2-1,2.82-1.76a6.65,6.65,0,0,0,2-4.72C290.18,108.78,293.82,106.51,295.33,108Z" transform="translate(-10.41 -5.4)"/><path class="cls-23" d="M292.37,114.66a3.38,3.38,0,0,0,3.31-2.07c-.24-2.19-.35-4.56-.35-4.56-1.51-1.52-5.15.75-5,3.48a5,5,0,0,1-.2,1.72A2.86,2.86,0,0,0,292.37,114.66Z" transform="translate(-10.41 -5.4)"/><path class="cls-28" d="M287.91,104.27s.43,9.12,4.3,9.27,4.32-4.81,4.57-8.42c.28-4.05-.06-5.27-4.57-5.51C287.86,99.39,287.91,104.27,287.91,104.27Z" transform="translate(-10.41 -5.4)"/><path class="cls-6" d="M290.28,110.27a4,4,0,0,0,3.89,0S292.32,114.13,290.28,110.27Z" transform="translate(-10.41 -5.4)"/><path class="cls-24" d="M186.84,101.54A6.62,6.62,0,0,0,185,106.2a6.09,6.09,0,0,0,.5,2.65,17.84,17.84,0,0,1,1.28,2.32,4,4,0,0,0-3,1c-2.9,2.86-3,9.59,1.06,11.36a3,3,0,0,0,2.24.16c-1.38-.94-3.14,2-2,3.6,1.36,1.82,4.7,1.89,6.62,2,2.21.12,5.53.55,7.33-1.12,1.38-1.28,2.1-4,2.4-5.84.55,1.48,1.13,3.32,2.55,3.87a3.37,3.37,0,0,0,3.81-1.72,4.36,4.36,0,0,0-.32-4.32c-.37-.56-2.58-3.6-3.19-3.33,2.76-1.22,2.76-4.65,2.2-7.84-1.7-9.53-13.38-14.28-19.56-7.55Z" transform="translate(-10.41 -5.4)"/><path class="cls-29" d="M197.93,104c.68.68.14,5.15.35,6.26.57,3,3.55,3.42,4.48,5.78.39,1-.13,2.5-.41,3.37-.61,2-1.86,4.76-4,5.3-1.16.29-2.89.28-4.16.45a8.13,8.13,0,0,1-4.82-.56c-3-1.49-3.75-4.69-2.64-7.72.78-2.14,2.05-2,3.57-3.3a7.37,7.37,0,0,0,2.23-5.79C192.33,104.79,196.29,102.32,197.93,104Z" transform="translate(-10.41 -5.4)"/><path class="cls-23" d="M198.44,107.7l-.11-2.59c-1.64-1.65-6-.88-5.86,2.08v.54c.55.93,1.89,3.1,2.78,3C197.14,110.43,197.83,109.42,198.44,107.7Z" transform="translate(-10.41 -5.4)"/><path class="cls-29" d="M190.33,100.22s1.21,9.15,4.72,9.4,4.64-5,4.92-8.56c.31-4-.07-5.25-5-5.49C190.27,95.35,190.33,100.22,190.33,100.22Z" transform="translate(-10.41 -5.4)"/><path class="cls-24" d="M201,98.94c0,.28-.12.59-.18.92,1.24,0,1.21,2,.81,2.69-.07.12-.53.49-.53.58,0,.25.5.22.43.63a1.15,1.15,0,0,1-1.45.82c-.44-.17-.35-.68-.41-1.08a3.39,3.39,0,0,0-1.21-2.15c-.52-.5-1.45-1.21-1.52-2-1,1.71-3.05,2-4.82,1.6-.24,1-.05,1.59-1.08,2.2s-1.15.07-2-.48a2.35,2.35,0,0,1,.91-2.1c-1.2-1.16-.19-3,1-4.21a6,6,0,0,1,5.07-2,5,5,0,0,1,2.83,1.16,2.5,2.5,0,0,1,1.13,2C201,97.67,201.06,98.22,201,98.94Z" transform="translate(-10.41 -5.4)"/><path class="cls-6" d="M190.88,112.94l-.77.76s1.34,1.7,5.16,1.78a8.19,8.19,0,0,0,5.82-2l-1.05-.67S194.6,116.07,190.88,112.94Z" transform="translate(-10.41 -5.4)"/><path class="cls-30" d="M262.86,95.83c.74.12,1.43.1,1.73-.35a8.27,8.27,0,0,0,.44-1.9,29.79,29.79,0,0,1,1.53-5.33c.44-1,1.74-2.53,1.51-3s-1,1-1.25,1.53c.3-.74,1.43-2.8.93-2.89s-1.47,1.65-1.42,2.46c.29-1.24.89-3.79.41-3.79s-1.65,2.84-2.16,3.89a9,9,0,0,0,.49-3c-1.52,1.15-.95,3.55-2.14,4.65-.2-.61.23-2.18-.43-2.17s-.64,4.73-.91,5.3a6.18,6.18,0,0,0-.25,1.83c-.12.94-.62,1.26-.73,2.22C261.1,95.37,262,95.69,262.86,95.83Z" transform="translate(-10.41 -5.4)"/><path class="cls-30" d="M218.67,95.91c-.74.12-1.42.1-1.72-.35a8.3,8.3,0,0,1-.44-1.89A29.69,29.69,0,0,0,215,88.33c-.44-1-1.74-2.52-1.5-3s1,1,1.24,1.53c-.3-.73-1.43-2.79-.93-2.89s1.47,1.65,1.43,2.47c-.29-1.25-.9-3.79-.41-3.8s1.65,2.85,2.16,3.89a8.65,8.65,0,0,1-.49-3c1.52,1.15.94,3.54,2.13,4.65.21-.62-.23-2.19.44-2.17s.64,4.72.9,5.29a5.91,5.91,0,0,1,.25,1.83c.12.94.62,1.27.74,2.22C220.44,95.46,219.52,95.77,218.67,95.91Z" transform="translate(-10.41 -5.4)"/><path class="cls-28" d="M304.64,111.09A10.52,10.52,0,0,0,305,110c.63-1.52,1.77-3.12,2.33-4.67.91-2.5,1.61-5.1,2.75-7.49a21,21,0,0,0,1.75-5.52c.17-.91.05-3.18.71-3.76.52.28.3,3.34,1.26,1.23.73-1.6,2.05-4.51,2.64-4.48s-.89,2.56-.51,2.91,2.07-3,2.47-2.72-1.48,3-1.12,3.31c.62.47,1.41-1.91,1.91-1.68s-.82,1.85-.94,2.79c.87.11,1.57-2,1.9-1.1s-2.32,2.8-3,3.79a14.39,14.39,0,0,0-2.4,6.15,54,54,0,0,1-3,10.83c-.93,2.47-2.65,4.87-3.76,7.18-1.06,0-3.76-1.12-4.33-2.11C303.18,113.91,304,112.31,304.64,111.09Z" transform="translate(-10.41 -5.4)"/><path class="cls-28" d="M278,109.39c-.18-.38-.57-.79-.68-1.06-.6-1.53-1-3.1-1.57-4.66-.86-2.52-1.85-5.22-2.94-7.63a20.75,20.75,0,0,1-1.65-5.55c-.15-.92,0-3.18-.63-3.78-.53.28-.37,3.33-1.29,1.21-.69-1.62-2-4.55-2.56-4.52s.84,2.56.46,2.91-2-3-2.42-2.76,1.42,3,1.06,3.32c-.63.46-1.37-1.93-1.88-1.71s.79,1.87.89,2.81c-.87.09-1.53-2-1.88-1.14s2.27,2.84,2.94,3.84a14.56,14.56,0,0,1,2.28,6.2A54,54,0,0,0,271,107.75c.89,2.5,2.56,4.92,3.62,7.26,1.06,0,3.79-1.06,4.37-2C279.42,112.24,278.61,110.62,278,109.39Z" transform="translate(-10.41 -5.4)"/><path class="cls-27" d="M254.42,212.4c-.08.69.56,1.57.71,2.19.25,1,0,2.09.19,3.08.32,1.52.93,1.64,2.49,2a21.47,21.47,0,0,0,5.87.5c.52,0,2.11,0,2.21-.81s-3-1.58-3.59-2c-1.51-1.06-2.73-2.77-2.29-4.67.91-3.86-4.85-2.56-5.55-.47A.85.85,0,0,0,254.42,212.4Z" transform="translate(-10.41 -5.4)"/><path class="cls-29" d="M205.39,106a4.94,4.94,0,0,1,.61-1.87c.76-1.64,1.73-3.19,2.43-4.85.9-2.11,1.56-4.3,2.5-6.39.39-.85.89-1.69,1.23-2.57.63-1.62.24-3.25.33-5,0-.27.61.58.63.62a3.82,3.82,0,0,1,.17,1.68c.82-.48.8-1.61,1.19-2.38s1.2-2.78,1.57-2.72-.68,2.65-1,3.73a12.55,12.55,0,0,1,1.1-1.62c.34-.59,1.12-2,1.44-1.85s-1.07,3-1.43,4.15a16.36,16.36,0,0,1,2.19-2.43c.17,1.32-1.18,2.1-1.4,3.26a5.65,5.65,0,0,0,1.79-1c-.81,2.23-3.05,3.31-4.11,5.44-1.65,3.28-2.35,7.11-3.42,10.65-.42,1.38-.88,2.79-1.4,4.13-.22.55-.65,2.24-1.34,2.29-.33,0-.7-.55-1-.75a10.08,10.08,0,0,1-1.39-.91A2.28,2.28,0,0,1,205.39,106Z" transform="translate(-10.41 -5.4)"/><path class="cls-22" d="M349.71,98.5a2.28,2.28,0,0,1-.79-.39c-.79-.57-.91-2.27-.9-3.15,0-2.1-.63-3.63-1.18-5.64-.07-.26.77.35.8.38a3.81,3.81,0,0,1,.69,1.55c.63-.72.25-1.79.37-2.64s.36-2.12.61-3.08c.49,1.08.21,2.73.26,3.85a14.21,14.21,0,0,1,.52-1.89,5,5,0,0,1,.62-1.89,16.22,16.22,0,0,1,.13,4.07,16.38,16.38,0,0,1,1.3-3c.58,1.19-.45,2.36-.28,3.53a5.79,5.79,0,0,0,1.39-1.49c-.07,2.37-1.84,4.11-2.17,6.47C350.94,96.23,351,98.76,349.71,98.5Z" transform="translate(-10.41 -5.4)"/><path class="cls-27" d="M229.1,211.45v6.13c-1,.4-10.54,2.88-10.9,1.56-.53-1.93,1.88-2,3-2.31a4,4,0,0,0,2.74-2.55c.37-1.29-.76-2.73-.24-3.95C224.45,208.47,228,210.75,229.1,211.45Z" transform="translate(-10.41 -5.4)"/><path class="cls-29" d="M182.54,105a5.21,5.21,0,0,1-.44-.64c-1.07-1.92-2.37-3.72-3.39-5.67s-1.9-4.17-3-6.19c-.46-.82-1-1.62-1.44-2.47-.76-1.58-.48-3.23-.69-4.94,0-.26-.59.63-.6.67a3.71,3.71,0,0,0-.06,1.69c-.88-.41-.93-1.55-1.39-2.28a31,31,0,0,0-1.8-2.61c0,1.19.88,2.6,1.28,3.66a12.07,12.07,0,0,0-1.25-1.54,5,5,0,0,0-1.33-1.51,15.13,15.13,0,0,0,1.48,3.8,16.6,16.6,0,0,0-2.42-2.25c-.09,1.32,1.36,2,1.66,3.15a6.18,6.18,0,0,1-1.91-.84c1,2.16,3.37,3.07,4.61,5.12,1.92,3.16,2.91,6.93,4.26,10.38a17.77,17.77,0,0,0,2.38,4.47,6.9,6.9,0,0,1,1.2,1.7c1.2-.78,2-2.34,3.43-2.82A4.25,4.25,0,0,0,182.54,105Z" transform="translate(-10.41 -5.4)"/><path class="cls-10" d="M202.24,128c.38-1.34,1.09-2.61,1.44-3.92a14.76,14.76,0,0,0,.49-2.81,20.31,20.31,0,0,1,2.73-7.93c.71-1.3,2.92-6.32,2.92-6.32s-1.82-1-1.62-.62c.47.94-1.53-1.42-2.33-2.06-1.19,4.13-2.91,8.57-7.27,10.35-4.86,2-7.72-.39-10.82-4-1.17-1.35-2.31-2.72-3.52-4-1.06-1.13-1.84-2.45-2.91-3.57-.42.41-3.92,2.12-3.76,2.62.79,2.2,2.61,4.76,3.85,6.87,1.13,1.94,3.19,4.09,3.53,6.26.19,1.22-.12,2.57.12,3.73a17.3,17.3,0,0,0,1.37,3.31,17.09,17.09,0,0,1,1.46,3.53,5.81,5.81,0,0,1,0,2.87c-.2.81-.32,1.89-.5,2.7-.23,1-1.38,2.1-.08,2.28,2.63.38,5.31.56,8,.74,1.95.13,3.95.62,5.92.31.83-.13,2.17.62,2.11-.25a30.4,30.4,0,0,0-.75-3.21A13.57,13.57,0,0,1,202.24,128Z" transform="translate(-10.41 -5.4)"/><path class="cls-29" d="M196.64,182.68s.43,31.2,1.72,33.81,7.65,4.47,8,3.91-2.75-2.81-3.51-4.26-1.72-1.91-1.37-5.73,3.8-34.35,3.8-34.35l-8.58,6.11Z" transform="translate(-10.41 -5.4)"/><path class="cls-29" d="M194.93,183.4s-4.3,31.69-5.48,33.15-5.57,4.53-7.15,4,2.11-3.26,3-4.62,1.9-1.7,2-5.54-1.13-25.66-1.13-25.66l8.81-1.86Z" transform="translate(-10.41 -5.4)"/><path class="cls-24" d="M183.58,217.82c-1.17,1.19-2.27,2.4-1.28,2.74,1.58.52,6-2.56,7.15-4a10,10,0,0,0,.71-2.49C186.9,218.33,184,217.91,183.58,217.82Z" transform="translate(-10.41 -5.4)"/><path class="cls-24" d="M206.33,220.4c.18-.31-.68-1.13-1.62-2.06-1,.1-3.66,0-6.73-3.55a6.78,6.78,0,0,0,.38,1.7C199.65,219.11,206,221,206.33,220.4Z" transform="translate(-10.41 -5.4)"/><path class="cls-9" d="M187.42,135s-10.65,24-13.54,35.32,4.45,14.42,8.44,14.65,11.08,6.11,18,.68,10.71.08,15.37-3.77,2.07-13.27-2.14-21.41-10.71-25.28-10.71-25.28S192.52,136.58,187.42,135Z" transform="translate(-10.41 -5.4)"/><path class="cls-6" d="M238.88,143.91a26,26,0,0,0,5.75-.86,18.93,18.93,0,0,1,2.87-.66c.78,0,1.32.31,1.83-.06l.15-.12a9.1,9.1,0,0,0,.66-2.74c.57-3.6.92-7.24,1.27-10.85.25-2.48-.19-4.76,1.4-6.87.68-.9,5.4-7.61,8.05-12.29s4.95-16.72,4.79-17.21a6.44,6.44,0,0,0-2.14-1.39c-.48-.24-2.18-1.57-2.36-1.07-.34.95-1.71,6.32-3.1,11.67s-7,14.56-9.1,13.6a5,5,0,0,0-3.54-.43c-2.16,3.41-9.2,1.5-9,0a4.93,4.93,0,0,0-3.53.43c-2.09,1-7.71-8.24-9.1-13.6S221,90.74,220.68,89.79c-.18-.5-1.87.83-2.35,1.07a6.51,6.51,0,0,0-2.15,1.39c-.16.49,2.15,12.53,4.8,17.21s7.37,11.39,8.05,12.29c1.58,2.11,1.15,4.39,1.39,6.87.36,3.61.7,7.25,1.28,10.85a9.1,9.1,0,0,0,.66,2.74l.15.12c.51.37,1.05,0,1.82.06a19.06,19.06,0,0,1,2.88.66,25.86,25.86,0,0,0,5.75.86Z" transform="translate(-10.41 -5.4)"/><path class="cls-8" d="M296.06,145.65a18.21,18.21,0,0,1,2.88-.75c.77-.05,1.31.36,1.82-.06l.15-.14c.47-.55.35-2.6.42-3.28.23-2.23.44-4.46.68-6.69a37,37,0,0,1,1.16-5.42c.52-2,.24-4,1.16-6,.65-1.38,1.34-2.67,2.09-4,1.21-2.17,5.33-7.1,6.28-12.45a18.26,18.26,0,0,0-5.45-2c-.42,2.61-6,9.65-7.54,10.17a15.23,15.23,0,0,1-3.72.55s-.65,3.12-3.54,3.54-4.81-1.07-3.94-3.41c-1.09-.46-3-.17-4.58-.68s-7.18-7.48-7.6-10.08a21.18,21.18,0,0,0-5.83,2.08c.95,5.35,5.51,10.06,6.73,12.23.74,1.34,1.43,2.63,2.08,4,.93,1.94.64,4,1.16,6a35.73,35.73,0,0,1,1.16,5.42c.24,2.23.64,5,.87,7.25.07.68-.24,2.17.23,2.72l.15.14c.52.42,1.05,0,1.83.06a18.38,18.38,0,0,1,2.87.75Z" transform="translate(-10.41 -5.4)"/><path class="cls-24" d="M231.61,140.44c0,6.78-10.29,62.09-9.93,73.71,2.79.61,5.93,0,8.53,1,0-3.72,6.84-50.75,10.5-53.41.84,1.37,11,48,12.56,53.35.74-.16,8.21.14,8.21.06.44-5.07-9.27-70.17-11.46-74.93Z" transform="translate(-10.41 -5.4)"/><path class="cls-26" d="M250.38,141.91v-.64a7.35,7.35,0,0,0-.36-1l-18.41.21c0,.36,0,.86-.09,1.47Z" transform="translate(-10.41 -5.4)"/><path class="cls-24" d="M289.66,98.6a2,2,0,0,1-.59.63c-.19.1-.58-.08-.8,0a3.51,3.51,0,0,0-1.48.77c-2.8,3,.79,6.39,4,6,1.5-.17,2.56-1.6,4.1-1.58a2,2,0,0,0,2.48,2.13c3.88-1,1.94-7.16-.53-8.49-1.56-.83-5.32-1.3-6.7-.1A2.84,2.84,0,0,0,289.66,98.6Z" transform="translate(-10.41 -5.4)"/><path class="cls-24" d="M300.83,141.09c-.89.25-1.92.41-2.8.59-1.41.29-2.83.51-4.26.69a34.22,34.22,0,0,1-6.07.31,21.26,21.26,0,0,1-5.37-1.15c-.08.76.17,1.71.16,2.52a34.19,34.19,0,0,1,3.7.66,37.39,37.39,0,0,0,5.22.4,27.73,27.73,0,0,0,6.87-1.25c.71-.19,2.33-.23,2.87-.73s0-2.14.13-2.19Z" transform="translate(-10.41 -5.4)"/><path class="cls-24" d="M301.13,212.44c.12,2-.5,3.92-.4,6,2.75.42,5,1,7.87.85-.66-1.87-2.11-2.23-3.61-3.34-2.43-1.8-1.27-3-2.15-5.62Z" transform="translate(-10.41 -5.4)"/><path class="cls-24" d="M274.56,213.23c-.14,2.56-3.83,3.63-5,5.62,1.18.53,5.34.29,6.5-.59,1.59-1.21.41-4.26,2.25-6Z" transform="translate(-10.41 -5.4)"/><path class="cls-10" d="M282.58,143.16l-9.4,70.66,4.75.17,14.77-47.86L300.17,215l4.42-.34s.34-32.36.17-42.41.33-24-3.57-30C301.19,142.29,288,146.51,282.58,143.16Z" transform="translate(-10.41 -5.4)"/><path class="cls-24" d="M288.51,115.76s-.39,3,2.5,3.09a5.65,5.65,0,0,0,5.14-3.54l.8.16s-1.44,4.58-5.78,4.26-3.53-3.13-3.29-4.1Z" transform="translate(-10.41 -5.4)"/><path class="cls-9" d="M339.29,123.09c1.26-1.48,3-6.16,3.77-8,1.18-3,2.72-6.59,2.72-6.59s2-9.93,2-13.7a6.76,6.76,0,0,1,3.09.91c1.21.53-.92,17.9-.92,17.9s-4.16,13-5.05,15.18c-1.21,3-2.69,3.9-4.17,6.7Z" transform="translate(-10.41 -5.4)"/><path class="cls-22" d="M161.75,107.49c.16-.36-.21-.75-.12-1,.5-1.45,1.55-3,2-4.45.69-2.38,1.5-5,2.42-7.25a19.58,19.58,0,0,0,1.3-5.26c.11-.87-.15-3,.43-3.56.5.23.49,3.1,1.25,1.07.59-1.54,1.65-4.33,2.2-4.33s-.67,2.43-.3,2.73,1.75-2.89,2.14-2.68-1.2,2.92-.84,3.16c.61.4,1.2-1.87,1.67-1.69s-.65,1.78-.7,2.66c.81.06,1.34-1.93,1.71-1.14s-2,2.75-2.58,3.72a13.38,13.38,0,0,0-1.87,5.89,50.44,50.44,0,0,1-2.19,10.29c-.72,2.38-2.17,4.72-3.07,6.94-1,.06-3.58-.82-4.17-1.71C160.56,110.21,161.24,108.66,161.75,107.49Z" transform="translate(-10.41 -5.4)"/><path class="cls-6" d="M160.81,124.4c.55-1.05,3.58-7.58,4.48-10,1-2.77,2.64-5.75,3.24-8.65,0,0,2.63-12.57,2.63-12.57l-4.48-1.8S161.09,107,161,107.22a51.22,51.22,0,0,1-2.7,6.74,14.34,14.34,0,0,1-1.08,2.1c-.72,1-1.78,1.45-1.29,2.85.37,1.07,1.51,1.67,2.13,2.55.77,1.11.43,2.39.66,3.62a11.14,11.14,0,0,1,.54,3.54A12.17,12.17,0,0,1,160.81,124.4Z" transform="translate(-10.41 -5.4)"/><path class="cls-22" d="M133.12,107.38c-.15-.36.21-.75.13-1-.5-1.45-1.56-3-2-4.44-.69-2.39-1.5-5-2.42-7.26a19.57,19.57,0,0,1-1.29-5.26c-.11-.87.14-3-.44-3.56-.5.23-.48,3.1-1.25,1.07-.58-1.54-1.64-4.33-2.19-4.33s.67,2.43.29,2.73-1.75-2.89-2.13-2.68,1.19,2.92.84,3.16c-.61.4-1.2-1.87-1.68-1.69s.65,1.78.71,2.66c-.82.06-1.34-1.93-1.71-1.14s2,2.75,2.58,3.72a13.64,13.64,0,0,1,1.87,5.89,50.28,50.28,0,0,0,2.18,10.29c.72,2.38,2.18,4.72,3.07,6.94,1,.06,3.59-.82,4.18-1.71C134.31,110.1,133.63,108.55,133.12,107.38Z" transform="translate(-10.41 -5.4)"/><path class="cls-6" d="M133.52,124.57c-.59-1.29-1.05-2.7-1.51-3.79-.9-2.11-1.62-4.31-2.43-6.46-1-2.77-2.63-5.75-3.24-8.65,0,0-2.63-12.57-2.63-12.57l4.48-1.8,5.69,15.81a52.64,52.64,0,0,0,2.7,6.74c.78,1.51,1.34,2.34,1.09,4.17-.23,1.6-1.11,3.25-1.51,4.87-.27,1.11-.07,3.79-.79,4.52A8.63,8.63,0,0,1,133.52,124.57Z" transform="translate(-10.41 -5.4)"/><rect class="cls-18" x="412.99" y="125.66" width="22.29" height="17.57" transform="translate(24.7 -86.89) rotate(11.45)"/><rect class="cls-6" x="414.49" y="126.83" width="19.25" height="14.95" transform="translate(24.68 -86.89) rotate(11.45)"/><rect class="cls-31" x="414.49" y="126.83" width="19.25" height="14.95" transform="translate(24.68 -86.89) rotate(11.45)"/><polygon class="cls-11" points="420.61 135.56 422.45 126.49 418.09 130.14 416.23 127.82 411.45 130.34 408.94 129.32 404.8 132.36 420.61 135.56"/><polygon class="cls-32" points="404.88 132.47 404.72 132.26 408.93 129.17 411.44 130.2 416.27 127.65 418.11 129.95 422.37 126.39 422.54 126.59 418.07 130.32 416.2 127.99 411.46 130.49 408.96 129.47 404.88 132.47"/><path class="cls-32" d="M418.28,129.07l-1.28-.26a.13.13,0,0,1-.11-.15.14.14,0,0,1,.16-.11l1.28.26a.15.15,0,0,1,.11.16A.14.14,0,0,1,418.28,129.07Z" transform="translate(-10.41 -5.4)"/><path class="cls-32" d="M428.9,131.22l-2.66-.54a.13.13,0,0,1-.1-.15.12.12,0,0,1,.15-.1L429,131a.13.13,0,0,1,.1.16A.13.13,0,0,1,428.9,131.22Zm-5.31-1.07-2.66-.54a.13.13,0,1,1,.06-.26l2.65.54a.12.12,0,0,1,.1.15A.13.13,0,0,1,423.59,130.15Z" transform="translate(-10.41 -5.4)"/><path class="cls-32" d="M432.84,132l-1.29-.26a.13.13,0,0,1-.1-.16.13.13,0,0,1,.15-.1l1.29.26a.12.12,0,0,1,.1.15A.13.13,0,0,1,432.84,132Z" transform="translate(-10.41 -5.4)"/><path class="cls-32" d="M417.79,131.48l-1.28-.26a.13.13,0,0,1-.1-.16.13.13,0,0,1,.15-.1l1.29.26a.13.13,0,0,1,.1.15A.14.14,0,0,1,417.79,131.48Z" transform="translate(-10.41 -5.4)"/><path class="cls-32" d="M422.79,132.49l-2.5-.51a.13.13,0,0,1-.1-.15.12.12,0,0,1,.15-.1l2.5.5a.13.13,0,0,1,.1.16A.13.13,0,0,1,422.79,132.49Z" transform="translate(-10.41 -5.4)"/><path class="cls-32" d="M426.57,133.26l-1.28-.27a.13.13,0,0,1,0-.25l1.29.26a.13.13,0,0,1,.1.15A.15.15,0,0,1,426.57,133.26Z" transform="translate(-10.41 -5.4)"/><path class="cls-32" d="M417.23,134.49l-1.28-.26A.13.13,0,0,1,416,134l1.29.26a.13.13,0,0,1,.1.15A.13.13,0,0,1,417.23,134.49Z" transform="translate(-10.41 -5.4)"/><path class="cls-32" d="M419.26,134.91l-1.28-.26a.13.13,0,0,1-.1-.16.12.12,0,0,1,.15-.1l1.29.26a.13.13,0,0,1,.1.15A.14.14,0,0,1,419.26,134.91Z" transform="translate(-10.41 -5.4)"/><rect class="cls-32" x="410.99" y="132.65" width="10.42" height="0.52" transform="translate(193.06 509.13) rotate(-78.57)"/><rect class="cls-18" x="82.47" y="157.92" width="26.01" height="22.99" transform="translate(-47.99 22.2) rotate(-13.77)"/><rect class="cls-31" x="84.82" y="159.99" width="21.31" height="18.84" transform="translate(-47.99 22.2) rotate(-13.77)"/><path class="cls-33" d="M105.24,173.09c.12.06-1.74,0-3-2.63s-1.84-3.91-2.77-3.68l-.09,0c-.93.23-.89,1.6-.76,4.54s-1.5,3.82-1.42,3.71Z" transform="translate(-10.41 -5.4)"/><path class="cls-11" d="M102.22,173.82c.17.1-2.37,0-4.21-4.28s-2.72-6.22-4-5.91l-.12,0c-1.27.31-1.14,2.46-.81,7.08s-1.86,5.92-1.75,5.75Z" transform="translate(-10.41 -5.4)"/><path class="cls-34" d="M98.85,171c0,.19,0,.39,0,.59.11,2.52-1.06,3.52-1.35,3.69l4.86-1.19C102,174.09,100.33,173.63,98.85,171Z" transform="translate(-10.41 -5.4)"/><path class="cls-35" d="M102.45,174.1h0Z" transform="translate(-10.41 -5.4)"/><path class="cls-36" d="M106.3,173.7l-16.65,4.08a.85.85,0,1,1-.4-1.65l16.65-4.08a.84.84,0,0,1,1,.62A.86.86,0,0,1,106.3,173.7Z" transform="translate(-10.41 -5.4)"/><path class="cls-32" d="M91.28,176.8l-.26-.28.11-.17.2.13-.07-.21s1.89-1.26,1.58-5.51c-.33-4.64-.5-7,1-7.34l.12,0c1.5-.37,2.43,1.78,4.28,6.05,1.69,3.92,3.92,4.15,4,4.15v.23s.16-.22.16-.22l.13.28-.25.21c-.48,0-2.79-.6-4.45-4.45-1.76-4.08-2.66-6-3.7-5.77l-.12,0c-1,.26-.94,2.4-.62,6.83.31,4.19-1.44,5.82-1.89,6Z" transform="translate(-10.41 -5.4)"/><path class="cls-32" d="M97.14,175.36l-.23-.31.11-.15.19.15-.07-.23s1.37-.8,1.25-3.47c-.14-3-.2-4.51,1-4.79l.09,0c1.15-.29,1.79,1.08,3.06,3.81,1.12,2.42,2.69,2.5,2.71,2.5v.24a1.34,1.34,0,0,0,.13-.23l.15.27-.23.22c-.29,0-2.05-.27-3.23-2.79s-1.76-3.71-2.48-3.54l-.09,0c-.73.18-.7,1.45-.57,4.29s-1.29,3.87-1.58,4Z" transform="translate(-10.41 -5.4)"/><rect class="cls-32" x="87.68" y="164.37" width="0.5" height="12.77" transform="translate(-48.46 20.38) rotate(-13.74)"/><path class="cls-6" d="M336.57,25.41A8.61,8.61,0,1,0,324.2,35.73a9.13,9.13,0,0,1,4,4.78l8-2.79a9.05,9.05,0,0,1,0-5.86A8.59,8.59,0,0,0,336.57,25.41Z" transform="translate(-10.41 -5.4)"/><path class="cls-7" d="M332.78,30.42l-6.41,2.22a3.12,3.12,0,0,1-4-1.93l1-.34a2.1,2.1,0,0,0,2.67,1.3l6.41-2.23a2.07,2.07,0,0,0,1.29-2.66l1-.35A3.14,3.14,0,0,1,332.78,30.42Z" transform="translate(-10.41 -5.4)"/><path class="cls-7" d="M325.15,32.4a2.37,2.37,0,0,1-2.8-1.77,2.12,2.12,0,1,1,3.89-1.35A2.37,2.37,0,0,1,325.15,32.4Zm-1.37-3.92c-.53.18-.73,1-.46,1.81s1,1.32,1.49,1.14.73-1,.46-1.81S324.31,28.29,323.78,28.48Z" transform="translate(-10.41 -5.4)"/><path class="cls-7" d="M333.6,29.47a2.38,2.38,0,0,1-2.8-1.78,2.11,2.11,0,1,1,3.89-1.35A2.38,2.38,0,0,1,333.6,29.47Zm-1.36-3.93c-.53.18-.74,1-.46,1.81s1,1.33,1.48,1.14.74-1,.46-1.81S332.76,25.36,332.24,25.54Z" transform="translate(-10.41 -5.4)"/><path class="cls-7" d="M329.37,30.94a2.39,2.39,0,0,1-2.8-1.78,2.12,2.12,0,1,1,3.9-1.35A2.38,2.38,0,0,1,329.37,30.94ZM328,27c-.53.18-.74,1-.46,1.81s1,1.32,1.48,1.14.74-1,.46-1.81S328.54,26.83,328,27Z" transform="translate(-10.41 -5.4)"/><path class="cls-7" d="M331.49,39.58l-1,.34-2.08-6A1.89,1.89,0,0,0,326,32.76l-.34-1a2.93,2.93,0,0,1,3.73,1.81Z" transform="translate(-10.41 -5.4)"/><path class="cls-7" d="M333.94,38.73l-1,.34-2.08-6a2.93,2.93,0,0,1,1.8-3.73l.34,1a1.91,1.91,0,0,0-1.17,2.42Z" transform="translate(-10.41 -5.4)"/><path class="cls-21" d="M336.78,37.22l.9,2.6a4.94,4.94,0,1,1-9.33,3.23l-.9-2.6Z" transform="translate(-10.41 -5.4)"/><path class="cls-37" d="M331.85,38.92l-3.66,3.68.16.45a5.46,5.46,0,0,0,.3.7l5.65-5.68Z" transform="translate(-10.41 -5.4)"/><path class="cls-37" d="M338,41.54a5,5,0,0,0-.18-1.43l-6.06,6.09a5.24,5.24,0,0,0,1.43.17Z" transform="translate(-10.41 -5.4)"/><path class="cls-37" d="M337.27,38.65l-.41-1.19-7.38,7.42a4.64,4.64,0,0,0,.88.71Z" transform="translate(-10.41 -5.4)"/><polygon class="cls-38" points="226.01 109.23 226.76 108.68 230.59 111.18 233.76 108.68 234.92 109.85 232.09 113.76 230.46 112.26 228.96 113.64 226.01 109.23"/><polygon class="cls-9" points="229.96 111.64 228.72 113.31 229.8 114.47 227.34 134.28 229.96 138.26 233.34 134.02 231.03 114.47 231.8 113.31 230.88 111.9 229.96 111.64"/><path class="cls-6" d="M193.11,106.07a4.69,4.69,0,0,0,4.55-.06S195.49,110.59,193.11,106.07Z" transform="translate(-10.41 -5.4)"/><path class="cls-6" d="M329.71,115.89l3.51,0s-.54,1.4-1.58,1.62S329.71,115.89,329.71,115.89Z" transform="translate(-10.41 -5.4)"/><path class="cls-6" d="M145.85,111.16h3.62s.11,1.18-1.87,1.3S145.85,111.16,145.85,111.16Z" transform="translate(-10.41 -5.4)"/><path class="cls-24" d="M143.32,102.79a7.37,7.37,0,0,0-.34,4.46c.82-.16.83-2.06,1.41-2.73.82-1,1.83-.74,2.77-.2,1.62.92,4.17,2.59,5.92,1a3.31,3.31,0,0,1-.85-.48,1.83,1.83,0,0,0,1.28-.39A6.42,6.42,0,0,0,149,99.23c-1.84-.51-4.4-.35-5.69,1.37-1,1.3-1,4.75.31,5.84Z" transform="translate(-10.41 -5.4)"/></g></g></svg>